<?xml version="1.0" encoding="utf-8"?>
<!-- Generator: Adobe Illustrator 25.4.1, SVG Export Plug-In . SVG Version: 6.00 Build 0)  -->
<svg version="1.1" id="Capa_1" xmlns="http://www.w3.org/2000/svg" xmlns:xlink="http://www.w3.org/1999/xlink" x="0px" y="0px"
	 viewBox="0 0 500 500" style="enable-background:new 0 0 500 500;" xml:space="preserve">
<style type="text/css">
	.st0{fill:#E2E2E1;}
	.st1{fill:#D22F2A;}
	.st2{fill:#CE4E4D;}
	.st3{fill:#BF2C2B;}
	.st4{fill:#A31921;}
	.st5{fill:#F4F4F4;}
	.st6{fill:#CAC9C9;}
</style>
<path class="st0" d="M200.85,23.1c-100.65,0-182.24,81.59-182.24,182.24s81.59,182.24,182.24,182.24
	c100.64,0,182.24-81.59,182.24-182.24S301.5,23.1,200.85,23.1z M200.85,370.71c-91.34,0-165.37-74.04-165.37-165.37
	S109.51,39.96,200.85,39.96c91.33,0,165.36,74.04,165.36,165.37S292.18,370.71,200.85,370.71z"/>
<path class="st0" d="M297.75,126.22c-100.65,0-182.24,81.59-182.24,182.24s81.59,182.24,182.24,182.24
	c100.64,0,182.24-81.59,182.24-182.24S398.4,126.22,297.75,126.22z M297.75,473.83c-91.34,0-165.37-74.04-165.37-165.37
	s74.03-165.37,165.37-165.37c91.33,0,165.36,74.04,165.36,165.37S389.08,473.83,297.75,473.83z"/>
<circle class="st0" cx="336.78" cy="155.39" r="146.81"/>
<circle class="st0" cx="124.61" cy="370.3" r="107.3"/>
<polygon id="XMLID_1257_" class="st1" points="380.34,228.68 380.34,228.68 288.16,315.73 419.13,424.88 419.13,192.04 "/>
<polygon id="XMLID_1258_" class="st2" points="69.87,192.04 69.87,424.88 200.85,315.73 "/>
<polygon id="XMLID_1259_" class="st1" points="200.85,315.73 69.87,424.88 244.5,424.88 244.5,356.96 "/>
<polygon id="XMLID_1260_" class="st3" points="244.5,356.96 244.5,424.88 419.13,424.88 288.16,315.73 "/>
<polygon id="XMLID_1261_" class="st2" points="108.67,155.39 69.87,192.04 108.67,192.04 "/>
<polygon id="XMLID_1262_" class="st2" points="419.13,192.04 380.33,155.39 380.33,192.04 "/>
<polygon id="XMLID_1263_" class="st2" points="244.5,27.11 182.62,85.55 306.23,85.41 "/>
<polygon id="XMLID_1264_" class="st4" points="380.34,228.68 419.13,192.04 380.33,192.04 "/>
<polygon id="XMLID_1265_" class="st4" points="244.5,356.96 108.67,228.67 108.67,192.04 69.87,192.04 200.85,315.73 "/>
<polygon class="st5" points="380.34,192.04 380.34,228.68 288.16,315.73 244.51,356.96 108.66,228.68 108.67,192.04 108.67,155.39 
	108.68,85.64 182.62,85.55 306.23,85.41 380.33,85.32 380.33,155.39 "/>
<rect x="192.32" y="276.03" class="st6" width="105.43" height="4.23"/>
<rect x="212.27" y="283.76" class="st6" width="72.02" height="4.5"/>
<path class="st3" d="M212.42,157.68l-5.24,5.24l32,32l-32,32l5.24,5.24l32-32l32,32l5.24-5.24l-32-32l32-32l-5.24-5.24l-32,32
	L212.42,157.68z"/>
</svg>
