<?xml version="1.0" encoding="utf-8"?>
<!-- Generator: Adobe Illustrator 25.4.1, SVG Export Plug-In . SVG Version: 6.00 Build 0)  -->
<svg version="1.1"
	 id="svg2" sodipodi:docname="art-home-1.eps" xmlns:inkscape="http://www.inkscape.org/namespaces/inkscape" xmlns:sodipodi="http://sodipodi.sourceforge.net/DTD/sodipodi-0.dtd" xmlns:svg="http://www.w3.org/2000/svg"
	 xmlns="http://www.w3.org/2000/svg" xmlns:xlink="http://www.w3.org/1999/xlink" x="0px" y="0px" viewBox="0 0 6240 4160"
	 style="enable-background:new 0 0 6240 4160;" xml:space="preserve">
<style type="text/css">
	.st0{fill:#CA101B;}
	.st1{fill:#F9880A;}
	.st2{fill:#F5B0A6;}
	.st3{fill:#243354;}
	.st4{fill:#112344;}
	.st5{fill:#FFFFFF;}
	.st6{fill:#F18A8B;}
	.st7{fill:#2C4DA2;}
	.st8{fill:#CBCBCB;}
	.st9{fill:#6FC183;}
	.st10{fill:#2A416B;}
	.st11{fill:#3D5891;}
	.st12{fill:#577BBC;}
	.st13{fill:#C3D4F4;}
	.st14{fill:#8CABDD;}
	.st15{fill:#5B80C4;}
	.st16{fill:#587BBA;}
	.st17{fill:#9AB0D8;}
	.st18{fill:#F3F6FD;}
</style>
<sodipodi:namedview  bordercolor="#000000" borderopacity="0.25" id="namedview4" inkscape:deskcolor="#d1d1d1" inkscape:pagecheckerboard="0" inkscape:pageopacity="0.0" inkscape:showpageshadow="2" pagecolor="#ffffff">
	</sodipodi:namedview>
<g id="g8" transform="matrix(1.3333333,0,0,-1.3333333,0,4160)" inkscape:groupmode="layer" inkscape:label="ink_ext_XXXXXX">
	<g id="g10" transform="scale(0.1)">
		<path id="path14" class="st0" d="M13623.7,24315.5c-310.1-291-795.1-261.7-1081.2,65.3c-286,327.1-266.5,830,43.6,1121.1
			c310.2,291,795.2,261.7,1081.2-65.4C13953.4,25109.4,13933.8,24606.6,13623.7,24315.5z M14164.4,25197.9l280.6,257l-166.5,303.9
			l-346.9-110c-5.7,6.9-10.6,14.3-16.6,21.1c-82.2,94-176.3,170-277.2,229.4l33.5,367.1l-322.1,104l-179.4-323.6
			c-125,9.6-251-2.9-372.8-37.3l-221.2,267.6l-296-167.7l93.1-333.8c-6.5-5.8-13.4-10.8-19.7-16.8c-90.4-84.8-163-182.2-219.3-287.1
			l-355,4.4l-77.2-340.2l296.5-144.2c-8.2-132.9,6-267.2,42.4-397l-269.5-259.9l170.6-301.5l335.7,116.3c2.7-3.1,4.9-6.5,7.6-9.6
			c80.8-92.4,173.1-167.7,272.1-226.6l-3.1-404.3l328.7-78.7l149.1,332.5c126.9-9.6,254.8,3.8,378.1,39.5l252.3-276.5l289.7,179.1
			l-112.4,339.8c2.3,2.2,4.9,4,7.3,6.2c93.5,87.8,167.8,189.2,224.8,298.3l352.2-28.2l94.8,335.4l-315.2,180
			C14209.1,24957.6,14195.6,25079.5,14164.4,25197.9"/>
		<path id="path16" class="st1" d="M10053.6,20610.8c-649.4-609.5-1665.2-548.2-2264.2,136.8s-558.1,1738.2,91.3,2347.7
			c649.5,609.5,1665.2,548.1,2264.3-136.9C10744.1,22273.4,10703.1,21220.3,10053.6,20610.8z M11185.8,22458.7l587.8,538.1
			l-348.8,636.6l-726.3-230.3c-12.1,14.4-22.4,29.8-34.8,44c-172.2,196.9-369.2,356.1-580.6,480.5l70.2,768.8l-674.5,217.8
			l-375.7-677.8c-261.9,20.3-525.9-6-780.8-77.9l-463.3,560.4l-619.9-351.3l195.1-699.1c-13.6-12.2-28.1-22.6-41.4-35.1
			c-189.2-177.5-341.2-381.7-459.1-601.2l-743.5,9.2l-161.9-712.4l621.1-302c-17.3-278.5,12.6-559.8,88.8-831.5l-564.6-544.2
			l357.4-631.4l703,243.4c5.6-6.5,10.2-13.6,15.9-20.1c169.3-193.5,362.5-351.1,569.8-474.6l-6.5-846.6l688.4-164.8l312.2,696.3
			c265.8-20.1,533.6,7.9,791.9,82.7l528.3-579l606.8,375.1l-235.6,711.6c5,4.6,10.5,8.4,15.4,13
			c195.8,183.8,351.4,396.2,470.8,624.6l737.7-59l198.4,702.5l-660.1,377C11279.4,21955.5,11251.3,22210.8,11185.8,22458.7"/>
		<path id="path18" class="st2" d="M25480,6985.4l245.6-1427.4l414.4-521.9l690.7,138.2l368.3,291.6L26907.4,7323L25480,6985.4"/>
		<path id="path20" class="st3" d="M27306.5,5711.5c-115.1,53.7-191.9-46.1-322.3-153.5c-130.5-107.5-391.4-161.2-521.9-61.4
			c-130.4,99.8,30.7,199.5-61.4,245.6c-92.1,46-590.9,253.2-744.4,230.2s-230.2-299.3-345.3-422.1
			c-115.1-122.8-698.4-598.6-867.2-767.4c0,0-606.2-15.4-721.4-191.9c-115.1-176.5-138.1-675.3-115.1-690.6
			c23-15.4,3568.5,0,3568.5,0s153.5,721.3,115.1,1366C27273.2,5567.6,27421.6,5657.7,27306.5,5711.5"/>
		<path id="path22" class="st4" d="M26399.7,5742.2c-92.1,46-591,253.2-744.4,230.2c-153.5-23-230.3-299.3-345.4-422.1
			c-115.1-122.8-698.3-598.6-867.2-767.4c0,0-9.9-0.3-27.2-1.1c227.1-42,823.1-149.4,909.8-137c107.4,15.3,544.8,445.1,675.3,606.2
			c99.2,122.5,304.5,218.5,407.5,331.6C26403.5,5650,26464.8,5709.6,26399.7,5742.2"/>
		<path id="path24" class="st4" d="M27306.5,5711.5c-115.1,53.7-191.9-46.1-322.3-153.5c-19.9-16.4-43-31.3-68-44.8
			c50.6-17.6,119.7-57.3,160.1-147.1c62.6-139.3,31.3-555.4,214.2-562.4c8,151.4,9.8,309.2,0.6,462.7
			C27273.2,5567.6,27421.6,5657.7,27306.5,5711.5"/>
		<path id="path26" class="st4" d="M26057.8,4222.7c-532.1-51.2-1330.2-102.3-1759.9-40.9c-262.3,37.4-512.7,86.2-668.4,118.7
			c-33-191.1-36.7-390.5-22.3-400.1c23-15.4,3568.5,0,3568.5,0s24.7,116.2,51.8,296.8C26870.4,4236.2,26567.2,4271.7,26057.8,4222.7
			"/>
		<path id="path28" d="M25483.8,4616.2c-400.6,101.3-1068.8,180.1-1075.5,180.8c-8.1,0.9-16-4.9-17-13.4c-1-8.4,5-16.1,13.4-17
			c6.7-0.8,673-79.3,1071.6-180.2c1.2-0.3,2.5-0.5,3.7-0.5c6.9,0,13.2,4.7,14.9,11.6C25497,4605.7,25492,4614.1,25483.8,4616.2"/>
		<path id="path30" d="M25723,4982.4c-44.5,0-80.5-36.1-80.5-80.6s36-80.5,80.5-80.5s80.6,36,80.6,80.5S25767.5,4982.4,25723,4982.4
			"/>
		<path id="path32" d="M25526.1,4780.3c-44.5,0-80.6-36-80.6-80.5s36.1-80.6,80.6-80.6s80.6,36.1,80.6,80.6
			S25570.6,4780.3,25526.1,4780.3"/>
		<path id="path34" class="st5" d="M25731.5,4968.7c-18.3,8.8-454.2,214.9-879.2,261.5c-33.2,3.6-64-20.6-67.7-54.3
			c-3.7-33.7,20.6-64,54.3-67.8c403.9-44.3,835.5-248.1,839.8-250.1c8.5-4.1,17.5-6,26.4-6c22.9,0,44.9,12.8,55.4,35
			C25775.1,4917.6,25762.1,4954.2,25731.5,4968.7"/>
		<path id="path36" class="st5" d="M25537.1,4753.9c-18.3,8.7-454.2,214.8-879.2,261.4c-33.1,3.4-64-20.6-67.7-54.3
			c-3.7-33.7,20.6-64,54.3-67.7c403.9-44.3,835.5-248.2,839.8-250.2c8.5-4.1,17.5-6,26.4-6c22.9,0,44.9,12.9,55.5,35
			C25580.7,4702.7,25567.7,4739.3,25537.1,4753.9"/>
		<path id="path38" d="M26184.8,5427.5c-44.5,0-80.6-36.1-80.6-80.6s36.1-80.5,80.6-80.5s80.6,36,80.6,80.5
			S26229.3,5427.5,26184.8,5427.5"/>
		<path id="path40" d="M25927.7,5197.3c-44.5,0-80.6-36.1-80.6-80.6s36.1-80.6,80.6-80.6s80.6,36.1,80.6,80.6
			S25972.2,5197.3,25927.7,5197.3"/>
		<path id="path42" class="st5" d="M25941.3,5183.6c-18.3,8.8-454.3,214.8-879.2,261.5c-33.2,3.3-64.1-20.6-67.7-54.3
			c-3.7-33.7,20.6-64.1,54.3-67.8c403.9-44.3,835.5-248.1,839.8-250.2c8.5-4,17.5-6,26.3-6c23,0,45,12.9,55.5,35
			C25984.9,5132.4,25971.9,5169.1,25941.3,5183.6"/>
		<path id="path44" class="st5" d="M26197.1,5413.9c-18.3,8.7-454.2,214.8-879.2,261.4c-33.3,3.7-64-20.6-67.7-54.3
			c-3.7-33.7,20.6-64,54.3-67.8c403.9-44.3,835.5-248.1,839.8-250.1c8.5-4.1,17.5-6,26.3-6c23,0,45,12.8,55.5,35
			C26240.7,5362.7,26227.7,5399.3,26197.1,5413.9"/>
		<path id="path46" class="st5" d="M25706.7,5054c-35.6-27.6-91.5-34-133.3-15.2c-42.7,19.2-74.5,63.9-79.2,111.3
			c-5.6,56.8,22.9,115.5,53.1,177.8c15,31.1,30.6,63.2,43,97c14.6,40.3,24.3,82.7,28.6,125.5c21.9-27,39.7-60.3,56-90.8
			c38.5-72.1,78.3-146.6,89.2-224.1C25774.7,5160.5,25752.2,5089.3,25706.7,5054L25706.7,5054z M25040.2,5485.9l-19.5-12
			c-65-40-127.5-75.8-189.9-69.9c-35.7,3.3-79,39.4-78.5,65.5c0.1,11.2,8.8,27,25.7,47.1c66.7,79.1,156.3,127.4,245.9,132.4
			c97.2,5.3,195.4-1.1,293.5-10.6C25220.6,5596.9,25129.5,5540.8,25040.2,5485.9z M25783.2,5517.4
			c-28.9,54.2-64.9,121.6-127.4,166.2c-69.9,50-155,59.1-223.4,66.4c-135,14.5-275.7,29.3-415.2,21.5
			c-123.3-6.8-244.8-70.9-333.2-175.9c-22.9-27.2-53.6-69.8-54.5-124c-1.8-101.3,98.7-181.4,189.9-189.9
			c98.1-8.4,186,38.6,265.7,87.6l19.5,12c125.7,77.4,255.2,157.1,392.7,187.5c-3-34.8-10.5-69.2-22.4-101.8
			c-10.2-27.9-23.7-55.9-38.1-85.5c-34.6-71.4-73.8-152.2-64.8-243.4c9-91.1,68.2-174,150.9-211.3c31.9-14.3,67.7-21.9,103.7-21.9
			c56.9,0,112.1,18.5,155.4,52.1c80.8,62.8,120.6,176.1,103.7,295.7C25871.7,5351.7,25824.7,5439.8,25783.2,5517.4"/>
		<path id="path48" d="M26965,4564.2c-38.2,0-69.1-30.9-69.1-69.1c0-38.1,30.9-69.1,69.1-69.1c38.1,0,69,31,69,69.1
			C27034,4533.3,27003.1,4564.2,26965,4564.2"/>
		<path id="path50" class="st4" d="M26965,4449.1c-25.4,0-46.1,20.6-46.1,46s20.7,46.1,46.1,46.1s46-20.7,46-46.1
			S26990.4,4449.1,26965,4449.1z M26965,4587.2c-50.8,0-92.1-41.3-92.1-92.1c0-50.8,41.3-92.1,92.1-92.1c50.8,0,92.1,41.3,92.1,92.1
			C27057.1,4545.9,27015.8,4587.2,26965,4587.2"/>
		<path id="path52" d="M26646.5,4564.2c-38.1,0-69.1-30.9-69.1-69.1c0-38.1,31-69.1,69.1-69.1c38.2,0,69.1,31,69.1,69.1
			C26715.6,4533.3,26684.7,4564.2,26646.5,4564.2"/>
		<path id="path54" class="st4" d="M26646.5,4449.1c-25.4,0-46,20.6-46,46s20.6,46.1,46,46.1s46-20.7,46-46.1
			S26671.9,4449.1,26646.5,4449.1z M26646.5,4587.2c-50.8,0-92.1-41.3-92.1-92.1c0-50.8,41.3-92.1,92.1-92.1
			c50.8,0,92.1,41.3,92.1,92.1C26738.6,4545.9,26697.3,4587.2,26646.5,4587.2"/>
		<path id="path56" d="M27091.6,5294.5c-44.9,0-90.7,1.2-135.1,2.5c-247.3,6.8-480.6,13.4-638.3-179.3c-28.6-35-60.7-76-94.6-119.3
			c-186.2-237.8-441.1-563.4-636.1-563.4c-243.7,0-385.1-12.6-457.7-271.6c-1.1-4.2,1.3-8.4,5.4-9.5l2-0.3c3.4,0,6.5,2.2,7.4,5.6
			c69.6,248.3,206.6,260.4,442.9,260.4c202.5,0,460.1,329.1,648.1,569.3c33.9,43.3,66,84.2,94.5,119.1
			c152.9,186.8,382.6,180.4,626,173.7c44.4-1.3,90.4-2.6,135.5-2.6c4.2,0,7.7,3.5,7.7,7.7
			C27099.3,5291.1,27095.8,5294.5,27091.6,5294.5"/>
		<path id="path58" d="M25294.9,4399.1c-1419.4-165.9-1540.8,220.7-1541.8,224.6c-1.1,4.1-5.2,6.4-9.4,5.5c-4.1-1.2-6.5-5.4-5.4-9.4
			c3.6-13.7,86.4-277.9,913-277.9c178.4,0,391.2,12.3,645.5,42c4.1,0.5,7.2,4.3,6.7,8.5S25299.1,4399.8,25294.9,4399.1"/>
		<path id="path60" d="M27146.8,5066.7c-4.7,0.9-474.4,90.5-704.9-109.2c-229.6-198.9-323.9-705.3-324.8-710.4c-0.7-4.2,2-8.2,6.2-9
			l1.4-0.1c3.6,0,6.8,2.6,7.5,6.3c0.9,5.1,94.3,506.2,319.8,701.6c224.7,194.9,687.2,106.7,691.9,105.7c4.1-0.6,8.1,1.9,8.9,6.1
			C27153.7,5061.9,27151,5065.9,27146.8,5066.7"/>
		<path id="path62" d="M27238.6,4204.9c-6,0.4-603.5,40.8-945.1,40.8c-163.5,0-451.9-26-730.9-51.2
			c-308.8-27.8-628.1-56.7-765.1-48.6c-257.6,15.1-1111,159.6-1119.6,161.1c-4.3,0.6-8.1-2.1-8.9-6.3c-0.7-4.2,2.1-8.1,6.3-8.8
			c8.6-1.5,862.9-146.1,1121.3-161.3c16.7-1,35.9-1.4,57.2-1.4c155.2,0,425.7,24.4,710.1,50c278.7,25.1,566.8,51.2,729.6,51.2
			c341.1,0,938-40.5,944-40.9c4.2-0.6,7.9,3,8.2,7.2C27246,4200.9,27242.8,4204.6,27238.6,4204.9"/>
		<path id="path64" class="st2" d="M21949.9,5680.8l291.6-644.7l690.7,138.2l445.1,399l15.4,1089.8l-1412.1-76.8L21949.9,5680.8"/>
		<path id="path66" d="M22886.7,21020.5l5.2-33.7l137.4,13v41.4l-62.2,28.6L22886.7,21020.5"/>
		<path id="path68" d="M25203.9,21071.8l-79.5,24.1l-64-79.4l26-39.8l117.5-48.4l51.8,50.1l-10.4,57.1L25203.9,21071.8"/>
		<path id="path70" class="st2" d="M21094.6,18775.6l-248.8-511.5l-1396.4,1064.5l-649.8-898.6c0,0,1479.3-2156.8,2101.5-2156.8
			c622.1,0,1161.3,829.6,1161.3,829.6l373.3,843.3l-124.4,746.6L21094.6,18775.6"/>
		<path id="path72" class="st0" d="M26058.1,20696.6c-359.4,241.9-1652.3,394.8-1652.3,394.8l-746.6-83c0,0-705.1,89.9-1313.4-117.5
			s-739.6-739.7-960.8-1189c-221.2-449.3-553.1-891.7-553.1-891.7c449.4-470.1,1140.6-511.6,1140.6-511.6
			c13.9-228.1-145.4-2155.4-145.4-2155.4l3995.7,51.2l-112.6,1168.3c-29.7,308,50,752.6,128,1052.1
			C26034.6,19169.5,26324.6,20517.2,26058.1,20696.6"/>
		<path id="path74" class="st6" d="M23072.2,22352.9c-164.9-39.7-223.5-379.8-60-464.9c163.4-85.2,382.8,26.2,382.8,26.2l10.2,265
			C23405.2,22179.2,23237.2,22392.7,23072.2,22352.9"/>
		<path id="path76" d="M23261.1,22208.8c-86.4,38.6-138.2,47.4-178.9,30.4c-32.5-13.5-56.5-43.4-75.6-94.2
			c-46.5-123.2,59-184.9,60-185.5c1-0.5,2-0.8,3.1-0.9c2.5-0.2,5.1,1.2,6.5,3.6c1.9,3.3,0.7,7.6-2.6,9.5
			c-4,2.3-96.1,56.5-53.9,168.4c17.6,46.8,39.2,74.3,67.9,86.2c36.3,15.1,86.4,6,167.7-30.4c3.6-1.5,7.7,0,9.3,3.6
			C23266.2,22203,23264.6,22207.2,23261.1,22208.8"/>
		<path id="path78" d="M23201.4,22504.3c41-246.3,106.8,462,106.8,462l180.6,191.9l-238.3-13.3
			C23155.6,23025.8,23160.4,22750.5,23201.4,22504.3"/>
		<path id="path80" class="st2" d="M23454.9,21504.3l-58.5-440c0,0,354.1-234.5,1033.8-57.9l80.1,888.6l-585-363.6L23454.9,21504.3"
			/>
		<path id="path82" class="st6" d="M23925.3,21531.4l-470.4-27.1l-20.8-156.4c112.4-10.9,561.1-31.4,804.7,301.5l-118.1,3.4
			L23925.3,21531.4"/>
		<path id="path84" class="st2" d="M24245.5,23394.8c-9.1,2.6-18.3,5-27.7,7.3c-775.7,188.7-974.8-378.6-974.8-378.6
			c-54.8-127.8-11-327.4-65.1-595.9c-54.2-268.5-201.5-831.1,314.4-975.6c516-144.5,991.4,266.6,991.4,266.6l266.7,841.5
			C24874.3,22950.9,24640.5,23284.5,24245.5,23394.8"/>
		<path id="path86" d="M24484.9,22493.4c-17-273.9-70.6-383.1-70.6-383.1l333.8,93.4l180.1,635.6l-430.9,156.4
			C24497.3,22995.7,24501.9,22767.3,24484.9,22493.4"/>
		<path id="path88" class="st2" d="M24835,22243.6c-158.8,59.8-351.9-131.3-351.9-131.3l-22.6-264.2c0,0,203.9-137.6,376.6-73.3
			C25009.9,21839,24993.7,22183.7,24835,22243.6"/>
		<path id="path90" d="M23671.7,22456.7c-4.3,2.8-10.1,1.6-12.9-2.8c-26.6-40.9-52.1-69-72.5-91.6c-32.2-35.5-55.4-61.2-58.2-106.4
			c-4.9-79.3,34.4-147,72.9-176.3c1.6-1.2,3.3-1.8,5.1-1.9c3-0.2,6.1,1.1,8,3.6c3.2,4.1,2.4,10-1.7,13.1
			c-35.9,27.3-69.9,91.1-65.6,160.4c2.4,38.6,22.7,61,53.3,94.9c20.9,23.1,47,51.9,74.4,94.1
			C23677.3,22448.1,23676.1,22453.9,23671.7,22456.7"/>
		<path id="path92" d="M24008.3,22404.2c-18,1.1-34.9-34-37.6-78.5c-2.8-44.5,9.6-81.4,27.7-82.6c18-1.1,34.9,34.1,37.6,78.6
			C24038.8,22366.1,24026.4,22403.1,24008.3,22404.2"/>
		<path id="path94" d="M23395.8,22465.7c-18,1.1-34.9-34.1-37.6-78.6c-2.8-44.4,9.6-81.4,27.6-82.5c18.1-1.2,35,34,37.7,78.5
			C23426.3,22427.6,23413.9,22464.5,23395.8,22465.7"/>
		<path id="path96" d="M24811.1,22132c-38.3,21.9-90.9,19.5-181.3-8.1c-3.7-1.2-5.8-5.1-4.7-8.8c1.2-3.7,5.1-5.8,8.8-4.7
			c85.2,26.1,136.1,28.9,170.2,9.4c27-15.4,45-45.2,56.7-93.9c28.1-116.2-70-158.7-74.2-160.5c-3.6-1.4-5.3-5.5-3.8-9.1
			c1.1-2.6,3.4-4.2,6-4.3c1.1-0.1,2.1,0.1,3.1,0.5c1.2,0.5,113.5,48.6,82.6,176.7C24861.8,22081.9,24841.6,22114.6,24811.1,22132"/>
		<path id="path98" d="M24200.7,22570.1c-17,10.9-36.7,16.7-56.1,22.3c-72.4,20.7-152.7,38.9-220.4,5.9c-14.4-7-29.4-19.2-28.6-35.2
			c0.8-15.8,16.2-26.3,30.3-33.7c71.7-37.4,150.7-60.8,231.3-68.4c14.3-1.3,29-2.1,42.5,2.7c23.3,8.2,38.9,34.2,35.2,58.6
			C24231.9,22542.2,24217.7,22559.1,24200.7,22570.1"/>
		<path id="path100" d="M23491.5,22665.5c-20.3,9.9-42.9,13.7-65.2,17.3c-50.3,8.1-129.9,23-170.2-18.9
			c-9.8-10.2-15.6-24.9-12.7-38.7c6.3-29,27.3-41.8,54.1-46.7c46.1-8.4,109.3,6.6,143.1,2c29.9-4,88.8-25.8,98.7,18
			C23539.3,22628.1,23516.9,22653.2,23491.5,22665.5"/>
		<path id="path102" d="M24041.8,22195.9c-63.6-0.3-93,31.6-93.3,31.9c-2.6,2.9-7.1,3.1-9.9,0.6c-2.9-2.6-3.2-7-0.6-9.9
			c1.2-1.4,29.3-32.5,90.2-36.2c4.4-0.3,9-0.5,13.7-0.4c3.9,0,7,3.2,7,7C24048.9,22192.8,24045.7,22195.9,24041.8,22195.9"/>
		<path id="path104" d="M23416.8,22262.2c-0.4-0.3-26.3-17.9-78.5-14.6c-3.9,0.2-7.2-2.7-7.5-6.6c-0.2-3.9,2.7-7.2,6.6-7.4
			c57.9-3.6,86.4,16.4,87.5,17.2c3.2,2.3,3.9,6.7,1.6,9.8C23424.3,22263.8,23419.9,22264.5,23416.8,22262.2"/>
		<path id="path106" d="M24414.8,21699.5c-71.5-68.9-237.6-154.9-239.2-155.7c-3.5-1.8-4.8-6-3.1-9.5c1.2-2.3,3.5-3.6,5.8-3.8
			c1.3-0.1,2.5,0.2,3.7,0.8c6.9,3.5,169.6,87.7,242.6,158.1c2.8,2.7,2.9,7.1,0.2,9.9
			C24422.1,21702.1,24417.6,21702.2,24414.8,21699.5"/>
		<path id="path108" d="M23560.7,21659.1c2.6,2.9,2.3,7.3-0.7,9.9c-2.9,2.5-7.3,2.2-9.9-0.7c-57.3-66.3,18.7-150.3,19.5-151.2
			c1.3-1.4,3-2.1,4.7-2.2c1.9-0.1,3.7,0.5,5.2,1.8c2.9,2.6,3,7.1,0.4,9.9C23577.1,21529.7,23511.7,21602.3,23560.7,21659.1"/>
		<path id="path110" class="st5" d="M23954.7,22008.2c-116.6,80.3-176.6-11.2-274.7-70c-38.9-23.4-160.8,25.9-178.9-33.7
			c-18.1-59.7,46.7-129.6,202.2-150.4C23858.8,21733.4,24071.4,21927.8,23954.7,22008.2"/>
		<path id="path112" class="st7" d="M24217.7,23773.1c-912.5,147.7-992-635.6-992-635.6s848.6-279,1015.3-310
			c166.6-31,673.5-118.4,673.5-118.4C24976.5,22813.7,25031.6,23641.3,24217.7,23773.1"/>
		<path id="path114" class="st7" d="M23326.4,23180.2c0,0-582.6-104.7-617.5-213.2c-34.8-108.5,117.6-149.8,640.8-258.3
			c523.1-108.6,1193.1,59.3,1185.8,68.4C24097.6,23327.4,23326.4,23180.2,23326.4,23180.2"/>
		<path id="path116" class="st2" d="M23230.2,21029.6c0,0-32.4-159.4,304.6-325.3c337-166,895.4,302.1,895.4,302.1l-1033.8,57.9
			L23230.2,21029.6"/>
		<path id="path118" class="st7" d="M25050.9,21150.4c-95.9,49.2-163.3,23.3-163.3,23.3c-565.1-803.6-663.6-2125.6-663.6-2125.6
			h352.5c0,813.9,534,2011.6,591.1,2021.9c57,10.4,72.6-82.9,72.6-82.9l25.9-10.4c0,0,2.6,46.7-7.8,83
			C25247.9,21095.9,25146.8,21101.1,25050.9,21150.4"/>
		<path id="path120" class="st7" d="M22788.2,21084.4c-103.9,27-212.5-84.6-212.5-84.6c-311.1-860.7-250.6-2106.7-250.6-2106.7
			l321.4-20.7c-103.7,788,238.5,2147,292.1,2168.8c53.6,21.9,77.8-25.9,77.8-25.9l27.2,3.9c0,0-1.7,33.9-19.3,66.4
			C23006.8,21118.1,22892.1,21057.5,22788.2,21084.4"/>
		<path id="path122" class="st7" d="M22183.4,18748l-224.7-2509.3h3041.6l-394,2509.3C24606.3,18748,22777.9,18630.4,22183.4,18748"
			/>
		<path id="path124" d="M24552.7,18749.7h-97.6c-9.5,0-17.8-6.5-20.1-15.8l-41.4-168.3h-61.8l-44.6,168.7
			c-2.5,9.1-10.7,15.4-20.1,15.4h-98v124.4h383.6V18749.7z M24573.4,18915.6h-425.1c-11.4,0-20.7-9.3-20.7-20.7V18729
			c0-11.5,9.3-20.8,20.7-20.8h102.9l44.6-168.6c2.5-9.1,10.7-15.4,20.1-15.4h94c9.5,0,17.9,6.5,20.1,15.8l41.4,168.2h102
			c11.5,0,20.8,9.3,20.8,20.8v165.9C24594.2,18906.3,24584.9,18915.6,24573.4,18915.6"/>
		<path id="path126" d="M22665.5,18749.7h-97.5c-9.6,0-17.9-6.5-20.2-15.8l-41.3-168.3h-61.8l-44.7,168.7
			c-2.4,9.1-10.7,15.4-20,15.4h-98.1v124.4h383.6V18749.7z M22686.3,18915.6h-425.1c-11.5,0-20.8-9.3-20.8-20.7V18729
			c0-11.5,9.3-20.8,20.8-20.8h102.8l44.7-168.6c2.4-9.1,10.6-15.4,20-15.4h94c9.6,0,17.9,6.5,20.2,15.8l41.3,168.2h102.1
			c11.4,0,20.7,9.3,20.7,20.8v165.9C22707,18906.3,22697.7,18915.6,22686.3,18915.6"/>
		<path id="path128" d="M21929.7,19073.5c-4.2-0.7-6.9-4.7-6.2-8.9c0.7-3.9,68.7-390.6,41.4-765.4c-0.3-4.2,2.9-7.9,7.1-8.2h0.5
			c4,0,7.4,3,7.7,7.1c27.4,376.8-40.9,765.3-41.6,769.2C21937.9,19071.5,21934,19074.5,21929.7,19073.5"/>
		<path id="path130" d="M21833.7,18966.6c-2.4,3.5-7.2,4.4-10.7,2s-4.4-7.1-2-10.7l145.2-214.3c1.5-2.1,3.9-3.3,6.3-3.3
			c1.5,0,3,0.4,4.4,1.3c3.5,2.4,4.4,7.2,2,10.7L21833.7,18966.6"/>
		<path id="path132" d="M24146.5,20683.4c-4.3-2.2-436.6-225.2-754.4-117.1c-4.1,1.5-8.3-0.8-9.7-4.7c-1.4-4,0.7-8.4,4.7-9.8
			c63.6-21.6,131.6-30.3,199.7-30.3c279.6,0,563.3,146.5,566.8,148.3c3.7,2,5.2,6.6,3.2,10.4
			C24154.8,20683.9,24150.2,20685.3,24146.5,20683.4"/>
		<path id="path134" d="M20849.9,18270.5c-3.5,2.3-8.3,1.3-10.6-2.3c-2.3-3.5-1.3-8.3,2.3-10.6c5.7-3.7,573.6-370.7,675.2-523.1
			c1.5-2.3,4-3.5,6.4-3.5c1.5,0,3,0.5,4.3,1.3c3.5,2.4,4.4,7.1,2.1,10.7C21426.2,17898.1,20873.4,18255.4,20849.9,18270.5"/>
		<path id="path136" class="st2" d="M18496.7,20067.7c0,0-487.7-740.1-389.7-951.9s842.3-811.7,842.3-811.7l684.8,757.3
			c0,0-168.8,517.5-291.5,637.6S18496.7,20067.7,18496.7,20067.7"/>
		<path id="path138" d="M18911.8,19611c4.1,5.9,2.7,14.1-3.3,18.3c-5.9,4.2-14.3,2.7-18.3-3.2c-3-4.2-290.6-424.2,124.6-777
			c5.1-4.3,12.4-4.1,17.2,0.1l1.4,1.4c4.7,5.5,4,13.9-1.5,18.6C18635.2,19206.3,18900.2,19594.6,18911.8,19611"/>
		<path id="path140" class="st0" d="M19441.9,20979.8c-31.2-24.6-76.5-19.2-101.1,11.9l-190.2,241.1c-24.6,31.2-19.2,76.4,12,101
			l190,149.9c-213.9,71.8-451.2-29.7-544.4-240.1c-66.1-149.2-41.4-314.4,47.9-437.7l-284.9-643.2l-307.5-694.1l-285-643.2
			c-151.3-16.7-290.2-109.4-356.3-258.6c-37.1-83.7-46.1-172.9-31-256.7l205.7,162.4c31.2,24.6,76.5,19.2,101.1-12l190.2-241
			c24.6-31.2,19.2-76.4-12-101l-190-150c213.9-71.7,451.2,29.8,544.4,240.2c66.1,149.2,41.4,314.3-47.9,437.6l285,643.3l307.4,694.1
			l285,643.2c151.3,16.7,290.2,109.3,356.3,258.6c37.1,83.7,46.1,172.8,31.1,256.7L19441.9,20979.8"/>
		<path id="path142" class="st1" d="M19030.7,20671c-25,11-54.2-0.2-65.3-25.2l-780-1760.7c-10.9-24.7-0.1-53.5,24.2-64.9l1-0.4
			c25-11.1,54.2,0.2,65.2,25.1l780.1,1760.8C19066.9,20630.7,19055.3,20660.9,19030.7,20671"/>
		<path id="path144" class="st1" d="M19157.7,20966.2c-41.2,18.3-89.4-0.3-107.7-41.5c-18.3-41.3,0.4-89.5,41.6-107.8
			c41.2-18.2,89.5,0.4,107.7,41.6C19217.6,20899.7,19199,20948,19157.7,20966.2"/>
		<path id="path146" class="st1" d="M19193.3,20932.4l-145.7-76.9c-3.1-1.6-4.2-5.4-2.6-8.4c0.6-1.2,1.6-2.1,2.8-2.7
			c1.7-0.8,3.7-0.8,5.5,0.2l145.7,76.9c3,1.5,4.2,5.3,2.6,8.3C19200.1,20932.9,19196.3,20934,19193.3,20932.4"/>
		<path id="path148" class="st1" d="M18145.6,18654.6c-41.3,18.3-89.5-0.4-107.8-41.6c-18.2-41.2,0.4-89.5,41.6-107.7
			c41.3-18.3,89.5,0.3,107.8,41.6C18205.4,18588.1,18186.8,18636.3,18145.6,18654.6"/>
		<path id="path150" class="st1" d="M18181.1,18620.7l-145.7-76.9c-3-1.5-4.2-5.3-2.6-8.3c0.6-1.3,1.7-2.2,2.8-2.7
			c1.7-0.8,3.8-0.8,5.6,0.1l145.7,76.9c3,1.6,4.2,5.3,2.5,8.3C18187.9,18621.2,18184.1,18622.3,18181.1,18620.7"/>
		<path id="path152" class="st2" d="M19276.1,20355.2c7.8,86.9-56.2,163.8-143.2,171.7c-86.9,7.8-163.7-56.3-171.7-143.2
			c-18.6-205.4,178.5-860.6,239.3-1056.5c25.9-83.4,114.4-130,197.8-104.1c21.8,6.8,41.1,17.8,57.2,32
			c45.6,39.9,66,104.2,46.9,165.8C19386.6,19793.8,19267.1,20257.1,19276.1,20355.2"/>
		<path id="path154" d="M21054.2,16737.1c-4.5,0.4-8.1-2.4-8.7-6.6c-0.8-6-22.2-147.1-180.6-180.1c-38.3-8.1-64.2-3.6-77.2,13
			c-31.7,40.6,16.1,141,16.6,142c1.8,3.8,0.2,8.4-3.6,10.3c-3.9,1.7-8.4,0.2-10.2-3.6c-2.2-4.5-52.5-110.1-14.9-158.1
			c11.9-15.2,30.7-22.8,56.3-22.8c10.8,0,22.9,1.3,36.2,4.1c169.2,35.3,192.4,191.6,192.4,191.6
			C21061.3,16732.6,21058.4,16736.5,21054.2,16737.1"/>
		<path id="path156" class="st8" d="M22470.2,18806.7c-62.9,0-114-51-114-114s51.1-114.1,114-114.1c63,0,114.1,51.1,114.1,114.1
			S22533.2,18806.7,22470.2,18806.7"/>
		<path id="path158" class="st8" d="M24364.3,18827.5c-63,0-114-51.1-114-114.1s51-114.1,114-114.1s114.1,51.1,114.1,114.1
			S24427.3,18827.5,24364.3,18827.5"/>
		<path id="path160" d="M23355.3,16578.7l-981,397.9l13.7,1328.4l2003.4,41.1l34.2-1403.8L23355.3,16578.7z M24398.9,18361.6h-0.2
			l-2018.5-41.4c-4.1-0.1-7.5-3.5-7.5-7.6l-13.8-1341.1c0-3.2,1.8-6,4.8-7.2l988.5-400.9c0.9-0.4,1.9-0.6,2.9-0.6l2.4,0.4
			l1078.4,366.4c3.2,1.1,5.3,4.1,5.2,7.4l-34.6,1417.1C24406.4,18358.3,24403,18361.6,24398.9,18361.6"/>
		<path id="path162" d="M24395.4,18254.5L24395.4,18254.5l-2027.3-36.3c-4.2-0.1-7.6-3.6-7.5-7.9c0.1-4.1,3.5-7.5,7.7-7.5h0.1
			l2027.2,36.3c4.2,0.1,7.6,3.6,7.5,7.8C24403,18251.1,24399.6,18254.5,24395.4,18254.5"/>
		<path id="path164" d="M21820.3,20420.7c-3.7-2-5.1-6.6-3.1-10.4c0.9-1.7,92.7-176.1,102.8-277.1c0.4-4,3.7-6.9,7.6-6.9h0.8
			c4.2,0.4,7.3,4.2,6.9,8.4c-10.5,104-100.8,275.5-104.6,282.8C21828.7,20421.3,21824,20422.6,21820.3,20420.7"/>
		<path id="path166" class="st7" d="M25874,16347.9l-941.4,20.4l-2251.1,122.8l-677.9,232.8c-53.7-314.6-122.8-521.8-122.8-521.8
			l-69-15.4c0,0-46.1-491.1-76.8-1036c-30.7-544.9-383.7-8830.4-383.7-8830.4s777.7-573,2517.2-122.8l-71.7,6763.5l51.2-10.2
			c0,0,654.9-4809.2,1023.2-6712.4c0,0,900.4-573,2599,388.8c0,0-1289.3,7428.6-1391.6,7919.8
			C25976.3,15038.1,25874,16347.9,25874,16347.9"/>
		<path id="path168" d="M24983.4,16376c-17.3-0.9-1739.9-87.9-3103-166.3c-4.2-0.2-7.5-3.9-7.2-8.1c0.2-4.1,3.6-7.2,7.6-7.2h0.5
			c1363,78.4,3085.6,165.4,3102.8,166.3c4.3,0.2,7.5,3.8,7.3,8C24991.2,16373,24987.1,16375.6,24983.4,16376"/>
		<path id="path170" d="M25879.1,15956.5h-0.2c-34.2-0.7-3435.8-62.5-4088.7-158.7c-4.2-0.6-7.1-4.5-6.5-8.7
			c0.6-3.9,3.9-6.6,7.6-6.6l1.1,0.1c652,96,4052.5,157.9,4086.8,158.5c4.3,0.1,7.6,3.6,7.6,7.9
			C25886.7,15953.1,25883.3,15956.5,25879.1,15956.5"/>
		<path id="path172" d="M23384.8,13925.5l-112.4,1962.4c-0.2,4.2-3.8,7.3-8.1,7.2c-4.2-0.3-7.5-3.9-7.2-8.1l112.5-1964.6
			c0,0,0.6-2.9,1.5-4.1l429.8-583.3c1.5-2,3.8-3.1,6.2-3.1c1.6,0,3.1,0.5,4.5,1.5c3.4,2.5,4.2,7.3,1.6,10.7L23384.8,13925.5"/>
		<path id="path174" d="M23637.7,15925.7c-4.3-0.2-7.4-3.9-7.1-8.2c1.6-20.8,159.2-2092.3,209.7-2967.1c0.2-4.1,3.6-7.3,7.7-7.3h0.4
			c4.3,0.2,7.5,3.9,7.2,8.1c-50.5,875-208.1,2946.7-209.7,2967.5C23645.6,15922.9,23642.2,15926.5,23637.7,15925.7"/>
		<path id="path176" d="M25540.1,15941c-4.2-0.7-7-4.7-6.2-8.9l1672.9-9362.5c0.7-3.7,3.9-6.3,7.6-6.3l1.3,0.1c4.2,0.7,7,4.8,6.2,9
			L25549,15934.8C25548.3,15939,25544.2,15941.8,25540.1,15941"/>
		<path id="path178" d="M27383.3,6980.9c-2.2-1.9-226.9-195.7-649.5-357c-389.9-148.9-1033.1-299.8-1881.9-173.2
			c-4.3,0.8-8.1-2.3-8.7-6.5c-0.7-4.2,2.2-8.1,6.4-8.7c223.9-33.4,433.6-47.5,628.2-47.5c546.3,0,973.4,111.4,1262.3,221.8
			c424.8,162.4,651.1,357.6,653.3,359.6c3.2,2.7,3.5,7.6,0.7,10.8C27391.3,6983.4,27386.4,6983.8,27383.3,6980.9"/>
		<path id="path180" d="M23797.2,12968.6c-3.9,0.4-7.8-3-8-7.3l-317.3-6743c-0.1-4.2,3.1-7.8,7.4-8h0.3c4.1,0,7.5,3.2,7.7,7.3
			l317.2,6743C23804.7,12964.9,23801.4,12968.5,23797.2,12968.6"/>
		<path id="path182" d="M23794.4,6511.8c-11.7-4-1188.1-383.7-2358.9-10.3c-4,1.2-8.3-0.9-9.6-4.9c-1.3-4,0.9-8.4,5-9.7
			c386.8-123.4,774.2-164.9,1120.4-164.9c705.8,0,1240,172.6,1247.9,175.2c4.1,1.3,6.2,5.7,4.9,9.7
			C23802.8,6510.9,23798.2,6512.9,23794.4,6511.8"/>
		<path id="path184" d="M22180.6,15833.7h-0.5c-4,0-7.4-3.2-7.6-7.3c-0.5-9.8-58.2-983.5-458-1353.1c-3.1-2.9-3.3-7.7-0.4-10.8
			c1.4-1.6,3.5-2.5,5.6-2.5c1.8,0,3.7,0.7,5.2,2.1c404.3,373.8,462.4,1353.6,462.9,1363.5
			C22188,15829.8,22184.8,15833.4,22180.6,15833.7"/>
		<path id="path186" class="st3" d="M23408,5711.5c-115.1,53.7-191.8-46.1-322.3-153.5c-130.5-107.5-391.4-161.2-521.8-61.4
			c-130.5,99.8,30.6,199.5-61.4,245.6c-92.1,46-591,253.2-744.4,230.2c-153.5-23-230.3-299.3-345.4-422.1
			c-115.1-122.8-698.3-598.6-867.2-767.4c0,0-606.2-15.4-721.3-191.9c-115.1-176.5-138.2-675.3-115.1-690.6
			c23-15.4,3568.4,0,3568.4,0s153.5,721.3,115.2,1366C23374.7,5567.6,23523.1,5657.7,23408,5711.5"/>
		<path id="path188" class="st4" d="M22501.2,5742.2c-92.1,46-590.9,253.2-744.4,230.2s-230.2-299.3-345.4-422.1
			c-115.1-122.8-698.3-598.6-867.1-767.4c0,0-9.9-0.3-27.3-1.1c227.1-42,823.1-149.4,909.8-137c107.4,15.3,544.9,445.1,675.3,606.2
			c99.2,122.5,304.5,218.5,407.6,331.6C22505,5650,22566.4,5709.6,22501.2,5742.2"/>
		<path id="path190" class="st4" d="M23408,5711.5c-115.1,53.7-191.9-46.1-322.3-153.5c-19.9-16.4-43-31.3-67.9-44.8
			c50.5-17.6,119.6-57.3,160-147.1c62.7-139.3,31.3-555.4,214.2-562.4c8,151.4,9.8,309.2,0.6,462.7
			C23374.7,5567.6,23523.1,5657.7,23408,5711.5"/>
		<path id="path192" class="st4" d="M22159.4,4222.7c-532.1-51.2-1330.2-102.3-1760-40.9c-262.3,37.4-512.7,86.2-668.3,118.7
			c-33.1-191.1-36.8-390.5-22.4-400.1c23.1-15.4,3568.5,0,3568.5,0s24.7,116.2,51.8,296.8
			C22971.9,4236.2,22668.7,4271.7,22159.4,4222.7"/>
		<path id="path194" d="M21585.3,4616.2c-400.5,101.3-1068.8,180.1-1075.5,180.8c-8.2,0.9-16-4.9-17-13.4c-1-8.4,5-16.1,13.5-17
			c6.7-0.8,672.9-79.3,1071.5-180.2c1.3-0.3,2.5-0.5,3.7-0.5c6.9,0,13.2,4.7,14.9,11.6
			C21598.5,4605.7,21593.5,4614.1,21585.3,4616.2"/>
		<path id="path196" d="M21824.6,4982.4c-44.5,0-80.6-36.1-80.6-80.6s36.1-80.5,80.6-80.5s80.5,36,80.5,80.5
			S21869.1,4982.4,21824.6,4982.4"/>
		<path id="path198" d="M21627.6,4780.3c-44.5,0-80.6-36-80.6-80.5s36.1-80.6,80.6-80.6s80.6,36.1,80.6,80.6
			S21672.1,4780.3,21627.6,4780.3"/>
		<path id="path200" class="st5" d="M21833.1,4968.7c-18.4,8.8-454.3,214.9-879.3,261.5c-33.3,3.6-64-20.6-67.7-54.3
			c-3.7-33.7,20.6-64,54.4-67.8c403.8-44.3,835.4-248.1,839.7-250.1c8.6-4.1,17.5-6,26.4-6c23,0,45,12.8,55.5,35
			C21876.6,4917.6,21863.7,4954.2,21833.1,4968.7"/>
		<path id="path202" class="st5" d="M21638.7,4753.9c-18.4,8.7-454.3,214.8-879.3,261.4c-33.2,3.4-64-20.6-67.7-54.3
			c-3.7-33.7,20.6-64,54.4-67.7c403.8-44.3,835.4-248.2,839.7-250.2c8.6-4.1,17.5-6,26.4-6c22.9,0,45,12.9,55.5,35
			C21682.2,4702.7,21669.3,4739.3,21638.7,4753.9"/>
		<path id="path204" d="M22286.3,5427.5c-44.5,0-80.6-36.1-80.6-80.6s36.1-80.5,80.6-80.5s80.6,36,80.6,80.5
			S22330.8,5427.5,22286.3,5427.5"/>
		<path id="path206" d="M22029.2,5197.3c-44.5,0-80.6-36.1-80.6-80.6s36.1-80.6,80.6-80.6s80.6,36.1,80.6,80.6
			S22073.7,5197.3,22029.2,5197.3"/>
		<path id="path208" class="st5" d="M22042.8,5183.6c-18.3,8.8-454.2,214.8-879.2,261.5c-33.3,3.3-64-20.6-67.7-54.3
			s20.6-64.1,54.3-67.8c403.9-44.3,835.5-248.1,839.8-250.2c8.5-4,17.5-6,26.4-6c22.9,0,44.9,12.9,55.5,35
			C22086.4,5132.4,22073.4,5169.1,22042.8,5183.6"/>
		<path id="path210" class="st5" d="M22298.6,5413.9c-18.3,8.7-454.2,214.8-879.2,261.4c-32.9,3.7-64-20.6-67.7-54.3
			c-3.7-33.7,20.6-64,54.3-67.8c403.9-44.3,835.5-248.1,839.8-250.1c8.5-4.1,17.5-6,26.4-6c22.9,0,44.9,12.8,55.5,35
			C22342.2,5362.7,22329.2,5399.3,22298.6,5413.9"/>
		<path id="path212" class="st5" d="M21808.2,5054c-35.6-27.6-91.5-34-133.3-15.2c-42.7,19.2-74.5,63.9-79.2,111.3
			c-5.6,56.8,22.9,115.5,53.1,177.8c15.1,31.1,30.7,63.2,43,97c14.7,40.3,24.3,82.7,28.6,125.5c21.9-27,39.7-60.3,56-90.8
			c38.5-72.1,78.3-146.6,89.2-224.1C21876.2,5160.5,21853.7,5089.3,21808.2,5054L21808.2,5054z M21141.7,5485.9l-19.4-12
			c-65.1-40-127.6-75.8-190-69.9c-35.7,3.3-79,39.4-78.5,65.5c0.2,11.2,8.8,27,25.7,47.1c66.7,79.1,156.3,127.4,246,132.4
			c97.2,5.3,195.3-1.1,293.4-10.6C21322.1,5596.9,21231.1,5540.8,21141.7,5485.9z M21884.8,5517.4c-29,54.2-65,121.6-127.5,166.2
			c-69.9,50-155,59.1-223.4,66.4c-135,14.5-275.7,29.3-415.2,21.5c-123.3-6.8-244.7-70.9-333.1-175.9c-23-27.2-53.6-69.8-54.6-124
			c-1.7-101.3,98.7-181.4,189.9-189.9c98.3-8.4,186,38.6,265.7,87.6l19.5,12c125.8,77.4,255.2,157.1,392.8,187.5
			c-3-34.8-10.6-69.2-22.5-101.8c-10.1-27.9-23.7-55.9-38.1-85.5c-34.6-71.4-73.7-152.2-64.8-243.4c9-91.1,68.2-174,151-211.3
			c31.8-14.3,67.6-21.9,103.6-21.9c56.9,0,112.1,18.5,155.4,52.1c80.9,62.8,120.6,176.1,103.7,295.7
			C21973.3,5351.7,21926.2,5439.8,21884.8,5517.4"/>
		<path id="path214" d="M23066.5,4564.2c-38.1,0-69.1-30.9-69.1-69.1c0-38.1,31-69.1,69.1-69.1c38.2,0,69.1,31,69.1,69.1
			C23135.6,4533.3,23104.7,4564.2,23066.5,4564.2"/>
		<path id="path216" class="st4" d="M23066.5,4449.1c-25.4,0-46,20.6-46,46s20.6,46.1,46,46.1s46.1-20.7,46.1-46.1
			S23091.9,4449.1,23066.5,4449.1z M23066.5,4587.2c-50.8,0-92.1-41.3-92.1-92.1c0-50.8,41.3-92.1,92.1-92.1
			c50.8,0,92.1,41.3,92.1,92.1C23158.6,4545.9,23117.3,4587.2,23066.5,4587.2"/>
		<path id="path218" d="M22748,4564.2c-38.1,0-69-30.9-69-69.1c0-38.1,30.9-69.1,69-69.1c38.2,0,69.1,31,69.1,69.1
			C22817.1,4533.3,22786.2,4564.2,22748,4564.2"/>
		<path id="path220" class="st4" d="M22748,4449.1c-25.4,0-46,20.6-46,46s20.6,46.1,46,46.1s46.1-20.7,46.1-46.1
			S22773.4,4449.1,22748,4449.1z M22748,4587.2c-50.8,0-92.1-41.3-92.1-92.1c0-50.8,41.3-92.1,92.1-92.1c50.8,0,92.1,41.3,92.1,92.1
			C22840.1,4545.9,22798.8,4587.2,22748,4587.2"/>
		<path id="path222" d="M23193.1,5294.5c-44.9,0-90.7,1.2-135.1,2.5c-247.3,6.8-480.6,13.4-638.2-179.3c-28.7-35-60.8-76-94.7-119.3
			c-186.2-237.8-441-563.4-636.1-563.4c-243.7,0-385.1-12.6-457.6-271.6c-1.2-4.2,1.2-8.4,5.3-9.5l2.1-0.3c3.3,0,6.4,2.2,7.4,5.6
			c69.5,248.3,206.5,260.4,442.8,260.4c202.5,0,460.1,329.1,648.2,569.3c33.9,43.3,65.9,84.2,94.4,119.1
			c152.9,186.8,382.6,180.4,626,173.7c44.5-1.3,90.4-2.6,135.5-2.6c4.2,0,7.7,3.5,7.7,7.7
			C23200.8,5291.1,23197.3,5294.5,23193.1,5294.5"/>
		<path id="path224" d="M21396.5,4399.1c-1419.5-165.9-1540.8,220.7-1541.9,224.6c-1.1,4.1-5.2,6.4-9.4,5.5
			c-4.1-1.2-6.5-5.4-5.4-9.4c3.6-13.7,86.4-277.9,913.1-277.9c178.3,0,391.1,12.3,645.4,42c4.2,0.5,7.2,4.3,6.7,8.5
			S21400.5,4399.8,21396.5,4399.1"/>
		<path id="path226" d="M23248.3,5066.7c-4.7,0.9-474.4,90.5-704.8-109.2c-229.6-198.9-323.9-705.3-324.9-710.4
			c-0.7-4.2,2-8.2,6.2-9l1.4-0.1c3.6,0,6.8,2.6,7.5,6.3c0.9,5.1,94.3,506.2,319.8,701.6c224.7,194.9,687.2,106.7,691.9,105.7
			c4.1-0.6,8.2,1.9,9,6.1S23252.5,5065.9,23248.3,5066.7"/>
		<path id="path228" d="M23340.1,4204.9c-6,0.4-603.4,40.8-945.1,40.8c-163.5,0-451.9-26-730.9-51.2
			c-308.8-27.8-628-56.7-765.1-48.6c-257.5,15.1-1111,159.6-1119.6,161.1c-4.4,0.6-8.1-2.1-8.8-6.3c-0.8-4.2,2.1-8.1,6.2-8.8
			c8.6-1.5,863-146.1,1121.3-161.3c16.7-1,35.9-1.4,57.2-1.4c155.2,0,425.7,24.4,710.2,50c278.6,25.1,566.7,51.2,729.5,51.2
			c341.1,0,938.1-40.5,944.1-40.9c3.7-0.6,7.8,3,8.1,7.2C23347.5,4200.9,23344.3,4204.6,23340.1,4204.9"/>
		<path id="path230" class="st2" d="M27163.2,19990.5l-1002.7-1207.4l910.6-1023.2l-1524.6-1565.5l767.4-624.2
			c1985.1,920.9,2384.2,1616.7,2425.1,2066.9S28084.1,19376.6,27163.2,19990.5"/>
		<path id="path232" class="st0" d="M25567,19898.4c0,0-153.5-1330.1-163.7-1371.1c-10.2-40.9,296.7-767.4,296.7-767.4
			s255.8,849.3,317.2,839.1c61.4-10.3,460.5-368.4,460.5-368.4c378.6,173.9,1248.3,1463.2,1248.3,1463.2
			c-634.4,378.6-849.3,787.9-1821.3,1084.6L25567,19898.4"/>
		<path id="path234" class="st2" d="M25034.5,15980.8c-111.2-130.9-106.8-617.4-106.8-617.4s571-686.8,775.4-574.2
			c204.4,112.7,750.6,897.3,750.6,897.3l-803.6,629.8C25650.1,16316.3,25145.7,16111.6,25034.5,15980.8"/>
		<path id="path236" class="st2" d="M25469.4,16124.6c-43,42.7-108.6,58.5-168.7,35.1c-363.9-141.7-817.6-293.4-916.1-291.4
			c-87.2,1.7-159.4-67.6-161.2-154.8c-1.7-87.3,67.6-159.5,154.9-161.3c206.2-4.1,642,130.3,833.1,204.7
			c81.4,31.8,325.6,231.5,293.9,312.9C25497,16091,25484.7,16109.5,25469.4,16124.6"/>
		<path id="path238" class="st2" d="M25652.6,15278.8c-44.7,8.6-88.4-2.9-122.5-27.7c-3.4,4-6.7,8.1-10.4,11.9
			c-16,15.8-35.7,28.5-58.3,36.6c-29.3,10.3-59.6,11.2-87.8,4.8c22,59.1,6.8,124.4-36.4,167.2c-12.4,12.4-27.3,22.9-44.1,30.9
			c-36.7,17.2-76.5,18.5-112.5,7.7c5.4,9.7,9.5,17.2,10.6,19.2c34.7,63.3,21.6,139.9-27.2,188.2c-10.3,10.2-22.1,19.1-35.4,26.4
			c-76.6,42-172.6,14-214.6-62.6c-1.3-2.5-63-114.8-145.9-260.7c55.1-217.6,256.6-596.5,919.4-769.5
			c47.2,218.5,87.6,427.7,90.4,442.5c10.4,53.8-7.8,106.4-44,142.2C25712.4,15257.2,25684.6,15272.6,25652.6,15278.8"/>
		<path id="path240" d="M25772.9,14651.8c-9.8,1.5-974.9,164.4-1052.6,949.9c-0.5,4.2-4.1,7.7-8.4,6.9c-4.3-0.5-7.3-4.2-6.9-8.4
			c78.9-797.4,1055.6-962,1065.5-963.6l1.1-0.1c3.8,0,7,2.7,7.6,6.5C25779.9,14647.2,25777,14651.1,25772.9,14651.8"/>
		<path id="path242" d="M25012.4,15519c-4.2,0.6-7.9-2.9-8.1-7.1l-10.3-148.3c-0.3-4.3,2.9-8,7.1-8.2l0.6-0.1c4,0,7.4,3.1,7.6,7.2
			l10.3,148.3C25019.8,15515.1,25016.7,15518.7,25012.4,15519"/>
		<path id="path244" d="M25089.6,15460.1l-158.6-33.3c-4.1-0.9-6.8-4.9-5.9-9.1c0.8-3.6,3.9-6.1,7.5-6.1l1.6,0.2l158.6,33.2
			c4.1,0.9,6.8,5,5.9,9.1S25093.9,15460.8,25089.6,15460.1"/>
		<path id="path246" d="M25245.2,15319.5c-4.7,0.1-7.9-2.9-8.2-7.1l-10.2-148.4c-0.3-4.2,2.9-7.9,7.1-8.2h0.6c4,0,7.3,3.1,7.6,7.1
			l10.2,148.4C25252.6,15315.5,25249.4,15319.2,25245.2,15319.5"/>
		<path id="path248" d="M25322.4,15260.5l-158.6-33.2c-4.1-0.9-6.8-5-5.9-9.1c0.7-3.6,3.9-6.1,7.5-6.1l1.6,0.1l158.6,33.3
			c4.1,0.8,6.8,4.9,5.9,9.1C25330.6,15258.7,25326.8,15261.2,25322.4,15260.5"/>
		<path id="path250" d="M25559.9,15081.6c-4.7,0.1-8-2.9-8.2-7.1l-10.3-148.4c-0.2-4.2,2.9-7.9,7.2-8.2h0.5c4,0,7.4,3.1,7.6,7.2
			l10.3,148.3C25567.3,15077.6,25564.1,15081.3,25559.9,15081.6"/>
		<path id="path252" d="M25637.1,15022.6l-158.7-33.2c-4.1-0.9-6.8-5-5.9-9.1c0.8-3.6,4-6.1,7.5-6.1l1.6,0.1l158.6,33.3
			c4.2,0.8,6.8,4.9,6,9.1C25645.3,15020.8,25641.4,15023.3,25637.1,15022.6"/>
		<path id="path254" d="M24481.1,15874c-3.1-2.9-3.4-7.7-0.6-10.9c0.3-0.3,28.6-32.6,23.2-63.9c-2.7-15.7-13.7-28.9-32.7-39.4
			c-71.6-39.5-178.7,37.1-179.8,37.9c-3.4,2.5-8.2,1.7-10.7-1.7s-1.7-8.2,1.7-10.7c3.7-2.7,73-52.2,141.3-52.2
			c18.9,0,37.6,3.8,54.9,13.3c23.4,12.8,37,29.8,40.5,50.3c6.6,38.6-25.6,75.1-26.9,76.6
			C24489.1,15876.4,24484.2,15876.7,24481.1,15874"/>
		<path id="path256" d="M24406.1,22793.1c-4.4-1.3-448.6-112-923.6-18.9l-70.4,13.8c-399.2,78.1-564.5,110.5-556.8,156.3
			c5.9,35.5,237.9,117,400.8,163.5c4.5,1.3,7.1,6,5.8,10.5c-1.3,4.6-5.9,7.5-10.5,5.9c-67.3-19.3-403.2-118-413-177.2
			c-10.3-62.1,124.3-88.4,570.5-175.7l70.3-13.8c141.4-27.8,280.1-37.5,405.5-37.5c299.2,0,522.5,55.8,525.7,56.5
			c4.5,1.2,7.3,5.9,6.1,10.4C24415.3,22791.4,24411,22794,24406.1,22793.1"/>
		<path id="path258" d="M24317.4,23756.4c-3.5-3.1-3.8-8.5-0.7-12c331.1-374.8,206.9-827.9,189.5-884.7
			c-371.5,12.2-1194.2,275.9-1202.5,278.6c-4.6,1.3-9.3-1-10.7-5.5c-1.5-4.5,1-9.3,5.5-10.7c8.3-2.7,842.9-270.2,1213.6-279.6
			l6.2-0.1l2.1,5.8c1.7,5,167.8,501.5-190.9,907.5C24326.4,23759.3,24321.1,23759.6,24317.4,23756.4"/>
		<path id="path260" class="st9" d="M24335.9,23792.8c-32.4,8-62.2-0.2-66.7-18.3c-4.4-18.1,18.2-39.2,50.5-47.2
			c32.4-7.9,62.2,0.2,66.7,18.3C24390.8,23763.7,24368.2,23784.8,24335.9,23792.8"/>
		<path id="path262" class="st5" d="M23497.4,23172.8c95.8-46.2,415.2-120.7,415.2-120.7l24.8,92.3l-418.7,117.1L23497.4,23172.8"/>
		<path id="path264" d="M25634.6,18828.7c-5.8,1.6-12-1.8-13.8-7.5c-1.8-5.9,1.6-11.9,7.4-13.8c119.6-35.8,380.1-215.8,382.7-217.5
			c1.9-1.3,4.1-2,6.3-2c3.5,0,6.9,1.7,9.1,4.7c3.5,5,2.2,11.9-2.9,15.4C26012.7,18615.5,25757.5,18791.7,25634.6,18828.7"/>
		<path id="path266" d="M25588.4,20851.5c-4.6-3.2-458.6-318.3-385.2-1004.1c0.7-5.7,5.4-9.9,11.1-9.9l1.1,0.1
			c6.1,0.6,10.5,6.1,9.8,12.1c-72,672.1,371.1,980.4,375.6,983.4c5,3.4,6.4,10.3,2.9,15.4
			C25600.4,20853.5,25593.4,20854.7,25588.4,20851.5"/>
		<path id="path268" class="st2" d="M18658.3,20040.4l-481.5,178c-85.9,31.8-181.2-12.1-213-97.9c-23.4-63.6-5.5-132.3,40.2-176.6
			c7-6.9,15-12.9,23.4-18.4c-72.2,5.7-142.4-35.8-168.7-107c-22.1-59.8-6.6-123.5,33.3-167.8c-55-10.6-103.4-48.3-124.3-104.7
			c-23.5-63.6-5.5-132.3,40.2-176.6c6.5-6.4,14-11.8,21.6-17.1c-53.3-6.7-101.2-41.4-121.1-95.2c-21-57-4.9-118.6,36-158.3
			c14.4-14,31.9-25.2,51.9-32.6l431.6-159.7c77-28.4,162.4,10.9,190.9,87.8c20,54.1,6.1,112-30.4,151.8
			c73.2-7.3,145,34.6,171.7,106.8c22.1,59.7,7,123.6-32.8,167.9c54.8,10.8,103,48.4,123.8,104.6c27.1,73.4-1.2,153.4-63.7,195
			c72.2-5.8,142.5,35.8,168.8,107C18788,19913.3,18744.2,20008.5,18658.3,20040.4"/>
		<path id="path270" d="M18589.6,19726.4l-560,205c-3.3,1.3-7-0.5-8.3-3.7c-1.2-3.4,0.5-7,3.8-8.2l560.1-205.1l1.9-0.4
			c2.7-0.1,5.3,1.5,6.3,4.2C18594.6,19721.5,18593,19725.2,18589.6,19726.4"/>
		<path id="path272" d="M18529.8,19426.7l-338.4,139.3c-3.2,1.4-6.9-0.2-8.3-3.5c-1.3-3.3,0.2-7,3.5-8.4l338.3-139.3l2.1-0.4
			c2.6-0.2,5.2,1.4,6.2,3.9C18534.6,19421.6,18533,19425.3,18529.8,19426.7"/>
		<path id="path274" d="M18252,19199.3l-381.8,162.2c-3.2,1.5-7-0.1-8.4-3.4c-1.3-3.2,0.2-7,3.4-8.4l381.8-162.1l2.2-0.5
			c2.6-0.1,5.1,1.3,6.2,3.9C18256.8,19194.2,18255.3,19198,18252,19199.3"/>
		<path id="path276" d="M18391.2,19151.8l-52.5,25.3c-3.3,1.6-7.1,0.2-8.6-2.9c-1.5-3.2-0.2-7,3-8.6l52.5-25.3l2.4-0.6
			c2.5-0.2,5,1.2,6.1,3.6C18395.7,19146.4,18394.3,19150.3,18391.2,19151.8"/>
		<path id="path278" d="M18691.5,19892.3c-3.6,1-7.2-1-8.3-4.5c-18.6-63.3-70.5-93.6-83.1-100.1l-113.9,59.1
			c-22.6,92.3,49.1,160,65.2,173.8l99.9-49.9c3.3-1.7,7.2-0.4,8.9,2.9c1.6,3.3,0.2,7.3-3,8.9l-103.7,51.8c-2.3,1.2-5,0.9-7-0.6
			c-1-0.8-102.4-79.9-72.5-193.2c0.4-1.1,1-2.2,1.8-3l1.6-1.1l119.6-62c1.7-1,3.8-1,5.7-0.2c2.8,1.2,70.4,31.9,93.3,109.9
			C18696.9,19887.6,18694.8,19891.3,18691.5,19892.3"/>
		<path id="path280" d="M18617,19596.2c-3.6,0.8-7.1-1.5-7.9-5.1c-13.7-64.6-63.2-98.7-75.2-106.2l-118.1,50.2
			c-29.6,90.4,36.8,163.3,51.8,178.3l103.4-42.1c3.4-1.4,7.2,0.2,8.6,3.6s-0.3,7.3-3.6,8.6l-107.4,43.8c-2.4,1-5,0.5-6.9-1.2
			c-1-0.9-96-87.4-57.5-198.1c0.4-1.1,1-2.2,2-2.9l1.6-1l124-52.7c1.8-0.8,3.9-0.7,5.7,0.3c2.7,1.4,67.7,37.1,84.6,116.6
			C18622.8,19591.9,18620.4,19595.4,18617,19596.2"/>
		<path id="path282" d="M18500.2,19314.1c-3.6,0.8-7.1-1.5-7.8-5c-13.8-64.6-63.3-98.7-75.3-106.2l-118.1,50.2
			c-29.6,90.4,36.8,163.3,51.8,178.3l103.4-42.2c3.4-1.4,7.2,0.3,8.6,3.7c1.4,3.3-0.3,7.3-3.6,8.6l-107.4,43.7c-2.3,1-5,0.6-6.9-1.1
			c-1-0.9-96-87.4-57.5-198.2c0.4-1.1,1.1-2.1,2-2.9l1.6-0.9l124-52.7c1.8-0.8,3.9-0.7,5.7,0.2c2.8,1.5,67.7,37.2,84.6,116.7
			C18506,19309.9,18503.6,19313.4,18500.2,19314.1"/>
		<path id="path284" d="M18349.2,19043.8c-3.4,0.8-6.7-1.4-7.4-4.8c-13-61.1-59.9-93.5-71.3-100.5l-111.9,47.5
			c-28,85.6,34.9,154.7,49.1,168.9l97.9-39.9c3.2-1.4,6.9,0.2,8.2,3.4c1.3,3.2-0.3,6.9-3.4,8.2l-101.8,41.4
			c-2.2,0.9-4.7,0.5-6.5-1.1c-0.9-0.8-90.9-82.8-54.5-187.7c0.4-1,1.1-2,1.9-2.7l1.6-1l117.4-49.8c1.7-0.8,3.7-0.7,5.4,0.2
			c2.6,1.4,64.2,35.2,80.2,110.5C18354.7,19039.8,18352.5,19043.1,18349.2,19043.8"/>
		<path id="path286" class="st10" d="M14084.3,9096.3h20563.8v747.1H14084.3V9096.3"/>
		<path id="path288" class="st11" d="M13608,10190.5h-556.4V8749.3h556.4c16.2,0,29.3,13.1,29.3,29.3v1382.6
			C13637.3,10177.4,13624.2,10190.5,13608,10190.5"/>
		<path id="path290" class="st11" d="M13898.9,10071.9h-415.8V8868h415.8c17.3,0,31.2,13.9,31.2,31.2v1141.5
			C13930.1,10057.9,13916.2,10071.9,13898.9,10071.9"/>
		<path id="path292" class="st11" d="M14262.3,9992.1h-401.5V8947.8h401.5c25.1,0,45.5,20.3,45.5,45.4v953.4
			C14307.8,9971.7,14287.4,9992.1,14262.3,9992.1"/>
		<path id="path294" class="st11" d="M14157.5,9113.5h447v712.9h-447V9113.5"/>
		<path id="path296" class="st12" d="M13305.9,16718.9h2651.2l298,4578h-2651.2L13305.9,16718.9"/>
		<path id="path298" class="st11" d="M16820.3,21548.7h-3719.9c-102.2,0-185-82.9-185-185s82.8-185,185-185h3719.9
			c102.1,0,184.9,82.9,184.9,185S16922.4,21548.7,16820.3,21548.7"/>
		<path id="path300" class="st11" d="M16851.1,20901.3h-3719.9c-102.2,0-184.9-82.9-184.9-185s82.7-185,184.9-185h3719.9
			c102.2,0,185,82.9,185,185S16953.3,20901.3,16851.1,20901.3"/>
		<path id="path302" class="st11" d="M16804.8,20192.2H13085c-102.2,0-185-82.8-185-184.9s82.8-185,185-185h3719.8
			c102.2,0,185,82.9,185,185S16907,20192.2,16804.8,20192.2"/>
		<path id="path304" class="st11" d="M16727.8,19560.3h-3719.9c-102.2,0-185-82.9-185-185s82.8-185,185-185h3719.9
			c102.2,0,184.9,82.9,184.9,185S16830,19560.3,16727.8,19560.3"/>
		<path id="path306" class="st11" d="M16589.1,18835.8h-3719.9c-102.2,0-185-82.8-185-185c0-102.1,82.8-184.9,185-184.9h3719.9
			c102.1,0,184.9,82.8,184.9,184.9C16774,18753,16691.2,18835.8,16589.1,18835.8"/>
		<path id="path308" class="st11" d="M16465.7,18065.1h-3719.8c-102.2,0-185-82.8-185-185c0-102.1,82.8-184.9,185-184.9h3719.8
			c102.2,0,185,82.8,185,184.9C16650.7,17982.3,16567.9,18065.1,16465.7,18065.1"/>
		<path id="path310" class="st11" d="M16419.5,17448.6h-3719.9c-102.2,0-185-82.9-185-185s82.8-185,185-185h3719.9
			c102.2,0,185,82.9,185,185S16521.7,17448.6,16419.5,17448.6"/>
		<path id="path312" class="st11" d="M16311.6,16847.4h-3719.9c-102.1,0-184.9-82.8-184.9-185c0-102.1,82.8-184.9,184.9-184.9
			h3719.9c102.2,0,185,82.8,185,184.9C16496.6,16764.6,16413.8,16847.4,16311.6,16847.4"/>
		<path id="path314" class="st12" d="M14541.6,15341.9h1007v698.8h-1007V15341.9"/>
		<path id="path316" class="st12" d="M14130.5,16077.9c0-40.4,32.8-73.2,73.2-73.2h1682.8c40.4,0,73.1,32.8,73.1,73.2v404.7h-1829.1
			V16077.9"/>
		<path id="path318" class="st12" d="M15661.4,15372.8h-1232.6c-25.7,0-46.5-20.8-46.5-46.5v-436.5h1325.6v436.5
			C15707.9,15352,15687.1,15372.8,15661.4,15372.8"/>
		<path id="path320" class="st12" d="M14382.3,14045.2c0-41.5,33.6-75.1,75.1-75.1h1175.4c41.5,0,75.1,33.6,75.1,75.1v582.6h-1325.6
			V14045.2"/>
		<path id="path322" class="st10" d="M14662.3,13338.1h765.6v657.7h-765.6V13338.1"/>
		<path id="path324" class="st10" d="M15849.2,14915.5H14241c-102.2,0-184.9-82.9-184.9-185s82.7-184.9,184.9-184.9h1608.2
			c102.2,0,185,82.8,185,184.9C16034.2,14832.6,15951.4,14915.5,15849.2,14915.5"/>
		<path id="path326" class="st11" d="M15546,16020.1h-996.7c-8.5,0-15.4-6.9-15.4-15.4c0-8.6,6.9-15.4,15.4-15.4h996.7
			c8.5,0,15.4,6.8,15.4,15.4C15561.4,16013.2,15554.5,16020.1,15546,16020.1"/>
		<path id="path328" class="st11" d="M15530.6,15393.3h-976.2c-8.5,0-15.4-6.8-15.4-15.4c0-8.5,6.9-15.4,15.4-15.4h976.2
			c8.5,0,15.4,6.9,15.4,15.4C15546,15386.5,15539.1,15393.3,15530.6,15393.3"/>
		<path id="path330" class="st11" d="M15695,14925.7h-1310.1c-8.5,0-15.5-6.8-15.5-15.4c0-8.5,7-15.4,15.5-15.4H15695
			c8.5,0,15.5,6.9,15.5,15.4C15710.5,14918.9,15703.5,14925.7,15695,14925.7"/>
		<path id="path332" class="st11" d="M15689.9,14555.8h-1310.2c-8.4,0-15.4-6.9-15.4-15.4c0-8.6,7-15.4,15.4-15.4h1310.2
			c8.5,0,15.4,6.8,15.4,15.4C15705.3,14548.9,15698.4,14555.8,15689.9,14555.8"/>
		<path id="path334" class="st11" d="M15427.9,13985.5H14652c-8.5,0-15.4-6.9-15.4-15.4c0-8.6,6.9-15.5,15.4-15.5h775.9
			c8.5,0,15.4,6.9,15.4,15.5C15443.3,13978.6,15436.4,13985.5,15427.9,13985.5"/>
		<path id="path336" class="st10" d="M11918.6,8575.9h1425.8v1788h-1425.8V8575.9"/>
		<path id="path338" class="st11" d="M13633.4,10087.1c-8.5,0-15.4-6.9-15.4-15.4V8880.9c0-8.5,6.9-15.4,15.4-15.4
			s15.4,6.9,15.4,15.4v1190.8C13648.8,10080.2,13641.9,10087.1,13633.4,10087.1"/>
		<path id="path340" class="st11" d="M13930.1,10003.6c-8.4,0-15.4-6.8-15.4-15.4V8960.5c0-8.5,7-15.4,15.4-15.4
			c8.5,0,15.5,6.9,15.5,15.4v1027.7C13945.6,9996.8,13938.6,10003.6,13930.1,10003.6"/>
		<path id="path342" class="st11" d="M14310.4,9836.6c-8.5,0-15.4-6.9-15.4-15.4v-693.6c0-8.6,6.9-15.5,15.4-15.5
			s15.4,6.9,15.4,15.5v693.6C14325.8,9829.7,14318.9,9836.6,14310.4,9836.6"/>
		<path id="path344" class="st13" d="M12697,12063.9v-2104l778.4,778.4h2188.8v2620.4h-1479.7L12697,12063.9"/>
		<path id="path346" class="st10" d="M15290.1,13126c0-24.1,7.4-46.4,19.9-65l161.3,161.3c-18.6,12.5-40.9,19.9-65,19.9
			C15342.1,13242.2,15290.1,13190.2,15290.1,13126"/>
		<path id="path348" class="st10" d="M15334.7,13035.2c19.8-15.6,44.4-25.3,71.6-25.3c64.1,0,116.1,52,116.1,116.1
			c0,27.2-9.7,51.8-25.3,71.6L15334.7,13035.2"/>
		<path id="path350" class="st10" d="M14218.9,13126c0-24.1,7.3-46.4,19.9-65l161.2,161.3c-18.5,12.5-40.9,19.9-65,19.9
			C14270.9,13242.2,14218.9,13190.2,14218.9,13126"/>
		<path id="path352" class="st10" d="M14263.5,13035.2c19.7-15.6,44.4-25.3,71.5-25.3c64.1,0,116.1,52,116.1,116.1
			c0,27.2-9.7,51.8-25.2,71.6L14263.5,13035.2"/>
		<path id="path354" class="st10" d="M15290.1,10991.2c0-24.1,7.4-46.5,19.9-65l161.3,161.2c-18.6,12.6-40.9,19.9-65,19.9
			C15342.1,11107.3,15290.1,11055.3,15290.1,10991.2"/>
		<path id="path356" class="st10" d="M15334.7,10900.4c19.8-15.6,44.4-25.3,71.6-25.3c64.1,0,116.1,52,116.1,116.1
			c0,27.1-9.7,51.8-25.3,71.5L15334.7,10900.4"/>
		<path id="path358" class="st10" d="M13479,10991.2c0-24.1,7.3-46.5,19.9-65l161.3,161.2c-18.6,12.6-41,19.9-65.1,19.9
			C13531,11107.3,13479,11055.3,13479,10991.2"/>
		<path id="path360" class="st10" d="M13523.6,10900.4c19.8-15.6,44.4-25.3,71.5-25.3c64.2,0,116.2,52,116.2,116.1
			c0,27.1-9.7,51.8-25.3,71.5L13523.6,10900.4"/>
		<path id="path362" class="st10" d="M12877.9,11939.1c0-24,7.3-46.4,19.9-64.9l161.2,161.2c-18.5,12.5-40.9,19.9-65,19.9
			C12929.9,12055.3,12877.9,12003.3,12877.9,11939.1"/>
		<path id="path364" class="st10" d="M12922.4,11848.3c19.8-15.6,44.4-25.3,71.6-25.3c64.1,0,116.1,52,116.1,116.1
			c0,27.2-9.7,51.8-25.3,71.6L12922.4,11848.3"/>
		<path id="path366" class="st11" d="M12111.5,14090.7c-137.7,0-249-111.3-249-249V5083.1c0-137.6,111.3-249,249-249
			c137.6,0,249,111.4,249,249v8758.6C12360.5,13979.4,12249.1,14090.7,12111.5,14090.7"/>
		<path id="path368" class="st14" d="M11945.3,15331.3l-3802.7-4.1c-85.8,0-155.3-69.7-155.2-155.5l11.9-11187.2
			c0.1-85.8,69.7-155.3,155.6-155.2l3802.7,4c85.8,0.1,155.3,69.7,155.2,155.6l-11.9,11187.2
			C12100.7,15261.9,12031.1,15331.4,11945.3,15331.3"/>
		<path id="path370" class="st15" d="M9888.3,15333.8l12.2-11497.9l213.3,0.2l-12.2,11498L9888.3,15333.8"/>
		<path id="path372" class="st15" d="M10661.8,15334.7l12.2-11498l213.4,0.2l-12.2,11498L10661.8,15334.7"/>
		<path id="path374" class="st15" d="M9134.8,15333l12.2-11497.9l213.4,0.2l-12.2,11498L9134.8,15333"/>
		<path id="path376" class="st15" d="M11765.8,14745.2l-826.8-745.9c-35.3-31.8-40.1-88.4-10.5-125.7
			c33.6-42.4,93.9-47.5,134.1-11.2l826.8,745.8c35.3,31.9,40,88.5,10.5,125.8C11866.3,14776.4,11805.9,14781.4,11765.8,14745.2"/>
		<path id="path378" class="st15" d="M11766.4,14133.3l-826.7-745.9c-35.4-31.8-40.1-88.4-10.5-125.7c33.5-42.4,93.9-47.5,134-11.2
			l826.8,745.8c35.4,31.9,40.1,88.5,10.5,125.8C11866.9,14164.5,11806.6,14169.5,11766.4,14133.3"/>
		<path id="path380" class="st15" d="M11767.1,13542.7l-826.8-745.8c-35.3-31.9-40.1-88.5-10.5-125.8
			c33.6-42.4,93.9-47.4,134.1-11.2l826.7,745.9c35.4,31.8,40.1,88.4,10.5,125.7C11867.6,13573.9,11807.2,13579,11767.1,13542.7"/>
		<path id="path382" class="st15" d="M11901.8,12919.6c-33.6,42.4-93.9,47.5-134.1,11.2l-826.8-745.8c-35.3-31.9-40-88.5-10.5-125.8
			c33.6-42.4,94-47.4,134.1-11.2l826.8,745.9C11926.6,12825.7,11931.3,12882.3,11901.8,12919.6L11901.8,12919.6"/>
		<path id="path384" class="st15" d="M11768.4,12311.8l-826.8-745.8c-35.3-31.9-40.1-88.5-10.5-125.8
			c33.6-42.4,93.9-47.4,134.1-11.2l826.7,745.8c35.4,31.9,40.1,88.5,10.6,125.8C11868.9,12343,11808.5,12348.1,11768.4,12311.8"/>
		<path id="path386" class="st15" d="M11769,11699.9l-826.8-745.8c-35.3-31.9-40-88.5-10.5-125.8c33.6-42.4,94-47.4,134.1-11.2
			l826.8,745.8c35.3,31.9,40.1,88.5,10.5,125.8C11869.5,11731.1,11809.2,11736.2,11769,11699.9"/>
		<path id="path388" class="st15" d="M11769.7,11059.6l-826.8-745.9c-35.3-31.8-40-88.5-10.5-125.8c33.6-42.3,93.9-47.4,134.1-11.2
			l826.8,745.9c35.3,31.9,40,88.5,10.5,125.8C11870.2,11090.8,11809.8,11095.8,11769.7,11059.6"/>
		<path id="path390" class="st15" d="M11770.3,10447.7l-826.7-745.9c-35.4-31.8-40.1-88.5-10.5-125.8
			c33.6-42.3,93.9-47.4,134.1-11.2l826.7,745.9c35.4,31.9,40.1,88.5,10.5,125.8C11870.8,10478.9,11810.5,10483.9,11770.3,10447.7"/>
		<path id="path392" class="st15" d="M11771,9807.3l-826.7-745.8c-35.4-31.9-40.1-88.5-10.5-125.8c33.5-42.4,93.9-47.4,134-11.2
			l826.8,745.8c35.3,31.9,40.1,88.5,10.5,125.8C11871.5,9838.5,11811.2,9843.6,11771,9807.3"/>
		<path id="path394" class="st15" d="M11771.7,9195.4l-826.8-745.8c-35.3-31.9-40.1-88.5-10.5-125.8c33.6-42.4,93.9-47.4,134.1-11.2
			l826.8,745.8c35.3,31.9,40,88.5,10.5,125.8C11872.2,9226.6,11811.8,9231.7,11771.7,9195.4"/>
		<path id="path396" class="st15" d="M11772.3,8583.5l-826.7-745.8c-35.4-31.9-40.1-88.5-10.6-125.8c33.6-42.4,94-47.4,134.1-11.2
			l826.8,745.8c35.3,31.9,40.1,88.5,10.5,125.8C11872.8,8614.7,11812.5,8619.8,11772.3,8583.5"/>
		<path id="path398" class="st15" d="M11773,7971.6l-826.8-745.8c-35.3-31.9-40.1-88.5-10.5-125.8c33.6-42.4,93.9-47.4,134.1-11.2
			l826.7,745.8c35.4,31.9,40.1,88.5,10.6,125.8C11873.5,8002.8,11813.1,8007.9,11773,7971.6"/>
		<path id="path400" class="st15" d="M11773.6,7388.2l-826.8-745.9c-35.3-31.8-40-88.4-10.5-125.7c33.6-42.4,94-47.5,134.1-11.2
			l826.8,745.8c35.3,31.9,40,88.5,10.5,125.8C11874.1,7419.4,11813.8,7424.4,11773.6,7388.2"/>
		<path id="path402" class="st15" d="M11774.2,6776.3l-826.7-745.9c-35.4-31.8-40.1-88.4-10.5-125.7c33.6-42.4,93.9-47.5,134.1-11.2
			l826.7,745.8c35.4,31.9,40.1,88.5,10.5,125.8C11874.7,6807.5,11814.4,6812.5,11774.2,6776.3"/>
		<path id="path404" class="st15" d="M11774.9,6121.7l-826.7-745.8c-35.4-31.9-40.1-88.5-10.5-125.8c33.6-42.4,93.9-47.5,134.1-11.2
			l826.7,745.8c35.3,31.9,40.1,88.5,10.5,125.8C11875.4,6152.9,11815.1,6157.9,11774.9,6121.7"/>
		<path id="path406" class="st15" d="M11775.6,5509.8l-826.8-745.8c-35.3-31.9-40-88.5-10.5-125.8c33.6-42.4,93.9-47.5,134.1-11.2
			l826.8,745.8c35.3,31.9,40,88.5,10.5,125.8C11876.1,5541,11815.7,5546,11775.6,5509.8"/>
		<path id="path408" class="st15" d="M12017,4901.1c-33.6,42.3-93.9,47.4-134.1,11.2l-826.8-745.9c-35.3-31.9-40-88.5-10.5-125.8
			c33.6-42.4,94-47.4,134.1-11.2l826.8,745.9C12041.8,4807.1,12046.6,4863.7,12017,4901.1L12017,4901.1"/>
		<path id="path410" class="st15" d="M11463.8,15085.2l-525.4-474c-35.4-31.8-40.1-88.4-10.5-125.7c33.5-42.4,93.9-47.5,134-11.2
			l525.5,473.9c35.3,31.9,40,88.5,10.5,125.8C11564.3,15116.4,11503.9,15121.5,11463.8,15085.2"/>
		<path id="path412" class="st15" d="M9044.2,13997.3l-766.2,688.3c-40.2,36.1-100.6,31-134.1-11.5c-29.5-37.4-24.6-94,10.8-125.8
			l766.2-688.2c40.2-36.2,100.6-31,134.1,11.5C9084.5,13908.9,9079.6,13965.5,9044.2,13997.3"/>
		<path id="path414" class="st15" d="M9044.9,13385.4l-828.3,744.1c-40.2,36.2-100.6,31-134.1-11.5c-29.5-37.3-24.6-93.9,10.8-125.7
			l828.4-744.1c40.2-36.2,100.6-31,134.1,11.5C9085.1,13297,9080.3,13353.6,9044.9,13385.4"/>
		<path id="path416" class="st15" d="M9045.5,12794.9l-828.3,744.1c-40.2,36.1-100.6,30.9-134.1-11.5l0,0
			c-29.5-37.4-24.6-94,10.8-125.8l828.4-744.1c40.2-36.1,100.6-30.9,134.1,11.5C9085.7,12706.5,9080.9,12763.1,9045.5,12794.9"/>
		<path id="path418" class="st15" d="M9046.1,12183l-828.3,744.1c-40.2,36.1-100.6,30.9-134.1-11.5c-29.5-37.4-24.6-94,10.8-125.8
			l828.3-744.1c40.2-36.1,100.6-30.9,134.1,11.5C9086.4,12094.6,9081.5,12151.2,9046.1,12183"/>
		<path id="path420" class="st15" d="M9046.8,11564l-828.3,744.1c-40.2,36.1-100.6,30.9-134.1-11.5c-29.5-37.4-24.6-94,10.8-125.8
			l828.4-744.1c40.2-36.1,100.6-31,134.1,11.5C9087.1,11475.6,9082.2,11532.2,9046.8,11564"/>
		<path id="path422" class="st15" d="M9047.5,10952.1l-828.3,744.1c-40.2,36.1-100.6,30.9-134.1-11.5c-29.5-37.4-24.6-94,10.8-125.8
			l828.3-744.1c40.2-36.1,100.6-30.9,134.1,11.5C9087.7,10863.7,9082.9,10920.3,9047.5,10952.1"/>
		<path id="path424" class="st15" d="M9048.1,10311.7l-828.3,744.1c-40.2,36.2-100.6,31-134.1-11.5c-29.5-37.3-24.6-93.9,10.8-125.7
			l828.3-744.1c40.2-36.2,100.6-31,134.1,11.5C9088.4,10223.3,9083.5,10279.9,9048.1,10311.7"/>
		<path id="path426" class="st15" d="M9048.8,9699.8l-828.3,744.1c-40.2,36.2-100.6,31-134.1-11.5c-29.5-37.3-24.6-93.9,10.8-125.7
			l828.3-744.1c40.2-36.2,100.6-31,134.1,11.5C9089,9611.4,9084.2,9668,9048.8,9699.8"/>
		<path id="path428" class="st15" d="M9049.5,9059.5l-828.3,744.1c-40.2,36.1-100.6,30.9-134.1-11.5c-29.5-37.4-24.6-94,10.8-125.8
			l828.4-744.1c40.2-36.1,100.6-31,134.1,11.5C9089.7,8971.1,9084.9,9027.7,9049.5,9059.5"/>
		<path id="path430" class="st15" d="M9050.1,8447.6l-828.3,744.1c-40.2,36.1-100.6,30.9-134.1-11.5c-29.5-37.4-24.6-94,10.8-125.8
			l828.3-744.1c40.2-36.1,100.6-31,134.1,11.5C9090.4,8359.2,9085.5,8415.8,9050.1,8447.6"/>
		<path id="path432" class="st15" d="M9050.8,7835.7l-828.3,744.1c-40.2,36.1-100.6,30.9-134.1-11.5c-29.5-37.4-24.6-94,10.8-125.8
			l828.4-744.1c40.2-36.1,100.6-31,134.1,11.5C9091,7747.3,9086.2,7803.9,9050.8,7835.7"/>
		<path id="path434" class="st15" d="M9051.4,7223.8l-828.3,744.1c-40.2,36.1-100.6,30.9-134.1-11.5h0
			c-29.5-37.4-24.6-94,10.8-125.8l828.3-744.1c40.2-36.1,100.6-31,134.1,11.5C9091.7,7135.4,9086.8,7192,9051.4,7223.8"/>
		<path id="path436" class="st15" d="M9052,6640.3l-828.3,744.1c-40.2,36.2-100.6,31-134.1-11.5c-29.5-37.3-24.6-93.9,10.8-125.7
			l828.4-744.1c40.2-36.2,100.6-31,134.1,11.5C9092.3,6551.9,9087.4,6608.5,9052,6640.3"/>
		<path id="path438" class="st15" d="M9052.7,6028.4l-828.3,744.1c-40.2,36.2-100.6,31-134.1-11.5c-29.5-37.3-24.6-93.9,10.8-125.7
			l828.4-744.1c40.2-36.2,100.6-31,134.1,11.5C9092.9,5940,9088.1,5996.6,9052.7,6028.4"/>
		<path id="path440" class="st15" d="M9053.4,5373.8L8225,6117.9c-40.2,36.2-100.6,31-134.1-11.5c-29.5-37.3-24.6-93.9,10.8-125.7
			l828.3-744.1c40.2-36.1,100.6-31,134.1,11.5C9093.6,5285.5,9088.8,5342,9053.4,5373.8"/>
		<path id="path442" class="st15" d="M9054,4762l-828.3,744c-40.2,36.2-100.6,31-134.1-11.4c-29.5-37.4-24.6-94,10.8-125.8
			l828.4-744.1c40.2-36.1,100.6-31,134.1,11.5C9094.3,4673.6,9089.4,4730.1,9054,4762"/>
		<path id="path444" class="st15" d="M8948,4164.2l-673.2,604.7c-40.2,36.1-100.6,30.9-134.1-11.5c-29.5-37.4-24.6-94,10.8-125.8
			l673.2-604.7c40.2-36.1,100.6-31,134.1,11.5C8988.2,4075.8,8983.4,4132.4,8948,4164.2"/>
		<path id="path446" class="st15" d="M9043.6,14609.2l-526.4,472.9c-40.2,36.2-100.6,31-134.1-11.5c-29.5-37.3-24.6-93.9,10.8-125.7
			l526.4-472.9c40.2-36.2,100.6-31,134.1,11.5C9083.8,14520.8,9079,14577.4,9043.6,14609.2"/>
		<path id="path448" class="st11" d="M33091.7,10161.2V8778.6c0-16.2,13.2-29.3,29.3-29.3h556.5v1441.2H33121
			C33104.8,10190.5,33091.7,10177.4,33091.7,10161.2"/>
		<path id="path450" class="st11" d="M32798.9,10040.7V8899.2c0-17.3,13.9-31.2,31.2-31.2h415.8v1203.9h-415.8
			C32812.8,10071.9,32798.9,10057.9,32798.9,10040.7"/>
		<path id="path452" class="st11" d="M32421.2,9946.6v-953.4c0-25.1,20.4-45.4,45.5-45.4h401.5v1044.3h-401.5
			C32441.6,9992.1,32421.2,9971.7,32421.2,9946.6"/>
		<path id="path454" class="st11" d="M32124.5,9113.5h447v712.9h-447V9113.5"/>
		<path id="path456" class="st12" d="M31180.4,15341.9h1007.1v698.8h-1007.1V15341.9"/>
		<path id="path458" class="st12" d="M32300.3,15372.8h-1232.7c-25.7,0-46.5-20.8-46.5-46.5v-436.5h1325.6v436.5
			C32346.7,15352,32325.9,15372.8,32300.3,15372.8"/>
		<path id="path460" class="st12" d="M31021.1,14045.2c0-41.5,33.6-75.1,75.1-75.1h1175.5c41.4,0,75,33.6,75,75.1v582.6h-1325.6
			V14045.2"/>
		<path id="path462" class="st10" d="M31301.2,13338.1h765.5v657.7h-765.5V13338.1"/>
		<path id="path464" class="st10" d="M32488,14915.5h-1608.2c-102.1,0-184.9-82.9-184.9-185s82.8-184.9,184.9-184.9H32488
			c102.2,0,185,82.8,185,184.9C32673,14832.6,32590.2,14915.5,32488,14915.5"/>
		<path id="path466" class="st11" d="M32179.7,16020.1H31183c-8.5,0-15.4-6.9-15.4-15.4c0-8.6,6.9-15.4,15.4-15.4h996.7
			c8.5,0,15.4,6.8,15.4,15.4C32195.1,16013.2,32188.2,16020.1,32179.7,16020.1"/>
		<path id="path468" class="st11" d="M32174.6,15393.3h-976.2c-8.5,0-15.4-6.8-15.4-15.4c0-8.5,6.9-15.4,15.4-15.4h976.2
			c8.5,0,15.4,6.9,15.4,15.4C32190,15386.5,32183.1,15393.3,32174.6,15393.3"/>
		<path id="path470" class="st11" d="M32344.2,14925.7H31034c-8.5,0-15.4-6.8-15.4-15.4c0-8.5,6.9-15.4,15.4-15.4h1310.2
			c8.5,0,15.4,6.9,15.4,15.4C32359.6,14918.9,32352.7,14925.7,32344.2,14925.7"/>
		<path id="path472" class="st11" d="M32349.3,14555.8h-1310.2c-8.5,0-15.4-6.9-15.4-15.4c0-8.6,6.9-15.4,15.4-15.4h1310.2
			c8.5,0,15.4,6.8,15.4,15.4C32364.7,14548.9,32357.8,14555.8,32349.3,14555.8"/>
		<path id="path474" class="st11" d="M32077,13985.5h-775.9c-8.5,0-15.4-6.9-15.4-15.4c0-8.6,6.9-15.5,15.4-15.5h775.9
			c8.5,0,15.4,6.9,15.4,15.5C32092.4,13978.6,32085.5,13985.5,32077,13985.5"/>
		<path id="path476" class="st10" d="M33384.6,8575.9h1425.8v1788h-1425.8V8575.9"/>
		<path id="path478" class="st11" d="M33095.6,10087.1c-8.5,0-15.4-6.9-15.4-15.4V8880.9c0-8.5,6.9-15.4,15.4-15.4
			s15.4,6.9,15.4,15.4v1190.8C33111,10080.2,33104.1,10087.1,33095.6,10087.1"/>
		<path id="path480" class="st11" d="M32798.9,10003.6c-8.5,0-15.4-6.8-15.4-15.4V8960.5c0-8.5,6.9-15.4,15.4-15.4
			s15.4,6.9,15.4,15.4v1027.7C32814.3,9996.8,32807.4,10003.6,32798.9,10003.6"/>
		<path id="path482" class="st11" d="M32418.7,9836.6c-8.5,0-15.5-6.9-15.5-15.4v-693.6c0-8.6,7-15.5,15.5-15.5
			c8.4,0,15.4,6.9,15.4,15.5v693.6C32434.1,9829.7,32427.1,9836.6,32418.7,9836.6"/>
		<path id="path484" class="st13" d="M31064.8,13358.7v-2620.4h2188.8l778.4-778.4v2104l-1487.4,1294.8H31064.8"/>
		<path id="path486" class="st10" d="M31322.7,13242.2c-24,0-46.4-7.4-65-19.9l161.3-161.3c12.5,18.6,19.9,40.9,19.9,65
			C31438.9,13190.2,31386.9,13242.2,31322.7,13242.2"/>
		<path id="path488" class="st10" d="M31206.6,13126c0-64.1,52-116.1,116.1-116.1c27.2,0,51.8,9.7,71.6,25.3l-162.4,162.4
			C31216.3,13177.8,31206.6,13153.2,31206.6,13126"/>
		<path id="path490" class="st10" d="M32394,13242.2c-24.1,0-46.4-7.4-65-19.9l161.3-161.3c12.5,18.6,19.9,40.9,19.9,65
			C32510.2,13190.2,32458.2,13242.2,32394,13242.2"/>
		<path id="path492" class="st10" d="M32277.9,13126c0-64.1,52-116.1,116.1-116.1c27.2,0,51.8,9.7,71.6,25.3l-162.4,162.4
			C32287.6,13177.8,32277.9,13153.2,32277.9,13126"/>
		<path id="path494" class="st10" d="M31322.7,11107.3c-24,0-46.4-7.3-65-19.9l161.3-161.2c12.5,18.5,19.9,40.9,19.9,65
			C31438.9,11055.3,31386.9,11107.3,31322.7,11107.3"/>
		<path id="path496" class="st10" d="M31206.6,10991.2c0-64.1,52-116.1,116.1-116.1c27.2,0,51.8,9.7,71.6,25.3l-162.4,162.3
			C31216.3,11043,31206.6,11018.3,31206.6,10991.2"/>
		<path id="path498" class="st10" d="M33133.9,11107.3c-24.1,0-46.5-7.3-65-19.9l161.2-161.2c12.6,18.5,19.9,40.9,19.9,65
			C33250,11055.3,33198,11107.3,33133.9,11107.3"/>
		<path id="path500" class="st10" d="M33017.8,10991.2c0-64.1,51.9-116.1,116.1-116.1c27.1,0,51.8,9.7,71.5,25.3l-162.4,162.3
			C33027.4,11043,33017.8,11018.3,33017.8,10991.2"/>
		<path id="path502" class="st10" d="M33735,12055.3c-24.1,0-46.4-7.4-65-19.9l161.3-161.2c12.5,18.5,19.9,40.9,19.9,64.9
			C33851.2,12003.3,33799.2,12055.3,33735,12055.3"/>
		<path id="path504" class="st10" d="M33618.9,11939.1c0-64.1,52-116.1,116.1-116.1c27.2,0,51.8,9.7,71.6,25.3l-162.4,162.4
			C33628.6,11990.9,33618.9,11966.3,33618.9,11939.1"/>
		<path id="path506" class="st11" d="M34617.5,14090.7c-137.6,0-249-111.3-249-249V5083.1c0-137.6,111.4-249,249-249
			s249,111.4,249,249v8758.6C34866.5,13979.4,34755.1,14090.7,34617.5,14090.7"/>
		<path id="path508" class="st14" d="M38586.4,15327.2l-3802.6,4.1c-85.9,0.1-155.5-69.4-155.6-155.2l-11.9-11187.2
			c-0.1-85.9,69.4-155.5,155.2-155.6l3802.7-4c85.9-0.1,155.5,69.4,155.6,155.2l11.9,11187.2
			C38741.8,15257.5,38672.3,15327.2,38586.4,15327.2"/>
		<path id="path510" class="st15" d="M36615.1,3836.1l213.4-0.2l12.2,11497.9l-213.4,0.3L36615.1,3836.1"/>
		<path id="path512" class="st15" d="M35841.6,3836.9l213.4-0.2l12.2,11498l-213.4,0.2L35841.6,3836.9"/>
		<path id="path514" class="st15" d="M37368.6,3835.3l213.4-0.2l12.2,11497.9l-213.4,0.3L37368.6,3835.3"/>
		<path id="path516" class="st15" d="M35790,13999.3l-826.7,745.9c-40.2,36.2-100.6,31.2-134.1-11.2
			c-29.6-37.3-24.9-93.9,10.5-125.8l826.7-745.8c40.2-36.3,100.5-31.2,134.1,11.2C35830.1,13910.9,35825.4,13967.5,35790,13999.3"/>
		<path id="path518" class="st15" d="M35789.4,13387.4l-826.8,745.9c-40.2,36.2-100.5,31.2-134.1-11.2
			c-29.6-37.3-24.8-93.9,10.5-125.8l826.8-745.8c40.1-36.3,100.5-31.2,134.1,11.2C35829.4,13299,35824.7,13355.6,35789.4,13387.4"/>
		<path id="path520" class="st15" d="M35788.7,12796.9l-826.7,745.8c-40.2,36.3-100.5,31.2-134.1-11.2
			c-29.6-37.3-24.9-93.9,10.5-125.7l826.8-745.9c40.1-36.2,100.5-31.2,134.1,11.2C35828.8,12708.4,35824.1,12765,35788.7,12796.9"/>
		<path id="path522" class="st15" d="M35788.1,12185l-826.8,745.8c-40.1,36.3-100.5,31.2-134.1-11.2l0,0
			c-29.5-37.3-24.8-93.9,10.5-125.7l826.8-745.9c40.2-36.2,100.5-31.2,134.1,11.2C35828.2,12096.5,35823.4,12153.1,35788.1,12185"/>
		<path id="path524" class="st15" d="M35787.4,11566l-826.7,745.8c-40.2,36.3-100.5,31.2-134.1-11.2
			c-29.6-37.3-24.8-93.9,10.5-125.8l826.8-745.8c40.1-36.2,100.4-31.2,134,11.2C35827.5,11477.5,35822.8,11534.1,35787.4,11566"/>
		<path id="path526" class="st15" d="M35786.8,10954.1l-826.8,745.8c-40.1,36.3-100.5,31.2-134.1-11.2
			c-29.5-37.3-24.8-93.9,10.5-125.8l826.8-745.8c40.2-36.2,100.5-31.2,134.1,11.2C35826.8,10865.6,35822.1,10922.2,35786.8,10954.1"
			/>
		<path id="path528" class="st15" d="M35786.1,10313.7l-826.8,745.9c-40.1,36.2-100.5,31.2-134.1-11.2
			c-29.5-37.3-24.8-93.9,10.6-125.8l826.7-745.9c40.2-36.2,100.5-31.1,134.1,11.2C35826.2,10225.2,35821.4,10281.9,35786.1,10313.7"
			/>
		<path id="path530" class="st15" d="M35785.5,9701.8l-826.8,745.9c-40.2,36.2-100.5,31.2-134.1-11.2
			c-29.6-37.3-24.8-93.9,10.5-125.8l826.8-745.9c40.1-36.2,100.5-31.1,134.1,11.2C35825.5,9613.3,35820.8,9670,35785.5,9701.8"/>
		<path id="path532" class="st15" d="M35784.8,9061.5l-826.8,745.8c-40.2,36.3-100.5,31.2-134.1-11.2
			c-29.5-37.3-24.8-93.9,10.5-125.8l826.8-745.8c40.2-36.2,100.5-31.2,134.1,11.2C35824.8,8973,35820.1,9029.6,35784.8,9061.5"/>
		<path id="path534" class="st15" d="M35784.1,8449.6l-826.7,745.8c-40.2,36.3-100.5,31.2-134.1-11.2
			c-29.6-37.3-24.9-93.9,10.5-125.8l826.7-745.8c40.2-36.2,100.5-31.2,134.1,11.2C35824.2,8361.1,35819.5,8417.7,35784.1,8449.6"/>
		<path id="path536" class="st15" d="M35783.5,7837.7l-826.8,745.8c-40.2,36.3-100.5,31.2-134.1-11.2
			c-29.5-37.3-24.8-93.9,10.5-125.8l826.8-745.8c40.2-36.2,100.5-31.2,134.1,11.2C35823.5,7749.2,35818.8,7805.8,35783.5,7837.7"/>
		<path id="path538" class="st15" d="M35782.8,7225.8l-826.7,745.8c-40.2,36.3-100.5,31.2-134.1-11.2
			c-29.6-37.3-24.9-93.9,10.5-125.8l826.7-745.8c40.2-36.2,100.5-31.2,134.1,11.2C35822.9,7137.3,35818.2,7193.9,35782.8,7225.8"/>
		<path id="path540" class="st15" d="M35782.2,6642.3l-826.8,745.9c-40.1,36.2-100.5,31.2-134-11.2c-29.6-37.3-24.9-93.9,10.5-125.8
			l826.7-745.8c40.2-36.3,100.5-31.2,134.1,11.2C35822.3,6553.9,35817.5,6610.5,35782.2,6642.3"/>
		<path id="path542" class="st15" d="M35781.5,6030.4l-826.7,745.9c-40.2,36.2-100.5,31.2-134.1-11.2
			c-29.6-37.3-24.8-93.9,10.5-125.8l826.8-745.8c40.1-36.3,100.5-31.2,134.1,11.2C35821.6,5942,35816.9,5998.6,35781.5,6030.4"/>
		<path id="path544" class="st15" d="M35780.9,5375.9l-826.8,745.8c-40.2,36.2-100.5,31.2-134.1-11.2
			c-29.6-37.3-24.8-93.9,10.5-125.8l826.8-745.8c40.1-36.3,100.5-31.2,134.1,11.2C35820.9,5287.4,35816.2,5344,35780.9,5375.9"/>
		<path id="path546" class="st15" d="M35780.2,4764l-826.8,745.8c-40.1,36.2-100.5,31.2-134.1-11.2c-29.5-37.3-24.8-93.9,10.6-125.8
			l826.7-745.8c40.2-36.3,100.5-31.2,134.1,11.2C35820.3,4675.5,35815.5,4732.1,35780.2,4764"/>
		<path id="path548" class="st15" d="M35672.9,4166.4l-826.8,745.9c-40.1,36.2-100.5,31.1-134.1-11.2v-0.1
			c-29.5-37.3-24.8-93.9,10.5-125.7l826.8-745.9c40.2-36.2,100.5-31.2,134.1,11.2C35713,4077.9,35708.2,4134.5,35672.9,4166.4"/>
		<path id="path550" class="st15" d="M35790.7,14611.2l-525.5,474c-40.1,36.3-100.5,31.2-134-11.2c-29.6-37.3-24.9-93.9,10.5-125.8
			l525.4-473.9c40.1-36.3,100.5-31.2,134.1,11.2C35830.7,14522.8,35826,14579.4,35790.7,14611.2"/>
		<path id="path552" class="st15" d="M38451,14685.6l-766.2-688.3c-35.4-31.8-40.2-88.4-10.8-125.7c33.5-42.5,93.9-47.7,134.1-11.5
			l766.2,688.2c35.4,31.8,40.2,88.4,10.8,125.8C38551.6,14716.6,38491.2,14721.7,38451,14685.6"/>
		<path id="path554" class="st15" d="M38512.5,14129.5l-828.3-744.1c-35.4-31.8-40.3-88.4-10.8-125.7c33.5-42.5,93.8-47.7,134-11.5
			l828.4,744.1c35.4,31.8,40.2,88.4,10.8,125.7C38613.1,14160.5,38552.7,14165.7,38512.5,14129.5"/>
		<path id="path556" class="st15" d="M38645.9,13527.5c-33.5,42.4-93.8,47.6-134,11.5l-828.4-744.1c-35.4-31.8-40.2-88.4-10.7-125.8
			c33.5-42.4,93.8-47.6,134-11.5l828.4,744.1C38670.6,13433.5,38675.4,13490.1,38645.9,13527.5L38645.9,13527.5"/>
		<path id="path558" class="st15" d="M38511.2,12927.1l-828.3-744.1c-35.4-31.8-40.3-88.4-10.8-125.8
			c33.5-42.4,93.8-47.6,134.1-11.5l828.3,744.1c35.4,31.8,40.3,88.4,10.8,125.8C38611.8,12958,38551.5,12963.2,38511.2,12927.1"/>
		<path id="path560" class="st15" d="M38510.6,12308.1l-828.4-744.1c-35.4-31.8-40.2-88.4-10.8-125.8
			c33.5-42.5,93.9-47.6,134.1-11.5l828.4,744.1c35.4,31.8,40.2,88.4,10.7,125.8C38611.1,12339,38550.8,12344.2,38510.6,12308.1"/>
		<path id="path562" class="st15" d="M38509.9,11696.2l-828.3-744.1c-35.4-31.8-40.3-88.4-10.8-125.8
			c33.5-42.4,93.8-47.6,134.1-11.5l828.3,744.1c35.4,31.8,40.3,88.4,10.8,125.8C38610.5,11727.1,38550.2,11732.3,38509.9,11696.2"/>
		<path id="path564" class="st15" d="M38509.2,11055.8l-828.3-744.1c-35.4-31.8-40.3-88.4-10.8-125.7
			c33.5-42.5,93.8-47.7,134.1-11.5l828.3,744.1c35.4,31.8,40.3,88.4,10.8,125.7C38609.8,11086.8,38549.5,11092,38509.2,11055.8"/>
		<path id="path566" class="st15" d="M38508.6,10443.9l-828.4-744.1c-35.4-31.8-40.2-88.4-10.7-125.7c33.5-42.5,93.8-47.7,134-11.5
			l828.4,744.1c35.4,31.8,40.2,88.4,10.8,125.7C38609.2,10474.9,38548.8,10480.1,38508.6,10443.9"/>
		<path id="path568" class="st15" d="M38507.9,9803.6l-828.3-744.1c-35.4-31.8-40.3-88.4-10.8-125.8c33.5-42.5,93.8-47.6,134.1-11.5
			l828.3,744.1c35.4,31.8,40.3,88.4,10.8,125.8C38608.5,9834.5,38548.1,9839.7,38507.9,9803.6"/>
		<path id="path570" class="st15" d="M38507.3,9191.7l-828.4-744.1c-35.4-31.8-40.2-88.4-10.8-125.8c33.5-42.5,93.9-47.6,134.1-11.5
			l828.3,744.1c35.5,31.8,40.3,88.4,10.8,125.8C38607.8,9222.6,38547.5,9227.8,38507.3,9191.7"/>
		<path id="path572" class="st15" d="M38506.6,8579.8l-828.3-744.1c-35.4-31.8-40.3-88.4-10.8-125.8c33.5-42.5,93.8-47.6,134.1-11.5
			l828.3,744.1c35.4,31.8,40.3,88.4,10.8,125.8C38607.2,8610.7,38546.8,8615.9,38506.6,8579.8"/>
		<path id="path574" class="st15" d="M38506,7967.9l-828.4-744.1c-35.4-31.8-40.2-88.4-10.8-125.8c33.5-42.5,93.9-47.6,134.1-11.5
			l828.4,744.1c35.4,31.8,40.2,88.4,10.7,125.8C38606.5,7998.8,38546.2,8004,38506,7967.9"/>
		<path id="path576" class="st15" d="M38505.3,7384.4l-828.3-744.1c-35.4-31.8-40.3-88.4-10.8-125.7c33.5-42.5,93.9-47.7,134.1-11.5
			l828.3,744.1c35.4,31.8,40.3,88.4,10.8,125.7C38605.9,7415.4,38545.6,7420.6,38505.3,7384.4"/>
		<path id="path578" class="st15" d="M38504.7,6772.5l-828.3-744.1c-35.5-31.8-40.3-88.4-10.8-125.7c33.5-42.5,93.8-47.7,134-11.5
			l828.4,744.1c35.4,31.8,40.2,88.4,10.8,125.7C38605.3,6803.5,38544.9,6808.7,38504.7,6772.5"/>
		<path id="path580" class="st15" d="M38504,6117.9l-828.4-744.1c-35.4-31.8-40.2-88.3-10.7-125.7c33.5-42.5,93.8-47.6,134-11.5
			l828.4,744.1c35.4,31.8,40.2,88.4,10.8,125.7C38604.6,6148.9,38544.2,6154.1,38504,6117.9"/>
		<path id="path582" class="st15" d="M38503.4,5506l-828.4-744c-35.4-31.9-40.3-88.4-10.8-125.8c33.5-42.5,93.9-47.6,134.1-11.5
			l828.3,744.1c35.4,31.8,40.3,88.4,10.8,125.8C38603.9,5537,38543.6,5542.2,38503.4,5506"/>
		<path id="path584" class="st15" d="M38454.2,4768.9l-673.1-604.7c-35.5-31.8-40.3-88.4-10.8-125.8c33.5-42.5,93.8-47.6,134-11.5
			l673.2,604.7c35.4,31.8,40.3,88.4,10.8,125.8C38554.8,4799.8,38494.5,4805,38454.2,4768.9"/>
		<path id="path586" class="st15" d="M38211.9,15082.1l-526.4-472.9c-35.4-31.8-40.3-88.4-10.8-125.7
			c33.5-42.5,93.8-47.7,134.1-11.5l526.4,472.9c35.4,31.8,40.2,88.4,10.7,125.7C38312.5,15113.1,38252.1,15118.3,38211.9,15082.1"/>
		<path id="path588" class="st13" d="M26417,10718.8h-5636.8c-42.1,0-76.3-34.2-76.3-76.3V8460.6c0-42.1,34.2-76.2,76.3-76.2H26417
			c42.1,0,76.2,34.1,76.2,76.2v2181.9C26493.2,10684.6,26459.1,10718.8,26417,10718.8"/>
		<path id="path590" class="st12" d="M20460.1,10417.9c-137.5,0-249-111.4-249-249V8838.3c0-137.6,111.5-249,249-249
			s249,111.4,249,249v1330.6C20709.1,10306.5,20597.6,10417.9,20460.1,10417.9"/>
		<path id="path592" class="st11" d="M19394.1,10017.9c-107.5,0-194.6-66.6-194.6-149v-796c0-82.4,87.1-149,194.6-149
			c107.4,0,194.5,66.6,194.5,149v796C19588.6,9951.3,19501.5,10017.9,19394.1,10017.9"/>
		<path id="path594" class="st11" d="M27797.9,10017.9c-107.4,0-194.5-66.6-194.5-149v-796c0-82.4,87.1-149,194.5-149
			s194.5,66.6,194.5,149v796C27992.4,9951.3,27905.3,10017.9,27797.9,10017.9"/>
		<path id="path596" class="st12" d="M26731.9,10417.9c-137.5,0-249-111.4-249-249V8838.3c0-137.6,111.5-249,249-249
			s249,111.4,249,249v1330.6C26980.9,10306.5,26869.4,10417.9,26731.9,10417.9"/>
		<path id="path598" class="st16" d="M40314.8,25058.9h-9592.6c-369.9,0-669.9-300-669.9-669.9v-6953.8
			c0-369.9,300-669.8,669.9-669.8h9592.6c369.9,0,669.8,299.9,669.8,669.8V24389C40984.6,24758.9,40684.7,25058.9,40314.8,25058.9"
			/>
		<path id="path600" class="st13" d="M39828.3,25623.9h-9592.6c-370,0-669.9-300-669.9-669.9v-6953.7c0-370,299.9-669.9,669.9-669.9
			h9592.6c369.9,0,669.8,299.9,669.8,669.9V24954C40498.1,25323.9,40198.2,25623.9,39828.3,25623.9"/>
		<path id="path602" class="st16" d="M40135.4,18178.6c0-285.9-232.4-518.4-518.3-518.4h-9195.2c-285.9,0-518.4,232.5-518.4,518.4
			v6573.5c0,285.8,232.5,518.3,518.4,518.3h9195.2c285.9,0,518.3-232.5,518.3-518.3V18178.6 M39617.1,25364.7h-9195.2
			c-337.8,0-612.6-274.8-612.6-612.6v-6573.5c0-337.8,274.8-612.6,612.6-612.6h9195.2c337.8,0,612.6,274.8,612.6,612.6v6573.5
			C40229.7,25089.9,39954.9,25364.7,39617.1,25364.7"/>
		<path id="path604" class="st16" d="M34745.3,24622.5h-3251.4c-52.1,0-94.3-42.2-94.3-94.2c0-52.1,42.2-94.3,94.3-94.3h3251.4
			c52.1,0,94.3,42.2,94.3,94.3C34839.6,24580.3,34797.4,24622.5,34745.3,24622.5"/>
		<path id="path606" class="st16" d="M35240.1,23962.8h-4299.9c-52.1,0-94.2-42.2-94.2-94.3c0-52.1,42.1-94.2,94.2-94.2h4299.9
			c52.1,0,94.2,42.1,94.2,94.2S35292.2,23962.8,35240.1,23962.8"/>
		<path id="path608" class="st16" d="M34802.6,19147.2h-3251.5c-52.1,0-94.2-42.1-94.2-94.2s42.1-94.3,94.2-94.3h3251.5
			c52,0,94.2,42.2,94.2,94.3C34896.8,19105.1,34854.6,19147.2,34802.6,19147.2"/>
		<path id="path610" class="st16" d="M35297.3,18487.5h-4299.9c-52,0-94.2-42.1-94.2-94.2s42.2-94.3,94.2-94.3h4299.9
			c52.1,0,94.3,42.2,94.3,94.3C35391.6,18445.4,35349.4,18487.5,35297.3,18487.5"/>
		<path id="path612" class="st17" d="M38836.9,22901.7h-39.9v60.4c0,29.5-18.8,54.2-45,63.9v183.5h-284.3V23026
			c-26.1-9.7-44.9-34.4-44.9-63.9v-60.4h-39.9c-28.8,0-52.2-23.3-52.2-52.2c0-28.8,23.4-52.2,52.2-52.2h39.9v-68.9
			c0-46.5,34.6-83.4,79-90.6v-181.3h216.1v181.3c44.5,7.2,79.1,44.1,79.1,90.6v68.9h39.9c28.8,0,52.2,23.4,52.2,52.2
			C38889.1,22878.4,38865.7,22901.7,38836.9,22901.7"/>
		<path id="path614" class="st16" d="M38836.9,22813.4h-56v-85c0-37.1-27.5-68.5-65.5-74.8l-13.5-2.1v-179h-184v179l-13.5,2.1
			c-38,6.3-65.5,37.7-65.5,74.8v85h-56c-19.9,0-36.1,16.2-36.1,36.1c0,20,16.2,36.2,36.1,36.2h56v76.4c0,21.9,13.5,41,34.4,48.8
			l10.5,3.9v178.6h252.2v-178.6l10.4-3.9c21-7.8,34.5-26.9,34.5-48.8v-76.4h56c19.9,0,36.1-16.2,36.1-36.2
			C38873,22829.6,38856.8,22813.4,38836.9,22813.4L38836.9,22813.4z M38836.9,22917.9h-23.8v44.2c0,31.6-17.4,59.8-45,74.3v189.2
			h-316.4v-189.2c-27.7-14.5-45-42.7-45-74.3v-44.2h-23.8c-37.6,0-68.2-30.7-68.2-68.4c0-37.6,30.6-68.3,68.2-68.3h23.8v-52.8
			c0-48.3,32.5-90,79-103.4v-184.7h248.3v184.7c46.5,13.4,79.1,55.1,79.1,103.4v52.8h23.8c37.7,0,68.3,30.7,68.3,68.3
			C38905.2,22887.2,38874.6,22917.9,38836.9,22917.9"/>
		<path id="path616" class="st17" d="M38459,21432.7l16-138.3l974.7,113.2l-16,138.3L38459,21432.7"/>
		<path id="path618" class="st16" d="M38489.2,21312.2l-12.3,106.4l942.6,109.4l12.4-106.4L38489.2,21312.2z M38441.2,21446.7
			l19.7-170.1l1006.7,116.9l-19.8,170.2L38441.2,21446.7"/>
		<path id="path620" class="st17" d="M38338.2,21511.9h-59c-11.7,13.5-28.4,22.5-47.6,22.5h-37.4c-15.2,19.9-38.1,33.5-65.1,33.5
			h-82v-406.8h82c27,0,49.9,13.6,65.1,33.5h37.4c19.2,0,35.9,9,47.6,22.5h59c29.1,0,52.7,20,60.2,46.8h87.1v201.2h-87.1
			C38390.9,21491.9,38367.3,21511.9,38338.2,21511.9"/>
		<path id="path622" class="st16" d="M38469.4,21279.9h-83.2l-3.4-11.8c-5.8-20.9-23.8-35-44.7-35h-66.3l-4.8-5.5
			c-9.5-11-22.1-17-35.4-17h-45.3l-4.8-6.3c-13.5-17.5-32.1-27.2-52.4-27.2h-65.9v374.8h65.9c20.3,0,38.9-9.7,52.4-27.3l4.8-6.3
			h45.3c13.4,0,26-6,35.4-16.9l4.8-5.5h66.3c20.9,0,38.9-14.1,44.7-35.1l3.4-11.8h83.2V21279.9z M38338.1,21528h-52
			c-15,14.6-34.1,22.5-54.5,22.5h-29.9c-19.1,21.3-45.1,33.5-72.6,33.5h-98v-439.1h98c27.5,0,53.5,12.2,72.6,33.6h29.9
			c20.3,0,39.4,7.9,54.5,22.4h52c31.4,0,58.8,18.4,71.5,46.9h92v233.4h-92C38396.9,21509.7,38369.5,21528,38338.1,21528"/>
		<path id="path624" class="st17" d="M38118.9,23445.7h748.4l84.2,1230.6H38203L38118.9,23445.7"/>
		<path id="path626" class="st16" d="M38934.3,24660.2l-82-1198.5h-716.2l82,1198.5H38934.3z M38101.7,23429.5h780.6l86.4,1262.9
			H38188L38101.7,23429.5"/>
		<path id="path628" class="st17" d="M39111,24774.2h-1050.1c-28.8,0-52.2-23.4-52.2-52.2c0-28.8,23.4-52.2,52.2-52.2H39111
			c28.8,0,52.2,23.4,52.2,52.2C39163.2,24750.8,39139.8,24774.2,39111,24774.2"/>
		<path id="path630" class="st16" d="M39111,24685.9h-1050.1c-19.9,0-36.1,16.2-36.1,36.1s16.2,36.1,36.1,36.1H39111
			c20,0,36.2-16.2,36.2-36.1S39131,24685.9,39111,24685.9z M39111,24790.2h-1050.1c-37.6,0-68.3-30.6-68.3-68.2s30.7-68.3,68.3-68.3
			H39111c37.7,0,68.3,30.7,68.3,68.3C39179.3,24759.6,39148.7,24790.2,39111,24790.2"/>
		<path id="path632" class="st17" d="M39119.7,24591.5h-1050.1c-28.8,0-52.2-23.4-52.2-52.2c0-28.9,23.4-52.3,52.2-52.3h1050.1
			c28.8,0,52.2,23.4,52.2,52.3C39171.9,24568.1,39148.5,24591.5,39119.7,24591.5"/>
		<path id="path634" class="st16" d="M39119.7,24503.1h-1050.1c-19.9,0-36.1,16.2-36.1,36.2c0,19.8,16.2,36,36.1,36h1050.1
			c19.9,0,36.1-16.2,36.1-36C39155.8,24519.3,39139.6,24503.1,39119.7,24503.1z M39119.7,24607.5h-1050.1
			c-37.6,0-68.2-30.6-68.2-68.2c0-37.7,30.6-68.3,68.2-68.3h1050.1c37.6,0,68.3,30.6,68.3,68.3
			C39188,24576.9,39157.3,24607.5,39119.7,24607.5"/>
		<path id="path636" class="st17" d="M39106.7,24391.3h-1050.1c-28.9,0-52.3-23.4-52.3-52.2c0-28.8,23.4-52.2,52.3-52.2h1050.1
			c28.8,0,52.2,23.4,52.2,52.2C39158.9,24367.9,39135.5,24391.3,39106.7,24391.3"/>
		<path id="path638" class="st16" d="M39106.7,24302.9h-1050.1c-20,0-36.2,16.2-36.2,36.2s16.2,36.2,36.2,36.2h1050.1
			c19.9,0,36.1-16.2,36.1-36.2S39126.6,24302.9,39106.7,24302.9z M39106.7,24407.4h-1050.1c-37.7,0-68.3-30.6-68.3-68.3
			c0-37.7,30.6-68.3,68.3-68.3h1050.1c37.6,0,68.2,30.6,68.2,68.3C39174.9,24376.8,39144.3,24407.4,39106.7,24407.4"/>
		<path id="path640" class="st17" d="M39084.9,24212.9h-1050.1c-28.8,0-52.2-23.4-52.2-52.2c0-28.8,23.4-52.2,52.2-52.2h1050.1
			c28.8,0,52.2,23.4,52.2,52.2C39137.1,24189.5,39113.7,24212.9,39084.9,24212.9"/>
		<path id="path642" class="st16" d="M39084.9,24124.6h-1050.1c-20,0-36.2,16.2-36.2,36.2c0,19.8,16.2,36,36.2,36h1050.1
			c19.9,0,36.1-16.2,36.1-36C39121,24140.8,39104.8,24124.6,39084.9,24124.6z M39084.9,24228.9h-1050.1c-37.7,0-68.3-30.6-68.3-68.1
			c0-37.7,30.6-68.4,68.3-68.4h1050.1c37.6,0,68.3,30.7,68.3,68.4C39153.2,24198.3,39122.5,24228.9,39084.9,24228.9"/>
		<path id="path644" class="st17" d="M39045.7,24008.4h-1050.1c-28.8,0-52.2-23.4-52.2-52.2c0-28.8,23.4-52.2,52.2-52.2h1050.1
			c28.9,0,52.2,23.4,52.2,52.2C39097.9,23985,39074.6,24008.4,39045.7,24008.4"/>
		<path id="path646" class="st16" d="M39045.7,23920.1h-1050.1c-19.9,0-36.1,16.2-36.1,36.1s16.2,36.1,36.1,36.1h1050.1
			c19.9,0,36.1-16.2,36.1-36.1S39065.6,23920.1,39045.7,23920.1z M39045.7,24024.5h-1050.1c-37.6,0-68.2-30.7-68.2-68.3
			c0-37.6,30.6-68.3,68.2-68.3h1050.1c37.7,0,68.3,30.7,68.3,68.3C39114,23993.8,39083.4,24024.5,39045.7,24024.5"/>
		<path id="path648" class="st17" d="M39010.9,23790.8h-1050.1c-28.8,0-52.2-23.3-52.2-52.2c0-28.8,23.4-52.2,52.2-52.2h1050.1
			c28.9,0,52.2,23.4,52.2,52.2C39063.1,23767.5,39039.8,23790.8,39010.9,23790.8"/>
		<path id="path650" class="st16" d="M39010.9,23702.4h-1050.1c-19.9,0-36.1,16.3-36.1,36.2c0,20,16.2,36.2,36.1,36.2h1050.1
			c20,0,36.2-16.2,36.2-36.2C39047.1,23718.7,39030.9,23702.4,39010.9,23702.4z M39010.9,23806.9h-1050.1
			c-37.6,0-68.3-30.6-68.3-68.3c0-37.7,30.7-68.3,68.3-68.3h1050.1c37.7,0,68.3,30.6,68.3,68.3
			C39079.2,23776.3,39048.6,23806.9,39010.9,23806.9"/>
		<path id="path652" class="st17" d="M38997.9,23616.8h-1050.1c-28.9,0-52.2-23.4-52.2-52.2c0-28.8,23.3-52.2,52.2-52.2h1050.1
			c28.8,0,52.2,23.4,52.2,52.2C39050.1,23593.4,39026.7,23616.8,38997.9,23616.8"/>
		<path id="path654" class="st16" d="M38997.9,23528.5h-1050.1c-20,0-36.2,16.2-36.2,36.1s16.2,36.1,36.2,36.1h1050.1
			c19.9,0,36.1-16.2,36.1-36.1S39017.8,23528.5,38997.9,23528.5z M38997.9,23632.9h-1050.1c-37.7,0-68.3-30.7-68.3-68.3
			c0-37.6,30.6-68.2,68.3-68.2h1050.1c37.6,0,68.3,30.6,68.3,68.2S39035.5,23632.9,38997.9,23632.9"/>
		<path id="path656" class="st17" d="M38967.4,23447.1h-1050.1c-28.8,0-52.2-23.4-52.2-52.2c0-28.8,23.4-52.2,52.2-52.2h1050.1
			c28.9,0,52.2,23.4,52.2,52.2C39019.6,23423.7,38996.3,23447.1,38967.4,23447.1"/>
		<path id="path658" class="st16" d="M38967.4,23358.7h-1050.1c-19.9,0-36.1,16.2-36.1,36.2c0,19.9,16.2,36.1,36.1,36.1h1050.1
			c19.9,0,36.1-16.2,36.1-36.1C39003.5,23374.9,38987.3,23358.7,38967.4,23358.7z M38967.4,23463.2h-1050.1
			c-37.6,0-68.3-30.7-68.3-68.3c0-37.7,30.7-68.4,68.3-68.4h1050.1c37.7,0,68.3,30.7,68.3,68.4
			C39035.7,23432.5,39005.1,23463.2,38967.4,23463.2"/>
		<path id="path660" class="st16" d="M38367.8,23328.1h484.1v-50.9c0-28.7-23.2-51.9-51.8-51.9h-380.4c-28.6,0-51.9,23.2-51.9,51.9
			L38367.8,23328.1z M38335.6,23277.2c0-46.4,37.8-84,84.1-84h380.4c46.3,0,84,37.6,84,84v83h-548.5V23277.2"/>
		<path id="path662" class="st16" d="M38751.3,23213.6h-281.4c-2.4,0-4.3-2-4.3-4.4s1.9-4.3,4.3-4.3h281.4c2.4,0,4.3,1.9,4.3,4.3
			S38753.7,23213.6,38751.3,23213.6"/>
		<path id="path664" class="st16" d="M38746.9,23036.6h-275.5c-2.4,0-4.4-1.9-4.4-6.7c0,0,2-2,4.4-2h275.5c2.4,0,4.4,4.4,4.4,4.4
			C38751.3,23034.7,38749.3,23036.6,38746.9,23036.6"/>
		<path id="path666" class="st16" d="M38793.4,22904.6h-369.9c-2.4,0-4.3-1.9-4.3-6.7c0,0,1.9-2,4.3-2h369.9c2.4,0,4.3,4.4,4.3,4.4
			C38797.7,22902.7,38795.8,22904.6,38793.4,22904.6"/>
		<path id="path668" class="st16" d="M38791.9,22800.2h-369.8c-2.4,0-4.4-1.9-4.4-6.8c0,0,2-1.9,4.4-1.9h369.8
			c2.4,0,4.4,4.3,4.4,4.3C38796.3,22798.3,38794.3,22800.2,38791.9,22800.2"/>
		<path id="path670" class="st16" d="M38717.9,22639.2h-219c-2.4,0-4.3-1.9-4.3-4.3c0-2.5,1.9-4.4,4.3-4.4h219
			c2.4,0,4.4,1.9,4.4,4.4C38722.3,22637.3,38720.3,22639.2,38717.9,22639.2"/>
		<path id="path672" class="st17" d="M37727.3,21112.1h402.5v504.8h-402.5V21112.1"/>
		<path id="path674" class="st16" d="M37743.4,21600.9h370.3v-472.7h-370.3V21600.9z M37711.2,21096.1h434.6v536.9h-434.6V21096.1"
			/>
		<path id="path676" class="st16" d="M38207,21534.4v-336.2c0-2.4,2-4.3,4.4-4.3s4.3,1.9,4.3,4.3v338.6c0,0-1.9,1.9-4.3,1.9
			C38209,21538.7,38207,21534.4,38207,21534.4"/>
		<path id="path678" class="st16" d="M38295.1,21515.2c-2.4,0-4.3-2-4.3-4.4v-292.5c0,0,1.9-1.9,4.3-1.9c2.4,0,4.4,4.3,4.4,4.3
			v290.1C38299.5,21513.2,38297.5,21515.2,38295.1,21515.2"/>
		<path id="path680" class="st16" d="M38402.5,21468c-2.4,0-4.4-1.9-4.4-4.3v-195.8c0-2.5,2-4.4,4.4-4.4s4.3,1.9,4.3,4.4v195.8
			C38406.8,21466.1,38404.9,21468,38402.5,21468"/>
		<path id="path682" class="st17" d="M37947,22092.8v-590l219.8,218.3h617.9v734.8h-417.8L37947,22092.8"/>
		<path id="path684" class="st16" d="M38768.6,21737.1h-601.8c-4.3,0-8.3-1.6-11.3-4.6l-192.4-191.1v544l409.8,354.4h395.7V21737.1z
			 M38784.6,22472H38367c-3.9,0-7.6-1.4-10.5-3.9l-420-363.1c-3.5-3-5.6-7.6-5.6-12.2v-590c0-6.6,3.9-12.4,10-14.9
			c1.9-0.8,4.1-1.2,6.1-1.2c4.2,0,8.3,1.6,11.3,4.6l215.1,213.7h611.2c8.9,0,16.1,7.1,16.1,16v734.9
			C38800.7,22464.8,38793.5,22472,38784.6,22472"/>
		<path id="path686" class="st16" d="M38679.1,22396.6c0-6.8,2-13.1,5.6-18.4l45.5,45.6c-5.2,3.5-11.6,5.6-18.4,5.6
			C38693.7,22429.4,38679.1,22414.7,38679.1,22396.6"/>
		<path id="path688" class="st16" d="M38691.6,22370.9c5.6-4.4,12.6-7.1,20.2-7.1c18.1,0,32.8,14.7,32.8,32.8
			c0,7.6-2.7,14.6-7.1,20.2L38691.6,22370.9"/>
		<path id="path690" class="st16" d="M38376.7,22396.6c0-6.8,2-13.1,5.6-18.4l45.5,45.6c-5.2,3.5-11.6,5.6-18.4,5.6
			C38391.3,22429.4,38376.7,22414.7,38376.7,22396.6"/>
		<path id="path692" class="st16" d="M38389.2,22370.9c5.6-4.4,12.6-7.1,20.2-7.1c18.1,0,32.8,14.7,32.8,32.8
			c0,7.6-2.7,14.6-7.1,20.2L38389.2,22370.9"/>
		<path id="path694" class="st16" d="M38679.1,21793.9c0-6.8,2-13.1,5.6-18.3l45.5,45.5c-5.2,3.6-11.6,5.6-18.4,5.6
			C38693.7,21826.7,38679.1,21812.1,38679.1,21793.9"/>
		<path id="path696" class="st16" d="M38691.6,21768.3c5.6-4.4,12.6-7.1,20.2-7.1c18.1,0,32.8,14.6,32.8,32.7
			c0,7.7-2.7,14.7-7.1,20.2L38691.6,21768.3"/>
		<path id="path698" class="st16" d="M38167.8,21793.9c0-6.8,2.1-13.1,5.6-18.3l45.5,45.5c-5.2,3.6-11.5,5.6-18.3,5.6
			C38182.5,21826.7,38167.8,21812.1,38167.8,21793.9"/>
		<path id="path700" class="st16" d="M38180.4,21768.3c5.5-4.4,12.5-7.1,20.2-7.1c18.1,0,32.8,14.6,32.8,32.7
			c0,7.7-2.8,14.7-7.2,20.2L38180.4,21768.3"/>
		<path id="path702" class="st16" d="M37998.1,22061.5c0-6.8,2.1-13.1,5.6-18.3l45.5,45.5c-5.2,3.6-11.5,5.6-18.3,5.6
			C38012.8,22094.3,37998.1,22079.7,37998.1,22061.5"/>
		<path id="path704" class="st16" d="M38010.7,22035.9c5.6-4.4,12.5-7.1,20.2-7.1c18.1,0,32.8,14.6,32.8,32.7
			c0,7.7-2.8,14.7-7.2,20.2L38010.7,22035.9"/>
		<path id="path706" class="st16" d="M37673.3,19993.5c-10.2,10.1-26.4,11.7-37.6,2.2l-263.1-221.9c-11.8-10-13.3-27.9-3.4-39.7
			c10.1-11.9,28-13.4,39.8-3.4l262.5,221.4c-5-135.7-115.4-245.3-252.4-245.3h-101.3v3352.4h101.3c140.1,0,254.2-114.1,254.2-254.2
			V19993.5z M37250.1,19706.8h-177.7v3352.4h177.7V19706.8z M37004.7,19706.8h-171.4v3352.4h171.4V19706.8z M36765.6,19706.8h-76.6
			c-140.1,0-254.1,114.1-254.1,254.2v171.2l1-1.9l263-221.9c11.9-10,29.7-8.5,39.7,3.4c10.1,11.9,8.5,29.7-3.3,39.7l-263.1,222
			c-11.1,9.4-27.1,7.7-37.3-2.2v142.9l1-1.9l263-221.9c11.9-10,29.7-8.5,39.7,3.3c10.1,11.9,8.5,29.8-3.3,39.8l-263.1,221.9
			c-11.1,9.4-27.1,7.8-37.3-2.1v155.5l1-1.9l263-221.9c11.9-10,29.7-8.5,39.7,3.4c10.1,11.9,8.5,29.7-3.3,39.7l-263.1,222
			c-11.1,9.3-27.1,7.7-37.3-2.2v142.9l1-1.9l263-221.9c11.9-10,29.7-8.5,39.7,3.3c10.1,11.9,8.5,29.8-3.3,39.8l-263.1,221.9
			c-11.1,9.4-27.1,7.8-37.3-2.1v134.4l1-1.9l263-221.9c11.9-10.1,29.7-8.5,39.7,3.3c10.1,11.9,8.5,29.8-3.3,39.8l-263.1,221.9
			c-11.1,9.4-27.1,7.8-37.3-2.1v142.8l1-1.9l263-221.9c11.9-10,29.7-8.5,39.7,3.4c10.1,11.8,8.5,29.7-3.3,39.7l-263.1,221.9
			c-11.1,9.4-27.1,7.8-37.3-2.1v142.9l1-1.9l263-222c11.9-9.9,29.7-8.4,39.7,3.4c10.1,11.9,8.5,29.8-3.3,39.8l-263.1,221.9
			c-11.1,9.4-27.1,7.8-37.3-2.1v142.8l1-1.9l263-221.9c11.9-10,29.7-8.5,39.7,3.4c10.1,11.8,8.5,29.7-3.3,39.7l-263.1,221.9
			c-11.1,9.4-27.1,7.8-37.3-2.1v151.3l1-1.9l263-221.9c11.9-10,29.7-8.5,39.7,3.4c10.1,11.8,8.5,29.7-3.3,39.7l-263.1,221.9
			c-11.1,9.4-27.1,7.8-37.3-2.1v142.9l1-1.9l263-221.9c11.9-10,29.7-8.5,39.7,3.3c10.1,11.9,8.5,29.8-3.3,39.8l-263.1,221.9
			c-11.1,9.4-27.1,7.8-37.3-2.1v151.3l1-1.9l263-221.9c11.9-10,29.7-8.5,39.7,3.3c10.1,11.9,8.5,29.8-3.3,39.8l-263.1,221.9
			c-11.1,9.4-27.1,7.8-37.3-2.1v142.8l1-1.9l263-221.9c11.9-10,29.7-8.5,39.7,3.4c10.1,11.9,8.5,29.7-3.3,39.7l-263.1,222
			c-11.1,9.3-27.1,7.7-37.3-2.2v145l1-1.9l263-221.9c11.9-10,29.7-8.5,39.7,3.3c10.1,11.9,8.5,29.8-3.3,39.8l-263.1,221.9
			c-11.1,9.4-27.1,7.8-37.3-2.1v142.9l1-2l263-221.9c11.9-10,29.7-8.4,39.7,3.4c10.1,11.9,8.5,29.8-3.3,39.8l-263.1,221.9
			c-11.1,9.4-27.1,7.7-37.3-2.2v136.6l1-1.9l263-222c11.9-10,29.7-8.5,39.7,3.4c10.1,11.9,8.5,29.8-3.3,39.8l-263.1,221.9
			c-11.1,9.4-27.1,7.7-37.3-2.2v69.5c0,24.2,7.5,46,13.8,68.2c1.6-4.8,2.7-9.8,6.9-13.3l243.3-205.3c11.9-10,29.7-8.5,39.7,3.4
			c10.1,11.8,8.5,29.7-3.3,39.7l-243.4,205.3c-11.2,9.5-27.4,7.9-37.6-2.3c15,36.8,39.5,67.4,68.9,93.2c1.3-6,3.3-12,8.4-16.2
			l167.3-141.2c11.9-10,29.7-8.4,39.7,3.4c10.1,11.9,8.5,29.8-3.3,39.8l-167.4,141.1c-0.9,0.8-2.2,0.4-3.3,1.1
			c37.4,21.6,78.3,37.3,124.4,37.3h76.6L36765.6,19706.8z M37419.1,23125.8H36689c-176.9,0-320.8-143.9-320.8-320.8v-2844
			c0-177,143.9-320.8,320.8-320.8h730.1c177,0,320.8,143.8,320.8,320.8v2844C37739.9,22981.9,37596.1,23125.8,37419.1,23125.8"/>
		<path id="path708" class="st16" d="M37601.8,22919.6l-263-221.9c-11.9-10-13.4-27.9-3.4-39.7c10-11.9,27.9-13.4,39.8-3.4
			l263,221.9c11.9,10,13.4,27.9,3.4,39.8C37631.6,22928.1,37613.7,22929.6,37601.8,22919.6"/>
		<path id="path710" class="st16" d="M37601.8,22737.7l-263-221.9c-11.9-10-13.4-27.9-3.4-39.8s27.9-13.4,39.8-3.4l263,222
			c11.9,10,13.4,27.8,3.4,39.7C37631.6,22746.2,37613.7,22747.7,37601.8,22737.7"/>
		<path id="path712" class="st16" d="M37601.8,22562.1l-263-221.9c-11.9-10-13.4-27.9-3.4-39.8c10-11.8,27.9-13.4,39.8-3.4
			l263,221.9c11.9,10.1,13.4,28,3.4,39.8C37631.6,22570.6,37613.7,22572.1,37601.8,22562.1"/>
		<path id="path714" class="st16" d="M37601.8,22380.1l-263-221.9c-11.9-10-13.4-27.9-3.4-39.8c10-11.8,27.9-13.3,39.8-3.3
			l263,221.9c11.9,10,13.4,27.9,3.4,39.8C37631.6,22388.6,37613.7,22390.1,37601.8,22380.1"/>
		<path id="path716" class="st16" d="M37601.8,22196.1l-263-222c-11.9-10-13.4-27.8-3.4-39.7c10-11.9,27.9-13.4,39.8-3.4l263,221.9
			c11.9,10,13.4,27.9,3.4,39.8S37613.7,22206.1,37601.8,22196.1"/>
		<path id="path718" class="st16" d="M37601.8,22014.1l-263-221.9c-11.9-10-13.4-27.9-3.4-39.8c10-11.8,27.9-13.3,39.8-3.3
			l263,221.9c11.9,10,13.4,27.9,3.4,39.7C37631.6,22022.6,37613.7,22024.1,37601.8,22014.1"/>
		<path id="path720" class="st16" d="M37601.8,21823.7l-263-221.9c-11.9-10-13.4-27.9-3.4-39.8c10-11.8,27.9-13.3,39.8-3.3
			l263,221.9c11.9,10,13.4,27.9,3.4,39.7C37631.6,21832.2,37613.7,21833.7,37601.8,21823.7"/>
		<path id="path722" class="st16" d="M37601.8,21641.7l-263-221.9c-11.9-10-13.4-27.9-3.4-39.7c10-11.9,27.9-13.4,39.8-3.4
			l263,221.9c11.9,10,13.4,27.9,3.4,39.8C37631.6,21650.2,37613.7,21651.8,37601.8,21641.7"/>
		<path id="path724" class="st16" d="M37601.8,21451.3l-263-221.9c-11.9-10-13.4-27.9-3.4-39.7c10-11.9,27.9-13.4,39.8-3.4
			l263,221.9c11.9,10,13.4,27.9,3.4,39.8C37631.6,21459.8,37613.7,21461.3,37601.8,21451.3"/>
		<path id="path726" class="st16" d="M37601.8,21269.4l-263-221.9c-11.9-10-13.4-27.9-3.4-39.8c10-11.8,27.9-13.3,39.8-3.4l263,222
			c11.9,10,13.4,27.9,3.4,39.7C37631.6,21277.9,37613.7,21279.4,37601.8,21269.4"/>
		<path id="path728" class="st16" d="M37601.8,21087.4l-263-221.9c-11.9-10-13.4-27.9-3.4-39.7c10-11.9,27.9-13.4,39.8-3.4
			l263,221.9c11.9,10,13.4,27.9,3.4,39.8C37631.6,21095.9,37613.7,21097.4,37601.8,21087.4"/>
		<path id="path730" class="st16" d="M37601.8,20905.5l-263-221.9c-11.9-10-13.4-27.9-3.4-39.8c10-11.8,27.9-13.4,39.8-3.3
			l263,221.9c11.9,10,13.4,27.9,3.4,39.7C37631.6,20914,37613.7,20915.5,37601.8,20905.5"/>
		<path id="path732" class="st16" d="M37601.8,20732l-263-221.9c-11.9-10-13.4-27.9-3.4-39.8c10-11.8,27.9-13.3,39.8-3.3l263,221.9
			c11.9,10,13.4,27.9,3.4,39.7C37631.6,20740.5,37613.7,20742,37601.8,20732"/>
		<path id="path734" class="st16" d="M37601.8,20550.1l-263-222c-11.9-10-13.4-27.8-3.4-39.7c10-11.9,27.9-13.4,39.8-3.4l263,221.9
			c11.9,10,13.4,27.9,3.4,39.8C37631.6,20558.5,37613.7,20560.1,37601.8,20550.1"/>
		<path id="path736" class="st16" d="M37601.8,20355.4l-263-221.9c-11.9-10-13.4-27.9-3.4-39.8c10-11.8,27.9-13.3,39.8-3.3
			l263,221.9c11.9,10,13.4,27.9,3.4,39.7C37631.6,20363.9,37613.7,20365.4,37601.8,20355.4"/>
		<path id="path738" class="st16" d="M37601.8,20173.5l-263-222c-11.9-10-13.4-27.8-3.4-39.7c10-11.9,27.9-13.4,39.8-3.4l263,221.9
			c11.9,10,13.4,27.9,3.4,39.8S37613.7,20183.5,37601.8,20173.5"/>
		<path id="path740" class="st16" d="M37506.1,23020.8l-167.3-141.1c-11.9-10-13.4-27.9-3.4-39.8c10-11.8,27.9-13.4,39.8-3.4
			l167.3,141.2c11.9,10,13.4,27.9,3.4,39.8C37535.9,23029.3,37518,23030.9,37506.1,23020.8"/>
		<path id="path742" class="st16" d="M36487.5,19954.2c-11.8,10-29.7,8.5-39.7-3.3c-10-11.9-8.5-29.8,3.4-39.8l213.9-180.4
			c11.8-10,29.7-8.5,39.7,3.4c10,11.8,8.5,29.7-3.4,39.7L36487.5,19954.2"/>
		<path id="path744" class="st18" d="M35144.5,20868.8l-4307,2.5c0,0-35.1,278.1,37.6,278.1c7,0,14.9-2.6,23.9-8.1
			c78.9-48.4,160.2-66.4,235.9-66.4c170,0,311.3,91,331.5,131.4c177.4,354.6,95.7,1374.1,574.3,1374.1
			c478.5,0,259.8-929.8,519.6-1134.9c25.4-20.1,51.8-29.1,79.1-29.1c250.6,0,573.7,767.5,919,767.5c382.8,0,478.5-711,806.7-711
			c328.1,0,437.5,328.1,779.4,382.8L35144.5,20868.8"/>
		<path id="path746" class="st16" d="M30880.6,22856.8c-5.7,6.2-13.8,9.8-22.3,9.8s-16.5-3.5-22.3-9.7l-110.6-120.8
			c-11.2-12.3-10.4-31.5,1.8-42.7c5.8-5.3,13.1-7.9,20.5-7.9c8.1,0,16.2,3.3,22.2,9.8l88.3,96.4l78.5-86.3
			c11.1-12.3,30.2-13.1,42.6-2c12.4,11.3,13.2,30.3,2,42.7L30880.6,22856.8"/>
		<path id="path748" class="st16" d="M35478.5,20986.6c-12.3,11.2-31.4,10.4-42.7-1.8c-5.3-5.8-7.9-13.1-7.9-20.5
			c0-8.1,3.3-16.2,9.8-22.2l96.4-88.3l-86.3-78.5c-12.2-11.1-13.1-30.2-2-42.6c11.3-12.4,30.3-13.2,42.7-2l110.7,100.7
			c6.3,5.7,9.9,13.8,9.9,22.3s-3.6,16.5-9.8,22.3L35478.5,20986.6"/>
		<path id="path750" class="st16" d="M32046,22846.5c-8.3,0-15-6.7-15-15v-1947.7c0-8.3,6.7-15,15-15c8.4,0,15.1,6.7,15.1,15v1947.7
			C32061.1,22839.8,32054.4,22846.5,32046,22846.5"/>
		<path id="path752" class="st16" d="M33545.6,22846.5c-8.3,0-15.1-6.7-15.1-15v-1947.7c0-8.3,6.8-15,15.1-15
			c8.4,0,15.1,6.7,15.1,15v1947.7C33560.7,22839.8,33554,22846.5,33545.6,22846.5"/>
		<path id="path754" class="st16" d="M35146,22846.5c-8.4,0-15.1-6.7-15.1-15v-1947.7c0-8.3,6.7-15,15.1-15c8.4,0,15.1,6.7,15.1,15
			v1947.7C35161.1,22839.8,35154.4,22846.5,35146,22846.5"/>
		<path id="path756" class="st16" d="M30853.3,22791.1c-16.7,0-30.2-13.5-30.2-30.1v-2113.7c0-16.6,13.5-30.1,30.2-30.1
			s30.2,13.5,30.2,30.1V22761C30883.5,22777.6,30870,22791.1,30853.3,22791.1"/>
		<path id="path758" class="st16" d="M35533.5,20888.8h-4891.6c-16.8,0-30.2-13.5-30.2-30.1c0-16.7,13.4-30.2,30.2-30.2h4891.6
			c16.7,0,30.2,13.5,30.2,30.2C35563.7,20875.3,35550.2,20888.8,35533.5,20888.8"/>
		<path id="path760" class="st16" d="M32050.9,22689.8c-28.3,0-51.2-23-51.2-51.3s22.9-51.3,51.2-51.3c28.4,0,51.3,23,51.3,51.3
			S32079.3,22689.8,32050.9,22689.8"/>
		<path id="path762" class="st16" d="M32050.9,22601.4c-20.5,0-37,16.6-37,37.1s16.5,37.1,37,37.1s37.1-16.6,37.1-37.1
			S32071.4,22601.4,32050.9,22601.4z M32050.9,22704.1c-36.2,0-65.5-29.4-65.5-65.6s29.3-65.6,65.5-65.6s65.6,29.4,65.6,65.6
			S32087.1,22704.1,32050.9,22704.1"/>
		<path id="path764" class="st16" d="M33541.3,22252.2c-28.3,0-51.3-22.9-51.3-51.2c0-28.3,23-51.3,51.3-51.3s51.3,23,51.3,51.3
			S33569.6,22252.2,33541.3,22252.2"/>
		<path id="path766" class="st16" d="M33541.3,22164c-20.4,0-37,16.6-37,36.9c0,20.5,16.6,37.1,37,37.1c20.5,0,37-16.6,37-37.1
			C33578.3,22180.6,33561.8,22164,33541.3,22164z M33541.3,22266.5c-36.1,0-65.5-29.4-65.5-65.6c0-36,29.4-65.4,65.5-65.4
			c36.2,0,65.5,29.4,65.5,65.4C33606.8,22237.1,33577.5,22266.5,33541.3,22266.5"/>
		<path id="path768" class="st16" d="M35131.9,21915c-28.3,0-51.2-23-51.2-51.3s22.9-51.3,51.2-51.3s51.3,23,51.3,51.3
			S35160.2,21915,35131.9,21915"/>
		<path id="path770" class="st16" d="M35131.9,21826.7c-20.4,0-36.9,16.6-36.9,37s16.5,37,36.9,37c20.5,0,37.1-16.6,37.1-37
			S35152.4,21826.7,35131.9,21826.7z M35131.9,21929.2c-36,0-65.4-29.3-65.4-65.5c0-36.1,29.4-65.5,65.4-65.5
			c36.2,0,65.6,29.4,65.6,65.5C35197.5,21899.9,35168.1,21929.2,35131.9,21929.2"/>
		<path id="path772" class="st0" d="M19840.6,24219.3l106.7-29.5l314,1137.6l-106.6,29.4L19840.6,24219.3"/>
		<path id="path774" class="st0" d="M17889.1,24420.7l1001.6-624.1l58.5,93.9l-1001.6,624.1L17889.1,24420.7"/>
		<path id="path776" class="st5" d="M19654.6,24533.6c-597.5,0-1081.8-484.3-1081.8-1081.7c0-597.5,484.3-1081.8,1081.8-1081.8
			c597.4,0,1081.7,484.3,1081.7,1081.8C20736.3,24049.3,20252,24533.6,19654.6,24533.6"/>
		<path id="path778" class="st1" d="M19654.6,22443.8c-555.9,0-1008.1,452.2-1008.1,1008.1c0,555.7,452.2,1007.9,1008.1,1007.9
			c555.8,0,1008-452.2,1008-1007.9C20662.6,22896,20210.4,22443.8,19654.6,22443.8z M19654.6,24607.3
			c-637.1,0-1155.5-518.3-1155.5-1155.4c0-637.1,518.4-1155.5,1155.5-1155.5s1155.4,518.4,1155.4,1155.5
			C20810,24089,20291.7,24607.3,19654.6,24607.3"/>
		<path id="path780" class="st0" d="M19562.3,23279.8l190.6,36.9l436.4,749.8l-639.2-608.5L19562.3,23279.8"/>
		<path id="path782" class="st5" d="M20250.7,26205.4c-322.4,0-583.9-261.4-583.9-583.9s261.5-583.9,583.9-583.9
			c322.5,0,583.9,261.4,583.9,583.9S20573.2,26205.4,20250.7,26205.4"/>
		<path id="path784" class="st0" d="M20250.8,25077.4c-300,0-544.1,244.2-544.1,544.2c0,299.9,244.1,543.9,544.1,543.9
			s543.9-244,543.9-543.9C20794.7,25321.6,20550.8,25077.4,20250.8,25077.4z M20250.8,26245.2c-343.9,0-623.8-279.8-623.8-623.6
			c0-343.9,279.9-623.9,623.8-623.9s623.6,280,623.6,623.9C20874.4,25965.4,20594.7,26245.2,20250.8,26245.2"/>
		<path id="path786" class="st1" d="M19842.4,25568.3l476.1-17l64.1,72l-86.1,59.6L19842.4,25568.3"/>
		<path id="path788" class="st5" d="M17669.3,25154.4c-322.5,0-583.9-261.4-583.9-583.9s261.4-583.9,583.9-583.9
			s583.9,261.4,583.9,583.9S17991.8,25154.4,17669.3,25154.4"/>
		<path id="path790" class="st0" d="M17669.2,24026.4c-300,0-543.9,244.1-543.9,544.1s243.9,544.1,543.9,544.1
			s544.1-244.1,544.1-544.1S17969.2,24026.4,17669.2,24026.4z M17669.2,25194.3c-343.9,0-623.7-279.9-623.7-623.8
			s279.8-623.8,623.7-623.8c343.8,0,623.8,279.9,623.8,623.8S18013,25194.3,17669.2,25194.3"/>
		<path id="path792" class="st1" d="M17643.8,24675.6l-14.2-103.8l307.5-353.2l-200,432.3L17643.8,24675.6"/>
	</g>
</g>
</svg>
