<?xml version="1.0" encoding="utf-8"?>
<!-- Generator: Adobe Illustrator 25.4.1, SVG Export Plug-In . SVG Version: 6.00 Build 0)  -->
<svg version="1.1"
	 id="svg2" sodipodi:docname="vecteezy_tire-services-illustration-concept-on-white-background_16269552.eps" xmlns:inkscape="http://www.inkscape.org/namespaces/inkscape" xmlns:sodipodi="http://sodipodi.sourceforge.net/DTD/sodipodi-0.dtd" xmlns:svg="http://www.w3.org/2000/svg"
	 xmlns="http://www.w3.org/2000/svg" xmlns:xlink="http://www.w3.org/1999/xlink" x="0px" y="0px" viewBox="0 0 6240 4160"
	 style="enable-background:new 0 0 6240 4160;" xml:space="preserve">
<style type="text/css">
	.st0{fill:#FFFFFF;}
	.st1{fill:#404E51;}
	.st2{fill:#F3CE90;}
	.st3{fill:#F9880A;}
	.st4{fill:#F19A6D;}
	.st5{fill:#93493A;}
	.st6{fill:#081C3D;}
	.st7{fill:#4167AA;}
	.st8{fill:#577BBC;}
	.st9{fill:#243354;}
	.st10{fill:#EEEEEE;}
	.st11{fill:#D7E5FF;}
	.st12{fill:#1B263D;}
	.st13{fill:#D0D0D0;}
	.st14{fill:#A6B9DC;}
	.st15{fill:#EAF1FF;}
	.st16{fill:#AFC0DF;}
	.st17{fill:#9AB0D8;}
	.st18{fill:#F5B0A6;}
	.st19{fill:#F18A8B;}
	.st20{fill:#121212;}
	.st21{fill:#CA101B;}
	.st22{fill:#494949;}
	.st23{fill:#313131;}
	.st24{fill:#2C4DA2;}
	.st25{fill:#4C4C4C;}
	.st26{fill:#99B1DA;}
</style>
<sodipodi:namedview  bordercolor="#000000" borderopacity="0.25" id="namedview4" inkscape:deskcolor="#d1d1d1" inkscape:pagecheckerboard="0" inkscape:pageopacity="0.0" inkscape:showpageshadow="2" pagecolor="#ffffff">
	</sodipodi:namedview>
<g id="g8" transform="matrix(1.3333333,0,0,-1.3333333,0,4160)" inkscape:groupmode="layer" inkscape:label="ink_ext_XXXXXX">
	<g id="g10" transform="scale(0.1)">
		<path id="path12" class="st0" d="M46800,0H0v31200h46800V0 M28823.2,9751.4c-201.3-956-656.1-2498.4-1140.2-3551.8l2546.2,27.3
			c988.9,2147.1,1417.3,3584.3,1335.1,4609c428.1,502.4,700.4,1141.6,742.5,1842.8c177.9,17.6,275,27.2,275,27.2l5384.7,316
			c64.5-25.1,135.1-36.2,209.5-36.2c554,0,1317.9,614.3,1317.9,614.3s-329.5,3284.3-1619.6,3914.9c0,0-1563.9,1411.9-1758.9,1628.3
			c-194.9,216.4-2877.8,3225.9-3418.7,3513.1c-467.8,248.4-1799.6,701.7-4914.7,701.7c-486.9,0-1017.4-11.1-1595-35.7
			c-4272.7-182.5-5781.9-88.8-6472.6-1131.9c-690.6-1043-2025.2-3149.1-2564.8-3271.9c0,0-585.7-69.5-1397.9-219.6l46.6,622.8
			c16.2,222.5-14.7,445.8-90.5,655.6l-107,296l-1012.9,73.7l-148.7-277.4c-105.4-196.6-168.2-413.1-184.4-635.6l-27-361
			l-1161.9,2272.6L11876,23673c305.8,475.9,363.4,1093.6,87.3,1633.6c-154.9,303-391.1,537.4-668.4,690.2l-12.7-973.9
			c-2-146.4-121.3-263.8-267.2-263.8c-1.2,0-2.4,0-3.7,0.1l-1140.7,14.9c-147.6,2-265.7,123.2-263.7,270.8l11.8,899.3
			c-707.6-449.4-969.6-1371.9-580.4-2133.1c276.1-540,810.5-855,1375.4-885.8l1189.9-2327.4l1284-2511.6l56-109.4
			c-991.9-359.1-1814.8-829.9-1988.8-1427l101.5-176.3c0,0-341.9-384.7-416.8-662.5c-74.8-277.8-132.4-2012.7,2.4-2756.7
			c125.1-690.3,62.8-1195.5,1232.3-1195.5c90.9,0,189.1,3.1,295.5,9.3l0,0c0,0,133.6-46.2,377.7-86c-15.2-145.2-18.9-293.7-10-444.3
			c84.5-1439.3,1278.2-2550,2701.5-2550c53.5,0,107.2,1.5,161.2,4.7c1429.2,83.9,2534.4,1261.4,2549.9,2671.5
			c196.2-8.3,378-13,539.7-13c159.2,0,298.8,4.6,413.4,14.9c21.3,1.9,46.8,4.3,76.6,7.1c46.9-1,98.6-1.5,154.9-1.5
			c965.7,0,3278.3,137.3,5611.1,294.6l144.8-1292.3c742.1,82.9,1526.8,125.3,2223.6,129.7
			C27582.2,10095.4,28172.7,9823.9,28823.2,9751.4"/>
		<path id="path14" class="st1" d="M10670.8,4460.3C15004.9,3427.5,31223.1,2683.2,38184.1,6166
			c1235.9,618.3,2160.5,1586,2797,2745.1H5541.5C6706.3,6449.2,8911.7,4879.5,10670.8,4460.3"/>
		<path id="path16" class="st2" d="M15539.9,16506.6L14350,18834l-1284.1,2511.6L11876,23673c305.8,475.9,363.4,1093.6,87.3,1633.6
			c-154.9,303-391.1,537.4-668.4,690.2l-12.7-973.9c-2-147.6-123.3-265.7-270.9-263.7l-1140.7,14.9
			c-147.6,2-265.7,123.2-263.7,270.8l11.8,899.3c-707.6-449.4-969.6-1371.9-580.4-2133.1c276.1-540,810.5-855,1375.4-885.8
			l1189.9-2327.4l1284-2511.6l1189.9-2327.4c-305.8-475.9-363.3-1093.5-87.3-1633.5c155-303.1,391.2-537.5,668.4-690.3l12.8,973.9
			c2,147.6,123.3,265.7,270.8,263.8l1140.8-15c147.6-2,265.7-123.2,263.7-270.9l-11.8-899.2c707.5,449.4,969.6,1371.9,580.4,2133.2
			C16639.2,16160.8,16104.7,16475.8,15539.9,16506.6"/>
		<path id="path18" class="st3" d="M11458.8,23033.5c-46.3,90.4-156.9,126.2-247.3,80c-90.4-46.1-126.3-156.9-80-247.3
			l3257.3-6371.2c46.2-90.3,156.9-126.2,247.3-80c32.5,16.6,57.9,41.6,75,70.9c30.5,52.3,34.5,118.5,5,176.4L11458.8,23033.5"/>
		<path id="path20" class="st3" d="M10656.6,24171c-149.2-76.3-208.4-259.1-132.1-408.3c76.3-149.2,259.1-208.3,408.3-132
			s208.3,259.1,132,408.3C10988.6,24188.2,10805.8,24247.3,10656.6,24171"/>
		<path id="path24" class="st4" d="M14960.8,15840.9c-149.2-76.3-208.3-259.1-132-408.3s259.1-208.3,408.3-132
			c149.2,76.2,208.3,259,132,408.2S15110,15917.2,14960.8,15840.9"/>
		<path id="path26" class="st5" d="M15168.7,15882.1c-12.5,2.5-24.5-5.4-27-18.1l-119-600.3c-2.5-12.5,5.6-24.5,18.1-27
			c9.8-2,19.5,2.7,24.3,11c1.2,2.1,2.2,4.5,2.7,7.1l119,600.4C15189.3,15867.6,15181.1,15879.7,15168.7,15882.1"/>
		<path id="path28" class="st2" d="M15422.7,27600l-376.1-1281.8l247.4-486.8l402-29.2l315.3,445.8l-186.6,1322.8L15422.7,27600"/>
		<path id="path30" class="st2" d="M14895.8,20246.5l385.8-28.1l421.6,5793.4l-385.9,28.1L14895.8,20246.5"/>
		<path id="path32" class="st3" d="M15999.5,20462.5l-1778.6,129.4c-15,1.1-28.1-10.2-29.1-25.1l-27.7-379.9
			c-1.1-14.9,10.3-28,25.2-29.1l1778.6-129.4c14.9-1.1,28,10.3,29.1,25.2l27.6,379.8
			C16025.7,20448.3,16014.4,20461.4,15999.5,20462.5"/>
		<path id="path34" class="st3" d="M15600.8,20273.3l-1012.9,73.7l-148.7-277.4c-105.4-196.6-168.2-413.1-184.4-635.6l-196.8-2630.4
			c-19.4-259.8,175.7-485.9,435.5-504.8l604.1-44c259-18.8,484.4,175.6,503.8,434.6l196.9,2632.3c16.2,222.5-14.7,445.8-90.5,655.6
			L15600.8,20273.3"/>
		<path id="path36" class="st2" d="M35556.2,10952.9l-592.8-482.8l-592.9,482.8l592.9,482.7L35556.2,10952.9z M36020,13132.8
			l-1056.6-860.5l-1056.7,860.5l-409.8-503.1l952.7-775.7l-952.7-775.7v-250.8l952.7-775.8l-952.7-775.7l409.8-503.1l1056.7,860.4
			l1056.6-860.4l409.7,503.1l-952.6,775.7l952.6,775.8v250.8l-952.6,775.7l952.6,775.7L36020,13132.8"/>
		<path id="path38" class="st3" d="M36829.4,9402.9h-3723.1c-24.5,0-44.3-19.8-44.3-44.3v-651.8h3811.7v651.8
			C36873.7,9383.1,36853.9,9402.9,36829.4,9402.9"/>
		<path id="path40" class="st3" d="M33386.4,12579.4H36698v716.3h-3311.6V12579.4"/>
		<path id="path42" class="st6" d="M38517.1,15490.7c-458.7,246.5-2822.6,1508.9-2962.9,1569c-140.2,60.2-8075.9-986.7-8075.9-986.7
			l-7226.6-1483.6L16589.6,15844l-3724.4-594.6l-695.6-3481.2c0,0,534.9-185,1420.4-133.1c422.1,24.8,1401.9-57.5,2429.6-139.7
			c1128.2-90.3,2314.2-180.7,2883.4-129.4c1087.9,98.1,13678.8,1339.9,13678.8,1339.9l5586.3,327.9l-27.9,145
			C38140.2,13178.8,38975.9,15244.2,38517.1,15490.7"/>
		<path id="path44" class="st7" d="M31855.6,13969.7l70.1-645c2116.6,229.8,5331.7,574.9,5513.8,584l-7,324.2l46.2,321
			C37424.3,14561.3,37374.4,14568.9,31855.6,13969.7"/>
		<path id="path46" class="st8" d="M37874.3,17514.9c0,0-1563.9,1411.9-1758.9,1628.3c-194.9,216.4-2877.8,3225.9-3418.7,3513.1
			s-2237.1,848.4-6509.7,666c-4272.7-182.5-5781.9-88.8-6472.6-1131.9c-690.6-1043-2025.2-3149.1-2564.8-3271.9
			c0,0-5701.8-676.5-6194.9-2368.6l101.5-176.3c0,0-341.9-384.7-416.8-662.5c-74.8-277.8-132.4-2012.7,2.4-2756.7
			c134.8-743.9,51.9-1272.8,1527.8-1186.2c295.1,17.3,779,2643.1,2310.9,2938.1c1532,295,2592.4-303.5,2986.4-804.4
			c393.9-500.9,659.5-2308.1,1217.8-2503.1c558.2-195.1,12351.9,725,12351.9,725s530.2-105.5,928.3,874.8
			c398.2,980.3,920.9,2568.1,2717,2620.1c2297.3,66.5,2636.3-1827.4,3082.3-2439.2s1729.7,420.5,1729.7,420.5
			S39164.4,16884.3,37874.3,17514.9"/>
		<path id="path48" class="st7" d="M18524.5,12574.1c89.3-223.3,649.3-894.6,831.1-1109.6c2391.6,39.4,10193.7,635.7,11490.7,735.8
			c156.9,162.5,276.3,357.2,333.3,592.7c330,1363.6,1090.1,2387.9,1746,2859.3l-15745.7-742
			C18077.3,14370.6,18417.7,12841.3,18524.5,12574.1"/>
		<path id="path50" class="st9" d="M15082.6,14100.7c-1493.4-87.7-2633-1369.4-2545.3-2862.8
			c87.6-1493.4,1369.3-2632.9,2862.7-2545.3c1493.4,87.7,2633,1369.4,2545.3,2862.8C17857.7,13048.8,16576,14188.3,15082.6,14100.7"
			/>
		<path id="path52" class="st8" d="M15116.1,13460.3c-1160.1-68.1-2045.4-1063.8-1977.3-2223.9
			c68.1-1160.1,1063.8-2045.4,2223.9-1977.3c1160.1,68.1,2045.3,1063.8,1977.3,2223.9
			C17271.8,12643.1,16276.2,13528.4,15116.1,13460.3"/>
		<path id="path54" class="st9" d="M15151.3,12930.3c-847-49.7-1493.3-776.7-1443.6-1623.7c49.7-847,776.6-1493.4,1623.6-1443.6
			c847.1,49.7,1493.4,776.6,1443.7,1623.6C16725.3,12333.7,15998.3,12980,15151.3,12930.3"/>
		<path id="path56" class="st10" d="M15326.8,9941.3c-802.6-47.1-1493.7,567.4-1540.8,1369.8
			c-47.1,802.6,567.4,1493.8,1369.9,1540.9c802.5,47.1,1493.6-567.4,1540.7-1370C16743.7,10679.6,16129.2,9988.4,15326.8,9941.3
			 M15146.7,13008.6c-888.8-52.2-1569.5-817.8-1517.3-1706.7c52.1-888.8,817.8-1569.4,1706.6-1517.2s1569.4,817.7,1517.2,1706.5
			C16801.1,12380,16035.6,13060.8,15146.7,13008.6"/>
		<path id="path58" class="st11" d="M15201.9,12067.2c-370.3-21.7-652.9-339.6-631.2-709.9c21.8-370.4,339.6-653,710-631.2
			c370.3,21.7,652.9,339.6,631.2,709.9C15890.1,11806.3,15572.3,12088.9,15201.9,12067.2"/>
		<path id="path60" class="st12" d="M15196,12284.9c-84.2,0-154.8,65.7-159.8,150.8c-5.1,88.3,62.2,164.1,150.5,169.2
			c3.2,0.2,6.4,0.3,9.6,0.3c84.1,0,154.7-65.6,159.7-150.8c5.2-88.3-62.2-164.1-150.5-169.2
			C15202.3,12285,15199.2,12284.9,15196,12284.9"/>
		<path id="path62" class="st12" d="M15318.9,10190c-84.1,0-154.7,65.7-159.7,150.8c-5.2,88.3,62.2,164.1,150.5,169.2
			c3.2,0.2,6.4,0.3,9.5,0.3c84.2,0,154.8-65.7,159.8-150.8c5.2-88.3-62.2-164.1-150.5-169.2
			C15325.3,10190.1,15322.1,10190,15318.9,10190"/>
		<path id="path64" class="st12" d="M16317.2,11368.4c-84.1,0-154.7,65.7-159.7,150.8c-5.2,88.3,62.2,164.1,150.5,169.3
			c3.2,0.1,6.3,0.2,9.5,0.2c84.2,0,154.7-65.6,159.8-150.8c5.1-88.3-62.2-164-150.6-169.2
			C16323.6,11368.5,16320.4,11368.4,16317.2,11368.4"/>
		<path id="path66" class="st12" d="M15918,12032.6c-84.1,0-154.7,65.7-159.7,150.8c-5.2,88.3,62.2,164.1,150.5,169.2
			c3.2,0.2,6.4,0.3,9.6,0.3c84.1,0,154.7-65.7,159.7-150.8c5.2-88.3-62.2-164.1-150.5-169.2
			C15924.4,12032.7,15921.2,12032.6,15918,12032.6"/>
		<path id="path68" class="st12" d="M16058.8,10528.1c-84.2,0-154.8,65.7-159.8,150.8c-5.2,88.3,62.2,164.1,150.5,169.3
			c3.2,0.1,6.4,0.2,9.6,0.2c84.1,0,154.7-65.7,159.7-150.8c5.2-88.3-62.2-164-150.5-169.2
			C16065.1,10528.2,16061.9,10528.1,16058.8,10528.1"/>
		<path id="path70" class="st12" d="M14157,11241.6c-84.1,0-154.7,65.7-159.7,150.8c-5.2,88.3,62.2,164.1,150.5,169.3
			c3.2,0.1,6.4,0.2,9.5,0.2c84.2,0,154.8-65.6,159.8-150.8c5.2-88.3-62.2-164-150.5-169.2
			C14163.4,11241.7,14160.2,11241.6,14157,11241.6"/>
		<path id="path72" class="st12" d="M14475.8,11947.9c-84.2,0-154.8,65.7-159.8,150.8c-5.2,88.3,62.2,164.1,150.5,169.3
			c3.2,0.2,6.4,0.3,9.6,0.3c84.1,0,154.7-65.7,159.7-150.8c5.2-88.3-62.2-164.1-150.5-169.3
			C14482.1,11948,14478.9,11947.9,14475.8,11947.9"/>
		<path id="path74" class="st12" d="M14512,10437.3c-84.1,0-154.7,65.7-159.7,150.8c-5.2,88.3,62.2,164.1,150.5,169.3
			c3.2,0.2,6.4,0.2,9.5,0.2c84.2,0,154.8-65.6,159.8-150.7c5.2-88.4-62.2-164.1-150.5-169.3
			C14518.4,10437.4,14515.2,10437.3,14512,10437.3"/>
		<path id="path76" class="st6" d="M10946.2,15840.2c-2.2,37.7-34.5,66.4-72.1,64.2c-37.7-2.3-66.4-34.5-64.1-72.2l99.3-1691.6
			c2.2-37.6,34.4-66.3,72.1-64.1c37.6,2.2,66.3,34.5,64.1,72.1L10946.2,15840.2"/>
		<path id="path78" class="st13" d="M10624.4,15741.6c0,0-225.9-81.6-206.4-849.4c19.4-767.9,294.4-649.2,294.4-649.2l-11.4,1212.6
			L10624.4,15741.6"/>
		<path id="path80" class="st11" d="M10624.4,15741.6l88-1498.6l204.4,12l-88,1498.6L10624.4,15741.6"/>
		<path id="path82" class="st11" d="M12347.3,15629.1c-134.8-7.9-237.6-123.6-229.7-258.4c7.9-134.8,123.6-237.7,258.4-229.8
			c134.8,8,237.7,123.7,229.8,258.5C12597.8,15534.2,12482.1,15637,12347.3,15629.1"/>
		<path id="path84" class="st6" d="M12374,15175c-115.8-6.8-215.5,81.9-222.3,197.7s81.8,215.6,197.6,222.4
			c115.9,6.8,215.6-81.9,222.4-197.7C12578.5,15281.6,12489.8,15181.8,12374,15175z M12345.3,15663.2
			c-153.3-9-270.8-141.1-261.8-294.5c9.1-153.4,141.2-270.8,294.5-261.8s270.8,141.1,261.8,294.5
			C12630.8,15554.7,12498.7,15672.2,12345.3,15663.2"/>
		<path id="path86" class="st6" d="M11700.4,12891.2l-1273.8-74.7c-15-0.9-26.5-13.9-25.7-28.9l34.2-581.2
			c0.8-15,13.8-26.6,28.8-25.7l1273.8,74.8c15,0.9,26.5,13.9,25.6,28.9l-34.1,581.2
			C11728.3,12880.6,11715.3,12892.1,11700.4,12891.2"/>
		<path id="path88" class="st6" d="M28505.9,13163.7c-181.7-207.7-433.4-331-708.9-347.2l-7986.4-468.8
			c-325.3-19.1-645.5,100.6-878.6,328.3c-233,227.8-360.1,545.2-348.5,870.9l150.8,4236c6.6,184.3,60,366.3,154.4,526.3
			c564.8,957.7,2192.3,3366.3,2781.1,3684.3c285.1,154,1563.2,301.6,3696.1,426.8c736.6,43.2,1426.4,74.9,1875.2,93.8
			c358.2,15.1,671.3-252.2,712.8-608.6l565.9-4848.9l235.9-3144C28776.3,13637.4,28687.6,13371.4,28505.9,13163.7 M28553.8,17059.9
			l-565.9,4849.6c-43.7,374-372.3,654.5-748.3,638.7c-448.9-19-1138.8-50.6-1875.7-93.8c-1490.8-87.6-3344.6-233.4-3710.3-430.8
			c-594.3-321.1-2228.1-2737-2794.3-3697.1c-97.3-164.9-152.3-352.4-159.1-542.4l-150.8-4236c-11.9-335.3,118.8-662,358.8-896.5
			c239.9-234.4,569.6-357.6,904.4-337.9l7986.4,468.8c284.6,16.7,544.8,144.1,732.6,358.8c187.7,214.6,279.4,489.4,258.1,773.8
			L28553.8,17059.9"/>
		<path id="path90" class="st6" d="M17441.5,18389.5l-677.3,485.5l-19.9-27.8l677.4-485.4c270-193.6,404.7-517.6,351.4-845.7
			l-86.5-531c-36.4-223.9-219.4-394.1-445-413.8c-887.7-77.9-3844-336.7-4619.1-396.3c-906.1-70.1-1212-28.1-1556.5,212.5
			l-19.6-27.9c317.6-221.8,600.4-278.6,1322.9-236.2c79.6,4.7,164.8,10.6,255.9,17.6c775.2,59.6,3731.7,318.4,4619.3,396.3
			c241.2,21.1,436.9,203,475.8,442.3l86.5,531C17862.2,17851.5,17722.2,18188.3,17441.5,18389.5"/>
		<path id="path92" class="st11" d="M27578,21506.7c-53.1,385.4-395.2,664.1-783.4,638.3l-4342.3-288.7
			c-515.5-34.2-980.6-321.4-1242.1-766.9L20050.9,19115c-203.1-345.9,59.5-778.9,460.1-758.7l6649.4,336.1
			c430,21.8,749.2,407.1,690.4,833.7L27578,21506.7"/>
		<path id="path94" class="st11" d="M32099.5,21573.2c-847.9,518.4-2110.4,633.1-2969.6,643.5c-499.6,6.1-888.3-431.6-824.8-927.2
			l234.3-1831.1c64.1-501,505.2-866.9,1009.5-837.3l3729.3,218.9c517.6,30.4,804.6,615.8,508.4,1041.4
			C33391.2,20449.6,32812.4,21137.5,32099.5,21573.2"/>
		<path id="path96" class="st14" d="M29758.2,18633.3l682.7,40.1l0,0L29758.2,18633.3 M32102.4,21571.5c-1,0.6-1.9,1.1-2.9,1.7
			C32100.5,21572.6,32101.4,21572.1,32102.4,21571.5 M32099.5,21573.2c-1.6,1-3.2,2-4.8,3
			C32096.3,21575.2,32097.9,21574.2,32099.5,21573.2 M32092.3,21577.6c-0.9,0.6-1.6,1-2.5,1.5
			C32090.7,21578.6,32091.5,21578.1,32092.3,21577.6 M32086.8,21580.9c-0.6,0.4-1.2,0.8-1.9,1.2
			C32085.6,21581.7,32086.2,21581.3,32086.8,21580.9 M32081.4,21584.2c-0.4,0.3-0.9,0.5-1.3,0.8
			C32080.5,21584.7,32081,21584.5,32081.4,21584.2 M32076,21587.4c-0.2,0.2-0.5,0.3-0.7,0.5
			C32075.5,21587.7,32075.8,21587.6,32076,21587.4 M32070.7,21590.6c-0.1,0-0.1,0-0.2,0.1
			C32070.6,21590.7,32070.7,21590.6,32070.7,21590.6"/>
		<path id="path98" class="st15" d="M29491.9,18619.4c-352.9,0-668.2,193.1-835,486.9c332.6,284.3,740.3,713.1,884.8,1201.1
			c155.4,524.7,710.2,1261.5,1129.9,1767.8c499.3-93.5,994.2-244.1,1398.9-484.5c0.1-0.1,0.1-0.1,0.2-0.1c1.6-0.9,3.1-1.8,4.6-2.7
			c0.2-0.2,0.5-0.3,0.7-0.5c1.4-0.8,2.8-1.6,4.1-2.4c0.4-0.3,0.9-0.5,1.3-0.8c1.2-0.7,2.4-1.4,3.5-2.1c0.7-0.4,1.3-0.8,1.9-1.2
			c1-0.5,2-1.2,3-1.8c0.9-0.5,1.6-0.9,2.5-1.5c0.8-0.5,1.6-0.9,2.4-1.4c1.6-1,3.2-2,4.8-3l0,0l0,0c1-0.6,1.9-1.1,2.9-1.7
			c112.4-68.9,220.2-145.8,325.8-225.8c-323.6-231.7-673.6-491.1-1015-761.2c-1014.5-802.7-264.1-1482.6-972.3-1911.1l-682.7-40.1
			l-209.3-12.2C29529.8,18619.9,29510.9,18619.4,29491.9,18619.4"/>
		<path id="path100" class="st9" d="M33777,19243.9c-95.9-197.4-283.9-323-502.8-335.8l-3729.3-218.9
			c-466.5-27.4-878.5,314.3-937.8,777.9l-234.3,1831c-26.9,210,32.6,415.2,167.5,578c132.9,160.1,327.6,259,534.3,271.2
			c18,1,36.1,1.4,54.5,1.2c883.5-10.7,2109.9-129.2,2934.8-633.5c723.1-442,1305.5-1153.5,1666.7-1672.6
			C33854.9,19663.8,33872.2,19440,33777,19243.9L33777,19243.9z M32135.1,21631.4c-851.3,520.4-2103.7,642.6-3004.4,653.5
			c-270.3,3.4-524.9-116-695.4-321.8c-159.4-192.1-229.6-434.4-197.9-682.3l234.3-1831c68.4-534.5,543.4-928.4,1081.2-896.9
			l3729.3,219c269,15.7,499.8,169.9,617.5,412.3c117.2,241.3,95.8,516.4-57.1,736.2
			C33473.9,20450.2,32878.4,21177.1,32135.1,21631.4"/>
		<path id="path102" class="st6" d="M18353.9,13046.7c-291.5,930.3-551.3,1331-1158.5,1786.4c-986.6,740.3-2106.7,809.6-3424.4,212
			c-1720.8-780.5-1776.9-2110.4-1777.3-2123.7l34.1-1c0.4,13.1,55.7,1321.9,1757.3,2093.7c1305.3,591.9,2413.9,523.7,3389.9-208.2
			c600.2-450.4,857.4-847.2,1146.4-1769.4c280.3-894.8,514.1-937.4,523.9-938.7l5.1,33.7
			C18848.1,12131.9,18624.8,12182,18353.9,13046.7"/>
		<path id="path104" class="st6" d="M35700.2,16196.3c-1580.5,307.1-2821.3-244.8-3792-1687c-416.1-618.1-590.6-1219.3-706-1617.2
			c-70.9-244.4-122.2-421-192.8-482.9l22.4-25.7c78.2,68.5,130.6,249.2,203.2,499.1c114.8,395.8,288.4,993.9,701.6,1607.7
			c962.2,1429.5,2191,1976.5,3757.2,1672.5c1664-323.1,2212.6-1810.5,2392.9-2299.2c44.9-122,55.1-148,73.8-153l6.6,24.3l6.4,6.5
			c-8.6,8.6-31,69.5-54.9,133.9C37936.8,14368.6,37383.2,15869.5,35700.2,16196.3"/>
		<path id="path106" class="st6" d="M17668.2,16687.7l1.4-34.1c181.6,6.8,18184.1,678.8,19918.7,668l0.2,34
			C35853.2,17366.4,17849.9,16694.5,17668.2,16687.7"/>
		<path id="path108" class="st11" d="M19703.6,22174.1c-602.8-911.2-1681.1-2604.6-2305.7-3112.8c206.9-170.7,508.9-367,837.9-403.7
			c602-67.2,1862.5,2330.7,2088.9,2839.6C20500.9,21893,19955.3,22101,19703.6,22174.1"/>
		<path id="path110" class="st9" d="M19722.7,22239.6l-2.1,0.6c-18.1-37.1-39.7-72.4-64.7-105.5c24.3-16.3,76.7-40.8,76.7-40.8
			c162.1-51.6,452.1-166.2,535.5-345.8c32.1-69.2,30.3-142.3-5.8-223.2c-295.5-664.2-1456.2-2769-1990.7-2800.1
			c-9.6-0.6-19-0.4-28.2,0.6c-283.3,31.6-548.7,191.5-738.4,337.7l1.1,1c-27,0.4-31,38.7-57.1,42.9c-28.9-17.9-81.6-68.2-114.8-81.6
			l20.3-16.7c205.5-169.6,523.9-379.8,873.7-418.9c16.7-1.9,33.9-2.3,51.4-1.3l0,0c689.5,40.5,1942.2,2509.7,2107.5,2881
			c52.2,117.3,53.8,230.4,4.7,336.1C20280,22046.5,19924.6,22180.9,19722.7,22239.6"/>
		<path id="path112" class="st11" d="M30871.7,12700.8l-12090.8-709.7c-75.2-4.4-132.6-69-128.2-144.2
			c4.4-75.3,69-132.7,144.2-128.3l12090.8,709.8c75.2,4.4,132.6,69,128.2,144.2S30946.9,12705.3,30871.7,12700.8"/>
		<path id="path114" class="st11" d="M35316.8,17865.2c-2480.3,125.4-14746.2-456.1-14869.8-461.9l-1.6-0.1
			c-74.5-4.4-131.8-68-128.3-142.7c3.6-75.3,67.5-133.4,142.8-129.9c123.5,5.9,12376,586.8,14843.1,462c5.1-0.2,10.1-0.2,15.1,0.1
			c68.6,4,124.5,59.1,128.1,129.3C35450,17797.3,35392,17861.4,35316.8,17865.2"/>
		<path id="path116" class="st6" d="M21469.4,17547.6l-1051.5-61.7c-26.1,5.7-53.1,9.3-81.1,7.6c-28.1-1.6-54.4-8.3-79.8-17.1
			l-43.5-2.5l0.9-15.5c-99.5-53.1-164.9-160-157.8-280c9.6-164.4,150.7-289.9,315.1-280.2c164.4,9.6,289.9,150.7,280.2,315.1
			l843.5,49.5l73.6,90.8C21634.2,17434,21572.8,17553.7,21469.4,17547.6"/>
		<path id="path118" class="st16" d="M11936.5,16698.9c-81.5,0-158.5,49-190.3,129.3c-41.7,105.1,9.7,224.1,114.8,265.8
			c2356.4,934.5,4534.6,1231.3,4556.3,1234.2c9.3,1.2,18.4,1.8,27.5,1.8c101.9,0,188.7-74.9,202.4-177.8
			c14.9-112-63.8-214.9-175.9-229.9c-21.3-2.8-2152-293.8-4459.4-1208.9c-20.8-8.3-42.2-12.9-63.5-14.1
			C11944.4,16699,11940.4,16698.9,11936.5,16698.9"/>
		<path id="path120" class="st14" d="M20501.9,18320.3c-11.3,0-22.4,0.8-33.6,1.2c20.6,11.8,41.2,23.7,62.1,35.8l2984.4,150.9
			c-22.3-13-44.8-26.1-67.4-39.3l-2934.3-148.3C20509.3,18320.4,20505.6,18320.3,20501.9,18320.3"/>
		<path id="path122" class="st15" d="M20530.4,18357.3c796.8,461,1834.2,1085.8,2497.4,1579.7c1009.6,751.6,309,1352.3,479.5,1953.6
			L26492,22089c-801.9-622.2-1102.1-1010-1024.6-1578.7c109-800.2-558.5-1189.9-1952.6-2002.1L20530.4,18357.3"/>
		<path id="path124" class="st11" d="M39288.8,16330.3c-73.5,31.5-512.7,32.6-512.7,32.6l-175.5-64l41.5-248.5l123.8-387
			c235.5,13.8,474.4,27.8,688.8,40.4C39392.1,16042.5,39320.4,16316.8,39288.8,16330.3"/>
		<path id="path126" class="st6" d="M38765.9,15663.4l326.2-1020.4c0,0,337.2-553.7,449.2-170.7c63.8,218.4-3.5,781.8-86.6,1231.5
			C39240.3,15691.2,39001.4,15677.2,38765.9,15663.4"/>
		<path id="path128" class="st11" d="M38776.1,16362.9l-579.9,109.4c0,0,54.6-319.4,228.9-542.2
			c174.4-222.7,424.4-1122.1,471.6-1316.4c47.3-194.4,255.3-379.4,255.3-379.4l354,74.6c0,0-430.6,619.9-448.5,923.5
			C39039.7,15536.1,38630,16103.5,38776.1,16362.9"/>
		<path id="path130" class="st7" d="M39826.5,14650.3c-54.6,14.7-560-230-894.1-339.2c-334.1-109.3-535.8-31.5-535.8-31.5
			s-164-260.5-89.4-614.6c0,0,65.1-193.3,266.8-271.1c201.7-77.7,1255.5,288.8,1352.2,473.7S39881.1,14635.6,39826.5,14650.3"/>
		<path id="path132" class="st9" d="M27638.1,19003.1c-119.2-145.2-288.1-231.2-475.5-242.2l4-68.1l-9.7,67.8l-6649.3-336.1
			c-162.7-8.2-310.2,70-394.7,209.2c-84.4,139.3-85.6,306.3-3.2,446.8l1159.3,1974.4c250.4,426.4,694.4,700.5,1187.8,733.3
			l4347.6,289.1c348.3,20.4,658.3-234.3,706-579.9l272.8-1980.6C27808.9,19330.7,27757.3,19148.2,27638.1,19003.1L27638.1,19003.1z
			 M27645.6,21516c-57.3,415.7-430.3,722.1-855.5,697.1l-4342.3-288.7c-538.5-35.8-1023.2-335-1296.4-800.4l-1159.3-1974.4
			c-108.4-184.5-106.8-403.7,4.2-586.7c110.8-182.8,304.6-285.5,518.2-274.7l6649.4,336.1l6.7,0.4
			c222.5,13.1,431.4,119.4,572.9,291.8c141.6,172.3,205.3,398,174.9,618.9L27645.6,21516"/>
		<path id="path134" class="st6" d="M22380.8,21852.7l170.6-3364.9l142.9,7.2l-170.6,3365L22380.8,21852.7"/>
		<path id="path136" class="st7" d="M21134.3,19512.5c-313,74.2-609.6-46.1-662.3-268.7c-52.8-222.6,158.2-463.2,471.2-537.4
			c313.1-74.2,609.6,46.1,662.4,268.7C21658.3,19197.7,21447.3,19438.3,21134.3,19512.5"/>
		<path id="path138" class="st7" d="M19795.1,18561.5l141.8-248.8l1098.3,626l-141.8,248.8L19795.1,18561.5"/>
		<path id="path140" class="st17" d="M34679.5,15152c-579.8,0-1049.8-470-1049.8-1049.8s470-1049.8,1049.8-1049.8
			s1049.8,470,1049.8,1049.8S35259.3,15152,34679.5,15152"/>
		<path id="path142" class="st8" d="M34686.2,14712.7c-318.5,0-576.7-258.2-576.7-576.7s258.2-576.7,576.7-576.7
			s576.8,258.2,576.8,576.7S35004.7,14712.7,34686.2,14712.7"/>
		<path id="path144" class="st6" d="M34512.8,14994.3c-42.3,0-76.6-36.3-76.6-81.1s34.3-81.1,76.6-81.1s76.6,36.3,76.6,81.1
			S34555.1,14994.3,34512.8,14994.3"/>
		<path id="path146" class="st6" d="M35121,14872.7c-42.3,0-76.6-36.3-76.6-81.1s34.3-81.1,76.6-81.1s76.6,36.3,76.6,81.1
			S35163.3,14872.7,35121,14872.7"/>
		<path id="path148" class="st6" d="M35458.9,14381.6c-42.3,0-76.6-36.3-76.6-81.1s34.3-81.1,76.6-81.1s76.6,36.3,76.6,81.1
			S35501.2,14381.6,35458.9,14381.6"/>
		<path id="path150" class="st6" d="M35395.9,13768.8c-42.3,0-76.6-36.3-76.6-81.1s34.3-81.1,76.6-81.1s76.6,36.3,76.6,81.1
			S35438.2,13768.8,35395.9,13768.8"/>
		<path id="path152" class="st6" d="M34954.3,13403.9c-42.3,0-76.6-36.3-76.6-81.1s34.3-81.1,76.6-81.1s76.6,36.3,76.6,81.1
			S34996.6,13403.9,34954.3,13403.9"/>
		<path id="path154" class="st6" d="M34359.6,13448.9c-42.3,0-76.6-36.3-76.6-81.1s34.3-81.1,76.6-81.1s76.6,36.3,76.6,81.1
			S34401.9,13448.9,34359.6,13448.9"/>
		<path id="path156" class="st6" d="M33981.1,13782.3c-42.3,0-76.6-36.3-76.6-81.1c0-44.7,34.3-81.1,76.6-81.1s76.6,36.4,76.6,81.1
			C34057.7,13746,34023.4,13782.3,33981.1,13782.3"/>
		<path id="path158" class="st6" d="M33904.5,14323c-42.3,0-76.6-36.3-76.6-81.1s34.3-81.1,76.6-81.1s76.6,36.3,76.6,81.1
			S33946.8,14323,33904.5,14323"/>
		<path id="path160" class="st6" d="M34071.2,14769.1c-42.3,0-76.6-36.3-76.6-81.1s34.3-81.1,76.6-81.1s76.6,36.3,76.6,81.1
			S34113.5,14769.1,34071.2,14769.1"/>
		<path id="path162" class="st5" d="M34787,11914.7c0-38.6,11.7-74.4,31.8-104.1l258.4,258.3c-29.7,20.1-65.6,31.9-104.2,31.9
			C34870.3,12100.8,34787,12017.5,34787,11914.7"/>
		<path id="path164" class="st5" d="M34858.4,11769.2c31.7-25,71.1-40.5,114.6-40.5c102.8,0,186.1,83.3,186.1,186
			c0,43.5-15.5,83-40.5,114.6L34858.4,11769.2"/>
		<path id="path166" class="st5" d="M34787,10103.5c0-38.6,11.7-74.4,31.8-104.1l258.4,258.3c-29.7,20.1-65.6,31.9-104.2,31.9
			C34870.3,10289.6,34787,10206.2,34787,10103.5"/>
		<path id="path168" class="st5" d="M34858.4,9957.9c31.7-24.9,71.1-40.5,114.6-40.5c102.8,0,186.1,83.3,186.1,186.1
			c0,43.5-15.5,82.9-40.5,114.6L34858.4,9957.9"/>
		<path id="path170" class="st18" d="M28843.6,14871.5c-351.8,84.7-1210.1,1275.3-1766.2,2449.5l-1392.9-658.2
			c472.8-1001.2,1724.9-3329.9,3135.9-3329.9c1403.3,0,2058.2,816.5,2423.2,1427.8l-1507.2,820.4
			c-466.7-781.6-568.2-751.4-762.8-721.2C28935.1,14865.8,28892.9,14871.8,28843.6,14871.5"/>
		<path id="path172" class="st19" d="M26972.4,15614.6c161.9-61.5,990.7,171.6,990.7,171.6l-155.4,242.9
			C27807.7,16029.1,26810.5,15676.2,26972.4,15614.6"/>
		<path id="path174" class="st18" d="M17963.2,5741.8l1162.6-551.8l576,1433.9c0,0-941.9,424.4-1040.4,424.4
			S17982.9,6510.3,17963.2,5741.8"/>
		<path id="path176" class="st20" d="M25515.3,18600v-46l152.5-14.4l5.7,37.4l-89.1,54.6L25515.3,18600"/>
		<path id="path178" class="st20" d="M23102.1,18633.8l-46-40.2l-11.5-63.3l57.5-55.6l130.4,53.7l28.8,44.1l-71,88.2
			L23102.1,18633.8"/>
		<path id="path180" class="st21" d="M26273.8,18433.1c-675,230.2-1457.5,130.4-1457.5,130.4l-828.5,92.1
			c0,0-1434.8-169.6-1833.7-438.1c-295.7-199.1,26.1-1694.7,244.1-2532.2c86.5-332.4,175-825.8,142.1-1167.6l-125.1-1296.5
			l4434.3-56.8c0,0-176.8,2138.8-161.4,2392c0,0,767.1,46,1265.8,567.7c0,0-368.3,490.9-613.8,989.6
			C27094.7,17612.3,26948.9,18203,26273.8,18433.1"/>
		<path id="path182" class="st19" d="M25467.7,20055.6c-183.1,44.1-369.5-192.8-369.5-192.8l11.3-294c0,0,243.5-123.6,424.9-29.2
			C25715.7,19634.1,25650.7,20011.5,25467.7,20055.6"/>
		<path id="path184" class="st20" d="M25456.7,19929.5c-45.2,18.8-102.8,9-198.6-33.9c-3.9-1.7-5.6-6.3-3.9-10.3
			c1.8-3.9,6.4-5.6,10.3-3.9c90.2,40.4,145.9,50.5,186.2,33.7c31.8-13.3,55.7-43.7,75.3-95.7c46.8-124.1-55.4-184.3-59.8-186.8
			c-3.7-2.2-5-6.9-2.9-10.6c1.5-2.7,4.4-4.1,7.2-4c1.2,0.1,2.3,0.4,3.4,1c1.2,0.7,118.2,69.1,66.7,205.9
			C25519.4,19881.2,25492.7,19914.4,25456.7,19929.5"/>
		<path id="path186" class="st22" d="M25005.4,20949.3l200.5-213c0,0,73-786,118.5-512.7c45.4,273.3,50.7,578.7-54.5,710.9
			L25005.4,20949.3"/>
		<path id="path188" class="st18" d="M24521,19143.9l-649.2,403.6l88.9-986.2c754.2-195.9,1147.3,64.2,1147.3,64.2l-65,488.4
			L24521,19143.9"/>
		<path id="path190" class="st19" d="M24521,19143.9l-216.8,134.8l-131.1-3.8c270.3-369.5,768.3-346.7,893-334.6l-23.1,173.6
			L24521,19143.9"/>
		<path id="path192" class="st18" d="M25278.2,20799.8c0,0-221,629.6-1081.8,420.1c-10.4-2.5-20.7-5.2-30.8-8
			c-438.3-122.5-697.8-492.6-560.3-926.4l296-933.9c0,0,527.6-456.1,1100.2-295.8c572.6,160.4,409,784.8,349,1082.7
			C25290.4,20436.4,25339,20657.9,25278.2,20799.8"/>
		<path id="path194" class="st23" d="M23886.2,20768.9l-478.1-173.5l199.8-705.4l370.5-103.6c0,0-59.6,121.1-78.4,425.1
			C23881.1,20515.5,23886.2,20768.9,23886.2,20768.9"/>
		<path id="path196" class="st18" d="M23511.5,19934.3c-176.2-66.4-194.1-449-2.4-520.3s418,81.4,418,81.4l-25.2,293.2
			C23901.9,19788.6,23687.7,20000.7,23511.5,19934.3"/>
		<path id="path198" class="st20" d="M24897.3,20066c-22.7,25.1-51,56.3-80.5,101.7c-3.2,4.8-9.6,6.2-14.4,3.1s-6.2-9.6-3-14.4
			c30.4-46.8,59.3-78.7,82.5-104.3c34-37.6,56.5-62.5,59.1-105.4c4.8-76.9-32.9-147.7-72.7-177.9c-4.6-3.5-5.5-10-2-14.6
			c2.2-2.8,5.6-4.3,8.9-4.1c2,0.2,4,0.9,5.7,2.1c42.8,32.6,86.3,107.7,80.9,195.8C24958.7,19998.2,24932.9,20026.6,24897.3,20066"/>
		<path id="path200" class="st20" d="M24428.8,20112.5c-20-1.2-33.7-42.2-30.7-91.6c3.1-49.3,21.8-88.4,41.8-87.1
			c20.1,1.2,33.8,42.3,30.8,91.6C24467.6,20074.8,24448.9,20113.8,24428.8,20112.5"/>
		<path id="path202" class="st20" d="M25108.6,20180.7c-20.1-1.2-33.8-42.3-30.7-91.6c3-49.4,21.7-88.4,41.8-87.1
			c20,1.2,33.7,42.2,30.7,91.6C25147.3,20142.9,25128.6,20182,25108.6,20180.7"/>
		<path id="path204" class="st20" d="M23739.2,19801.4c-100.4,30.7-158.7,33.3-201.2,9c-33.9-19.3-56.3-55.6-70.4-114.1
			c-34.2-142.1,90.4-195.5,91.7-196c1.1-0.5,2.3-0.7,3.4-0.6c2.9,0.2,5.5,1.9,6.7,4.8c1.7,3.9-0.2,8.5-4.2,10.1
			c-4.6,2-113.5,49.1-82.4,178.1c13,54,33,87.1,62.9,104.2c37.9,21.6,94.4,18.5,188.9-10.4c4.1-1.2,8.5,1.1,9.7,5.2
			C23745.6,19795.8,23743.3,19800.1,23739.2,19801.4"/>
		<path id="path206" class="st23" d="M24522.2,20328c-75.1,36.5-164.3,16.3-244.6-6.6c-21.5-6.2-43.4-12.7-62.2-24.8
			c-18.9-12.1-34.6-30.9-38-53.1c-4-27,13.2-55.8,39-65c15-5.3,31.4-4.4,47.3-2.9c89.4,8.4,177.1,34.3,256.6,75.9
			c15.6,8.1,32.8,19.8,33.7,37.3C24554.9,20306.7,24538.2,20320.2,24522.2,20328"/>
		<path id="path208" class="st23" d="M25074.7,20421.7c-24.7-4-49.7-8.3-72.3-19.2c-28.1-13.7-53.1-41.5-53-74.4
			c11-48.6,76.3-24.3,109.5-19.9c37.5,5,107.6-11.6,158.8-2.3c29.7,5.5,53.1,19.6,60,51.9c3.3,15.3-3.2,31.6-14,42.9
			C25218.9,20447.2,25130.6,20430.7,25074.7,20421.7"/>
		<path id="path210" class="st20" d="M24495.3,19916.8c-0.3-0.4-33-35.8-103.6-35.4c-4.3-0.1-7.8-3.5-7.8-7.8
			c-0.1-4.3,3.4-7.8,7.7-7.8c5.2,0,10.3,0.1,15.2,0.4c67.5,4.2,98.8,38.7,100.2,40.2c2.8,3.2,2.5,8.1-0.7,11
			C24503.1,19920.2,24498.2,19920,24495.3,19916.8"/>
		<path id="path212" class="st20" d="M25172.5,19938.7c-58-3.6-86.7,16-87.1,16.3c-3.6,2.5-8.4,1.7-10.9-1.8s-1.7-8.4,1.8-10.9
			c1.3-0.9,32.9-23.1,97.1-19.1c4.3,0.2,7.6,3.9,7.3,8.2C25180.5,19935.7,25176.8,19939,25172.5,19938.7"/>
		<path id="path214" class="st20" d="M24243.3,19157.6c-1.9,1-186.2,96.4-265.6,172.9c-3,2.9-8,2.8-11-0.2c-3-3.1-2.9-8.1,0.2-11.1
			c81-78,261.6-171.5,269.3-175.4c1.2-0.7,2.6-0.9,4-0.9c2.6,0.2,5.1,1.7,6.4,4.3C24248.6,19151,24247.1,19155.7,24243.3,19157.6"/>
		<path id="path216" class="st20" d="M24926.4,19296.6c-3.3-2.8-3.6-7.7-0.8-11c54.5-63-18.2-143.6-21.3-147
			c-2.9-3.1-2.7-8.1,0.5-11c1.6-1.5,3.7-2.1,5.7-2c1.9,0.1,3.8,1,5.2,2.5c0.9,0.9,85.2,94.2,21.7,167.7
			C24934.6,19299.1,24929.6,19299.5,24926.4,19296.6"/>
		<path id="path218" class="st0" d="M24793.3,19595.3c-108.9,65.4-175.5,166.9-305,77.7c-129.4-89.2,106.5-304.9,279.1-281.9
			s244.5,100.7,224.4,166.8C24971.6,19624.1,24836.4,19569.4,24793.3,19595.3"/>
		<path id="path220" class="st24" d="M24196.5,21631.6c-903.2-146.2-842.1-1064.6-773.3-1180.7c0,0,562.5,97,747.5,131.4
			c184.9,34.4,1126.7,344,1126.7,344S25209.1,21795.6,24196.5,21631.6"/>
		<path id="path222" class="st24" d="M25185.6,20973.6c0,0-855.8,163.5-1341.8-447.2c-8-10.1,735.4-196.4,1316-76
			s749.8,166.3,711.1,286.7C25832.2,20857.5,25185.6,20973.6,25185.6,20973.6"/>
		<path id="path224" class="st18" d="M25108,18625.5l-1147.3-64.2c0,0,619.7-519.4,993.7-335.3c373.9,184.1,338,361,338,361
			L25108,18625.5"/>
		<path id="path226" class="st24" d="M23271.8,18721.1c-106.4-54.7-218.6-60.4-230.1-100.7c-11.5-40.3-8.6-92-8.6-92l28.7,11.5
			c0,0,17.3,103.5,80.6,92c63.3-11.5,655.9-1340.5,655.9-2243.8h391.2c0,0-109.3,1467.1-736.4,2358.9
			C23453.1,18747,23378.3,18775.8,23271.8,18721.1"/>
		<path id="path228" class="st24" d="M25782.9,18647.9c-115.3-29.9-242.5,37.4-262.1,1.3c-19.5-36.1-21.3-73.7-21.3-73.7l30.2-4.3
			c0,0,26.8,53.1,86.3,28.8c59.5-24.3,439.2-1532.4,324.1-2406.9l356.7,23c0,0,67.2,1382.8-278,2337.9
			C26018.8,18554,25898.2,18677.8,25782.9,18647.9"/>
		<path id="path230" class="st24" d="M23765.3,16055l-437.3-2784.7h3375.4l-249.3,2784.7
			C25794.4,15924.6,23765.3,16055,23765.3,16055"/>
		<path id="path232" class="st20" d="M24250.5,16056.9h-108.8c-10.4,0-19.6-7-22.3-17.1l-49.6-187.1h-68.5l-45.9,186.7
			c-2.6,10.3-11.8,17.5-22.4,17.5h-108.3v138.1h425.8L24250.5,16056.9z M24273.5,16241h-471.8c-12.7,0-23-10.2-23-23v-184.1
			c0-12.7,10.3-23,23-23h113.3l45.9-186.7c2.5-10.3,11.7-17.6,22.3-17.6h104.4c10.4,0,19.5,7.1,22.2,17.2l49.6,187.1h114.1
			c12.7,0,23,10.3,23,23v184.1C24296.5,16230.8,24286.2,16241,24273.5,16241"/>
		<path id="path234" class="st20" d="M26344.8,16056.9H26236c-10.5,0-19.6-7-22.3-17.1l-49.6-187.1h-68.6l-45.9,186.7
			c-2.5,10.3-11.7,17.5-22.3,17.5H25919v138.1h425.8V16056.9z M26367.8,16241H25896c-12.7,0-23-10.2-23-23v-184.1
			c0-12.7,10.3-23,23-23h113.3l45.9-186.7c2.5-10.3,11.7-17.6,22.3-17.6h104.3c10.5,0,19.6,7.1,22.3,17.2l49.6,187.1h114.1
			c12.7,0,23,10.3,23,23v184.1C26390.8,16230.8,26380.5,16241,26367.8,16241"/>
		<path id="path236" class="st20" d="M26735.6,16416.3c-4.8,1.1-9-2.3-9.9-6.9c-0.7-4.3-76.5-435.5-46.1-853.7
			c0.3-4.4,4.1-7.9,8.5-7.9l0.6,0.1c4.7,0.3,8.2,4.4,7.9,9.1c-30.3,415.9,45.1,845.1,45.9,849.4
			C26743.3,16411,26740.2,16415.4,26735.6,16416.3"/>
		<path id="path238" class="st20" d="M26842.1,16297.6l-161.1-237.8c-2.6-3.9-1.6-9.2,2.3-11.9c1.4-0.9,3.1-1.4,4.8-1.4
			c2.7,0,5.4,1.3,7,3.7l161.1,237.8c2.7,3.9,1.7,9.3-2.2,11.9C26850.1,16302.5,26844.8,16301.5,26842.1,16297.6"/>
		<path id="path240" class="st20" d="M25112.7,18073c-352.7-120.1-832.3,127.4-837.1,129.9c-4.2,2.1-9.3,0.5-11.5-3.6
			c-2.2-4.2-0.6-9.3,3.5-11.5c4-2.1,318.8-164.6,629-164.6c75.7,0,151.1,9.6,221.6,33.7c4.4,1.4,6.8,6.3,5.3,10.8
			C25122,18072.1,25117.3,18074.6,25112.7,18073"/>
		<path id="path242" class="st0" d="M26135.7,16120.2c-69.9,0-126.5-56.7-126.5-126.6c0-69.9,56.6-126.5,126.5-126.5
			c70,0,126.6,56.6,126.6,126.5S26205.7,16120.2,26135.7,16120.2"/>
		<path id="path244" class="st0" d="M24033.8,16143.2c-69.9,0-126.6-56.6-126.6-126.5c0-70,56.7-126.6,126.6-126.6
			s126.6,56.6,126.6,126.6C24160.4,16086.6,24103.7,16143.2,24033.8,16143.2"/>
		<path id="path246" class="st24" d="M22422.7,13351.8l-233.9-2055.1c0,0,1788.8-748.4,2628.4-620.6
			c839.7,127.8,1944,1086.1,1944,1086.1l76.6,1551l-368.7,9.6L22422.7,13351.8"/>
		<path id="path248" class="st20" d="M25153.6,13647.6l-1187.8,403.6l38,1557.9l2223.3-45.7l15.1-1474.2L25153.6,13647.6z
			 M26235.6,15580.2l-2240,46h-0.1c-4.7,0-8.5-3.6-8.6-8.3l-38.3-1572.6c-0.1-3.7,2.3-7,5.8-8.2l1196.7-406.6
			c0.9-0.3,1.8-0.5,2.7-0.5c1.1,0,2.2,0.2,3.2,0.7l1097,444.9c3.3,1.3,5.4,4.5,5.3,8l-15.3,1488.2
			C26244,15576.4,26240.3,15580.1,26235.6,15580.2"/>
		<path id="path250" class="st20" d="M26249.1,15467.1l-2249.6,40.3h-0.2c-4.6,0-8.4-3.8-8.5-8.4c-0.1-4.7,3.6-8.6,8.3-8.7
			l2249.6-40.3h0.2c4.6,0,8.4,3.8,8.5,8.4C26257.5,15463.1,26253.8,15467,26249.1,15467.1"/>
		<path id="path252" class="st20" d="M26857,17911.3c-4,2.1-9.3,0.7-11.5-3.5c-4.3-8.1-104.5-198.4-116-313.9
			c-0.5-4.6,2.9-8.8,7.6-9.3h0.8c4.4,0,8.1,3.3,8.5,7.7c11.2,112.1,113.1,305.6,114.1,307.5
			C26862.7,17904,26861.2,17909.1,26857,17911.3"/>
		<path id="path254" class="st20" d="M26790.3,13238.2c-1512.6,87-3424.4,183.6-3443.5,184.5c-4.1-0.5-8.7-3.4-8.9-8.1
			c-0.3-4.6,3.4-8.7,8-8.9c19.2-1,1930.8-97.5,3443.4-184.5h0.5c4.5,0,8.3,3.5,8.6,8C26798.6,13233.9,26795,13237.9,26790.3,13238.2
			"/>
		<path id="path256" class="st20" d="M26890.4,12781c-724.5,106.8-4499.4,175.5-4537.4,176.2h-0.2c-4.6,0-8.4-3.8-8.5-8.4
			c-0.1-4.7,3.6-8.6,8.3-8.7c38.1-0.6,3811.9-69.3,4535.4-175.9l1.2-0.1c4.2,0,7.8,3,8.4,7.3
			C26898.3,12776.1,26895.1,12780.4,26890.4,12781"/>
		<path id="path258" class="st18" d="M28179.2,6739.3l16.1-1142.4l466.6-418.4l724.1-144.8l305.7,675.8l-32.2,949.3L28179.2,6739.3"
			/>
		<path id="path260" class="st9" d="M31163.9,4768.2c-177,177-788.4,675.8-909.1,804.5c-120.6,128.8-201.1,418.4-362,442.5
			c-160.9,24.2-683.8-193.1-780.4-241.3c-96.5-48.3,72.4-152.9-64.3-257.5c-136.8-104.6-410.3-48.2-547.1,64.4
			c-136.8,112.6-217.2,217.2-337.9,160.9c-120.7-56.3,34.9-150.9,16.1-466.6c-40.2-675.8,120.7-1432.1,120.7-1432.1
			s3716.8-16.1,3741,0c24.1,16.1,0,539.1-120.7,724.1S31163.9,4768.2,31163.9,4768.2"/>
		<path id="path262" class="st6" d="M30256.2,5572.7c-120.7,128.8-201.1,418.4-362,442.5c-161,24.2-683.9-193.1-780.4-241.3
			c-68.4-34.2-4-96.6-8.9-167.3c108-118.6,323.2-219.2,427.2-347.6c136.8-169,595.4-619.5,708-635.6c90.9-13,715.7,99.7,953.8,143.7
			c-18.2,0.9-28.6,1.1-28.6,1.1C30988.3,4945.2,30376.9,5444,30256.2,5572.7"/>
		<path id="path264" class="st6" d="M28163.1,5741.7c-120.7-56.3,34.9-150.9,16.1-466.6c-9.6-160.9-7.7-326.3,0.7-485
			c191.7,7.3,158.8,443.5,224.6,589.6c42.3,94,114.7,135.7,167.7,154.2c-26.2,14.1-50.4,29.8-71.2,46.9
			C28364.2,5693.4,28283.8,5798,28163.1,5741.7"/>
		<path id="path266" class="st6" d="M31317.1,4138c-450.5-64.3-1287.2-10.7-1845,42.9c-534,51.4-851.8,14.2-1226.2-26.7
			c28.4-189.3,54.3-311.2,54.3-311.2s3716.9-16.1,3741,0c15.1,10.1,11.3,219.2-23.4,419.5
			C31854.6,4228.5,31592.2,4177.3,31317.1,4138"/>
		<path id="path268" class="st20" d="M31201.4,4783.1c-7-0.9-707.6-83.4-1127.5-189.7c-8.6-2.2-13.8-10.9-11.6-19.5
			c1.8-7.3,8.4-12.1,15.5-12.1c1.3,0,2.7,0.1,4,0.5c417.8,105.7,1116.3,188,1123.3,188.8c8.8,1,15.2,9,14.2,17.9
			C31218.2,4777.9,31210,4783.9,31201.4,4783.1"/>
		<path id="path270" class="st20" d="M29823.1,4977.4c-46.7,0-84.5-37.8-84.5-84.5c0-46.6,37.8-84.4,84.5-84.4
			c46.6,0,84.5,37.8,84.5,84.4C29907.6,4939.6,29869.7,4977.4,29823.1,4977.4"/>
		<path id="path272" class="st20" d="M30029.6,4765.5c-46.7,0-84.5-37.8-84.5-84.4c0-46.7,37.8-84.5,84.5-84.5
			c46.6,0,84.5,37.8,84.5,84.5C30114.1,4727.7,30076.2,4765.5,30029.6,4765.5"/>
		<path id="path274" class="st0" d="M30735.9,5237.2c-445.5-48.9-902.5-265-921.7-274.1c-32.1-15.3-45.7-53.7-30.4-85.8
			c11-23.1,34.1-36.7,58.1-36.7c9.3,0,18.7,2,27.7,6.3c4.5,2.2,456.9,215.9,880.3,262.3c35.4,3.9,60.9,35.7,57,71
			C30803,5215.6,30770.8,5240.9,30735.9,5237.2"/>
		<path id="path276" class="st0" d="M30939.7,5011.9c-445.5-48.9-902.5-264.9-921.7-274.1c-32.1-15.3-45.7-53.7-30.4-85.7
			c11-23.2,34.1-36.7,58.1-36.7c9.3,0,18.7,2,27.7,6.3c4.5,2.1,456.9,215.8,880.3,262.2c35.4,3.9,60.9,35.7,57,71.1
			C31006.8,4990.3,30974.5,5015.4,30939.7,5011.9"/>
		<path id="path278" class="st20" d="M29339,5444c-46.6,0-84.4-37.8-84.4-84.4c0-46.7,37.8-84.5,84.4-84.5
			c46.7,0,84.5,37.8,84.5,84.5C29423.5,5406.2,29385.7,5444,29339,5444"/>
		<path id="path280" class="st20" d="M29608.5,5202.7c-46.6,0-84.4-37.8-84.4-84.5s37.8-84.5,84.4-84.5c46.7,0,84.5,37.8,84.5,84.5
			S29655.2,5202.7,29608.5,5202.7"/>
		<path id="path282" class="st0" d="M30516,5462.4c-445.5-48.9-902.5-264.9-921.7-274.1c-32.1-15.2-45.7-53.6-30.5-85.7
			c11.1-23.2,34.1-36.7,58.2-36.7c9.3,0,18.7,2,27.6,6.3c4.6,2.1,457,215.8,880.4,262.3c35.4,3.9,60.9,35.7,57,71
			C30583.1,5440.8,30550.9,5466,30516,5462.4"/>
		<path id="path284" class="st0" d="M30247.8,5703.8c-445.5-48.9-902.5-264.9-921.7-274.1c-32.1-15.3-45.7-53.7-30.4-85.7
			c11-23.2,34.1-36.7,58.2-36.7c9.2,0,18.6,2,27.6,6.2c4.5,2.2,456.9,215.9,880.3,262.3c35.4,3.9,60.9,35.7,57,71.1
			C30314.9,5682.2,30282.3,5707.7,30247.8,5703.8"/>
		<path id="path286" class="st0" d="M30758.4,5419.4c-65.3-6.2-130.8,31.3-199.1,73.3l-20.4,12.5
			c-93.6,57.6-189.1,116.4-290.6,159.9c102.9,10,205.8,16.7,307.7,11.1c93.9-5.2,187.9-55.9,257.9-138.8
			c17.6-21,26.7-37.6,26.9-49.4C30841.3,5460.7,30795.9,5422.8,30758.4,5419.4z M30063,5153.1c-4.9-49.6-38.3-96.4-83-116.6
			c-43.8-19.7-102.5-13-139.8,16c-47.6,37-71.3,111.6-60.2,190.3c11.5,81.2,53.2,159.3,93.5,234.8c17.1,32,35.8,67,58.7,95.3
			c4.6-45,14.7-89.4,30.1-131.6c12.9-35.4,29.3-69.1,45.1-101.7C30039,5274.3,30068.9,5212.7,30063,5153.1L30063,5153.1z
			 M30563.1,5804.7c-146.3,8.1-293.8-7.4-435.3-22.6c-71.7-7.7-160.9-17.2-234.2-69.6c-65.5-46.7-103.3-117.4-133.6-174.3
			c-43.5-81.4-92.8-173.7-107.4-277.5c-17.7-125.3,23.9-244.1,108.7-309.9c45.4-35.3,103.2-54.7,162.9-54.7c37.7,0,75.3,8,108.7,23
			c86.7,39.1,148.8,126,158.2,221.5c9.4,95.6-31.7,180.4-67.9,255.2c-15.1,31-29.3,60.4-40,89.6c-12.5,34.2-20.3,70.3-23.5,106.8
			c144.2-32,279.9-115.5,411.8-196.6l20.4-12.6c83.5-51.4,175.5-100.6,278.5-91.8c95.7,8.9,200.9,92.8,199.1,199.1
			c-1,56.7-33.1,101.4-57.2,130C30819.6,5730.3,30692.3,5797.5,30563.1,5804.7"/>
		<path id="path288" d="M28521.1,4538.9c-40,0-72.4-32.4-72.4-72.4c0-39.9,32.4-72.4,72.4-72.4s72.4,32.5,72.4,72.4
			C28593.5,4506.5,28561.1,4538.9,28521.1,4538.9"/>
		<path id="path290" class="st6" d="M28521.1,4418.3c-26.6,0-48.3,21.7-48.3,48.2c0,26.6,21.7,48.3,48.3,48.3
			c26.6,0,48.3-21.7,48.3-48.3C28569.4,4440,28547.7,4418.3,28521.1,4418.3z M28521.1,4563.1c-53.2,0-96.5-43.3-96.5-96.6
			c0-53.2,43.3-96.5,96.5-96.5s96.6,43.3,96.6,96.5C28617.7,4519.8,28574.3,4563.1,28521.1,4563.1"/>
		<path id="path292" d="M28855,4538.9c-40,0-72.4-32.4-72.4-72.4c0-39.9,32.4-72.4,72.4-72.4s72.4,32.5,72.4,72.4
			C28927.4,4506.5,28895,4538.9,28855,4538.9"/>
		<path id="path294" class="st6" d="M28855,4418.3c-26.6,0-48.3,21.7-48.3,48.2c0,26.6,21.7,48.3,48.3,48.3
			c26.6,0,48.3-21.7,48.3-48.3C28903.3,4440,28881.6,4418.3,28855,4418.3z M28855,4563.1c-53.2,0-96.6-43.3-96.6-96.6
			c0-53.2,43.4-96.5,96.6-96.5s96.5,43.3,96.5,96.5C28951.5,4519.8,28908.2,4563.1,28855,4563.1"/>
		<path id="path296" class="st20" d="M29965.2,4403.5c-204.5,0-471.7,341.4-666.8,590.6c-35.6,45.5-69.2,88.5-99.3,125.2
			c-165.2,201.9-409.8,195-669.1,187.9c-46.5-1.3-94.6-2.6-141.6-2.6c-4.5,0-8.1-3.6-8.1-8.1s3.6-8,8.1-8c47.3,0,95.4,1.3,142,2.6
			c255.3,7,496,13.8,656.3-182c29.9-36.6,63.5-79.5,99-124.9c197.2-251.9,467.2-596.8,679.5-596.8c247.7,0,391.4-12.7,464.2-273
			c1.1-3.5,4.3-5.9,7.8-5.9l2.2,0.3c4.3,1.2,6.8,5.6,5.6,10C30368.9,4390.3,30220.7,4403.5,29965.2,4403.5"/>
		<path id="path298" class="st20" d="M31898.2,4607.1c-4.4,0.9-8.7-1.5-9.9-5.7c-1.1-4.1-128.3-409.4-1616.4-235.5
			c-4.2,0.7-8.5-2.6-8.9-7c-0.6-4.4,2.6-8.5,7-9c266.5-31.1,489.6-44,676.6-44c866.6,0,953.4,277,957.2,291.3
			C31905,4601.5,31902.4,4605.9,31898.2,4607.1"/>
		<path id="path300" class="st20" d="M29069.4,4951.3c-241.5,209.3-734,115.4-738.9,114.5c-4.4-0.9-7.2-5.1-6.3-9.5
			c0.8-4.3,5.1-7,9.4-6.4c4.9,1.1,489.7,93.5,725.3-110.8c236.4-204.9,334.3-730.2,335.2-735.5c0.8-3.9,4.1-6.6,8-6.6l1.4,0.1
			c4.4,0.9,7.3,5,6.5,9.4C29409,4211.9,29310.1,4742.7,29069.4,4951.3"/>
		<path id="path302" class="st20" d="M31967.1,4269.3c-9-1.5-903.7-153-1173.7-168.8c-143.7-8.5-478.4,21.7-802.1,50.9
			c-292.4,26.4-594.9,53.7-766.2,53.7c-358.2,0-984.5-42.4-990.8-42.8c-4.4-0.3-7.8-4.2-7.5-8.6s4.6-8.2,8.6-7.5
			c6.3,0.4,632.1,42.8,989.7,42.8c170.6,0,472.7-27.3,764.8-53.6c298.2-26.9,581.8-52.5,744.5-52.5c22.3,0,42.4,0.5,59.9,1.5
			c270.9,16,1166.5,167.5,1175.5,169.1c4.4,0.7,7.3,4.9,6.6,9.2C31975.7,4267.1,31971.7,4270,31967.1,4269.3"/>
		<path id="path304" class="st9" d="M18325.3,7241.3c-640.2,220.1-1411.9,268-1411.9,268S15900.7,3933,15909.7,3905.4
			c9.1-27.5,519.3-144.6,729.9-78c210.7,66.6,396.7,674.6,396.7,674.6c218,123,862.5,578.2,1018.9,659.9
			c156.4,81.7,457,81.5,523.4,230.1c66.4,148.5-2.5,710.5-23.1,816.5c-20.6,105.9-166.7-28.8-230.8,131.1
			c-64,159.8,63.6,408.2,208.8,509.7c145.2,101.5,267.5,151,245.7,282.3C18757.3,7263,18624.5,7138.5,18325.3,7241.3"/>
		<path id="path306" class="st6" d="M18396.4,6260.6c-143.2-72.2-297.9-252.6-449.5-318.3c-199.5-86.4-756.5-407.3-802.2-511.5
			c-36.9-84-96-716.1-117.5-957.3c5.7,17.3,8.7,27.2,8.7,27.2c218,123,862.6,578.2,1019,659.9c156.3,81.7,456.9,81.5,523.3,230.1
			c66.5,148.5-2.5,710.5-23.1,816.5C18540.5,6282.2,18463.1,6237,18396.4,6260.6"/>
		<path id="path308" class="st6" d="M18325.3,7241.3c-152.4,52.4-312.2,95-467.4,129.5c-44.3-186.7,384.7-272,507.8-374.5
			c79.2-66.1,99.9-147,103.5-203c20.7,21.4,42.2,40.6,64.3,56c145.2,101.5,267.5,151,245.7,282.3
			C18757.3,7263,18624.5,7138.5,18325.3,7241.3"/>
		<path id="path310" class="st6" d="M15909.6,3905.1c5.7-17.2,208.2-69.6,410.4-90c11,166.4,32.2,432.9,68.1,708.4
			c58.9,451.3,335,1242.9,536.3,1765.9c192.8,500.6,242.3,816.8,303.3,1188.4c-190,23.4-314.4,31.2-314.4,31.2
			S15900.6,3932.7,15909.6,3905.1"/>
		<path id="path312" class="st20" d="M17144.6,5615.4c-7.5,0.2-13.9-4.8-15.8-11.7c-0.4-1.3-0.6-4-0.6-4
			c-10.3-430.8-118.3-1125.8-119.4-1132.8c-1.4-8.8,4.6-17,13.4-18.4s16.9,4.9,18.3,13.4c1.1,7,109.6,704,119.9,1137.1
			C17160.5,5607.9,17153.5,5615.2,17144.6,5615.4"/>
		<path id="path314" class="st20" d="M17538.8,5841.6c-44.9,12.5-91.5-13.8-104-58.7c-12.5-44.9,13.8-91.5,58.7-104
			c44.9-12.6,91.5,13.7,104,58.7C17610.1,5782.5,17583.8,5829.1,17538.8,5841.6"/>
		<path id="path316" class="st20" d="M17279.3,5699.5c-44.9,12.6-91.5-13.7-104-58.7c-12.5-44.9,13.8-91.5,58.7-104
			c45-12.5,91.5,13.7,104,58.7C17350.6,5640.4,17324.3,5687,17279.3,5699.5"/>
		<path id="path318" class="st0" d="M17511.7,5802.3c-25.3-4.4-44.5-23-51-46.2c-2.5-8.9-3.1-18.5-1.3-28.3
			c0.8-4.9,85.3-498.1,16.4-918.5c-5.7-35.1,18.1-68.1,53.2-73.9c35-5.7,68.1,18.5,73.9,53.1c72.4,442.3-13.1,940.5-16.8,961.5
			C17580,5785,17546.7,5808.4,17511.7,5802.3"/>
		<path id="path320" class="st0" d="M17240,5666.4c-25.3-4.4-44.5-23-51-46.2c-2.4-8.9-3-18.5-1.3-28.3
			c0.8-4.9,85.3-498.1,16.5-918.5c-5.8-35.1,18-68.1,53.1-73.9s67.9,18.6,73.9,53.1c72.4,442.3-13.1,940.5-16.8,961.5
			C17308.3,5649.1,17275,5672.5,17240,5666.4"/>
		<path id="path322" class="st20" d="M18118.2,6182.7c-44.9,12.5-91.5-13.7-104-58.7c-12.6-44.9,13.7-91.5,58.7-104
			c44.9-12.5,91.5,13.7,104,58.7C18189.4,6123.6,18163.1,6170.2,18118.2,6182.7"/>
		<path id="path324" class="st20" d="M17813.4,5987.8c-45,12.6-91.5-13.7-104.1-58.7c-12.5-44.9,13.8-91.5,58.8-104
			c44.9-12.5,91.5,13.8,104,58.7C17884.6,5928.7,17858.3,5975.3,17813.4,5987.8"/>
		<path id="path326" class="st0" d="M17787.7,5953.7c-25.3-4.4-44.5-23-51-46.2c-2.4-8.9-3-18.5-1.3-28.3
			c0.8-4.9,85.3-498.1,16.4-918.4c-5.7-35.1,18.1-68.2,53.2-74c35-5.7,67.9,18.6,73.9,53.1c72.4,442.3-13.1,940.5-16.8,961.5
			C17856,5936.4,17822.7,5959.8,17787.7,5953.7"/>
		<path id="path328" class="st0" d="M18092.2,6147.3c-25.3-4.4-44.6-23-51-46.2c-2.5-8.9-3.1-18.5-1.4-28.3
			c0.9-4.9,85.4-498.1,16.5-918.5c-5.7-35.1,18.1-68.2,53.1-73.9c35.1-5.7,68.4,18.8,73.9,53.1c72.5,442.3-13,940.5-16.7,961.5
			C18160.5,6130,18127.1,6153.4,18092.2,6147.3"/>
		<path id="path330" class="st0" d="M18074.1,4844.1c-30.2-89.1-104.3-166.1-203-211.2c-24.9-11.4-43.3-15.7-54.7-12.7
			c-26.5,6.9-50.8,60.7-44,97.7c11.6,64.6,65.3,117.7,124,172.2l17.5,16.3c80.7,74.7,162.9,150.9,232.1,237
			C18127.9,5041.7,18106.8,4940.8,18074.1,4844.1z M18007,5479c-37.5-2.9-74.4-9.6-110-16.1c-71.4-13-138.7-25.2-194.5-3.6
			c-46.5,18-82.7,62.8-90.1,111.3c-7.2,47.4,15,102.1,52.8,130.3c48.5,36,126.8,38.7,199.5,7c75.2-32.9,139.3-94,201.2-153.2
			c26.2-25,54.9-52.3,76-82.1C18097.4,5480.3,18051.9,5482.5,18007,5479L18007,5479z M18154.7,5647.9
			c-66.7,63.7-142.4,136-238.5,177.9c-116,50.7-241.6,42.4-327.8-21.6c-46.1-34.2-80.3-84.7-96.3-142.2
			c-10.1-36.4-12.6-74.7-7-110.9c14.4-94,81.4-177.1,170.9-211.8c89.6-34.8,182.3-17.9,264-3.1c34,6.2,66.1,12.1,97.1,14.5
			c36.3,2.8,73.2,0.7,109.2-6c-69.5-130.4-186.3-238.7-299.9-343.9l-17.6-16.4c-71.9-66.6-144-142-163.2-243.6
			c-17-94.5,35.6-218.5,138.4-245.2c55-14.3,106.6,4.7,140.6,20.2c130.9,59.7,229.8,164.4,271.3,286.9
			c47.2,138.8,71.8,285,95.1,425.5c11.8,71,26.6,159.5-4.2,244.2C18259.3,5548.1,18201.3,5603.4,18154.7,5647.9"/>
		<path id="path332" d="M17474.1,7198.6c-38.5,10.8-78.4-11.8-89.1-50.3c-10.8-38.5,11.8-78.4,50.3-89.2
			c38.5-10.7,78.4,11.8,89.2,50.3C17535.2,7148,17512.7,7187.9,17474.1,7198.6"/>
		<path id="path334" class="st6" d="M17501.2,7115.9c-7.1-25.6-33.8-40.7-59.4-33.5c-25.6,7.1-40.7,33.8-33.6,59.4
			c7.2,25.7,33.9,40.7,59.5,33.6C17493.3,7168.2,17508.4,7141.6,17501.2,7115.9z M17480.6,7221.9c-51.3,14.3-104.6-15.8-118.9-67.1
			c-14.3-51.3,15.8-104.6,67.1-118.9c51.3-14.3,104.6,15.8,118.9,67.1C17562,7154.3,17531.9,7207.6,17480.6,7221.9"/>
		<path id="path336" d="M17384.6,6877c-38.6,10.7-78.5-11.8-89.2-50.3c-10.7-38.6,11.8-78.5,50.3-89.2s78.5,11.8,89.2,50.3
			S17423.1,6866.3,17384.6,6877"/>
		<path id="path338" class="st6" d="M17411.6,6794.3c-7.1-25.7-33.8-40.7-59.4-33.6c-25.6,7.2-40.7,33.9-33.6,59.5
			c7.2,25.6,33.9,40.7,59.5,33.5C17403.7,6846.6,17418.8,6819.9,17411.6,6794.3z M17391,6900.2c-51.2,14.3-104.6-15.8-118.9-67.1
			c-14.2-51.2,15.9-104.6,67.1-118.9c51.3-14.2,104.7,15.9,118.9,67.1C17472.4,6832.6,17442.3,6886,17391,6900.2"/>
		<path id="path340" class="st20" d="M18292,7041.8c-4.3,1.2-8.7-1.3-9.9-5.6c-12.7-45.5-24.3-92.3-35.6-137.5
			c-61.6-247.8-119.7-481.6-351.4-583.4c-43.2-19-93.5-39.8-146.9-61.9c-295.5-122.3-700.2-289.9-757.2-494.5
			c-66.4-238.5-117.2-373.6-387.5-373.9c-3.7,0-6.8-2.5-7.7-5.9l-0.3-2.2c0-4.4,3.5-8,8-8c282,0.4,334.5,139.6,403,385.7
			c54.9,197,455.4,362.9,747.9,484c53.4,22.1,103.8,42.9,147.2,62c238.9,105,297.8,342.5,360.6,594.2
			c11.2,45.1,22.8,91.8,35.4,137.1C18298.8,7036.2,18296.3,7040.6,18292,7041.8"/>
		<path id="path342" class="st20" d="M16883.7,5479.8c-4.1,1.7-8.9-0.3-10.5-4.4c-101.6-248.4-173.8-459.9-224-640
			c-232.5-834.9,11.1-992.7,23.8-1000.3c3.8-2.2,8.8-1,11.1,2.8c2,4,0.9,8.8-2.9,11.1c-3.6,2.2-359.9,233.4,206.9,1620.3
			C16889.9,5473.2,16887.8,5478.1,16883.7,5479.8"/>
		<path id="path344" class="st20" d="M18075.7,7160.4c-4.4,0.3-8.1-3.1-8.7-7.4c-0.2-5-41.3-496.8-301.3-669
			c-260.8-172.8-793.1-126.1-798.5-125.6c-3.9,0.3-7.4-2.2-8.5-5.9l-0.2-1.4c-0.4-4.4,2.8-8.3,7.2-8.7
			c5.5-0.5,543.4-47.7,808.9,128.2c266.5,176.5,308.1,676.1,308.5,681.1C18083.4,7156.2,18080.1,7160,18075.7,7160.4"/>
		<path id="path346" class="st20" d="M17232.3,7496.3c-4.4,0.9-9.1-2.2-9.5-6.2c-1.3-6.2-128.4-620.4-224.3-964.9
			c-45.8-164.4-153.1-448.1-256.9-722.4c-105.9-280-206.6-546.4-250.3-703.1c-6-21.5-10.9-41-14.6-58.2
			c-57.3-265.2-151.6-1168.6-152.5-1177.7c-0.5-4.4,2.7-8.4,7.1-8.8c4.5-0.5,8.3,2.5,8.9,7.1c0.9,9.1,95.1,911.7,152.2,1176
			c30.4,140.8,149.3,455,264.3,759c103.9,274.7,211.3,558.7,257.3,723.8c96.1,345,223.3,959.7,224.5,965.9
			C17239.4,7491.1,17236.6,7495.4,17232.3,7496.3"/>
		<path id="path348" class="st20" d="M25268.9,20911.5c-5.1,1.8-10.2-1.4-11.7-6.5c-1.4-5,1.5-10.2,6.5-11.7
			c180.7-51.6,438.2-142.1,444.8-181.4c8.4-50.9-174.9-86.7-618-173.5l-78.1-15.3c-527.1-103.3-1020.1,19.6-1025,21
			c-5.4,1-10.2-1.9-11.5-6.9s1.8-10.2,6.8-11.5c3.5-0.8,251.3-62.7,583.4-62.7c139.1,0,293,10.8,450,41.6l78,15.3
			c495.1,96.9,644.6,126.1,633.1,195C25716.3,20780.5,25343.5,20890.2,25268.9,20911.5"/>
		<path id="path350" class="st20" d="M25210.8,20927.2c-9.2-3-922.2-295.6-1334.4-309.2c-19.3,63.1-157.2,565.9,210.3,981.8
			c3.4,3.9,3,9.9-0.8,13.3c-4.1,3.5-10,3.2-13.4-0.8c-398.1-450.5-213.8-1001.5-211.9-1007l2.3-6.5l6.9,0.1
			c411.4,10.4,1337.5,307.3,1346.8,310.3c5,1.6,7.7,6.9,6.1,11.9S25215.9,20928.6,25210.8,20927.2"/>
		<path id="path352" class="st25" d="M24065.4,21653.5c-35.9-8.8-61-32.3-56.1-52.3c5-20.1,38.1-29.2,74-20.3
			c35.9,8.8,61,32.3,56,52.3C24134.4,21653.3,24101.3,21662.4,24065.4,21653.5"/>
		<path id="path354" class="st0" d="M24507.5,20933.9l27.6-102.4c0,0,354.4,82.7,460.8,133.9l-23.7,98.5L24507.5,20933.9"/>
		<path id="path356" class="st20" d="M22675.4,18389.4c-5.6,3.5-13.4,2.2-17-3.3c-3.9-5.6-2.3-13.3,3.2-17.1
			c5-3.4,496.7-345.4,416.8-1091.3c-0.7-6.7,4.1-12.8,10.9-13.4l1.3-0.2c6.2,0,11.5,4.6,12.2,11
			C23184.3,18036.2,22680.5,18385.9,22675.4,18389.4"/>
		<path id="path358" class="st24" d="M24597.6,12986.1l292.8-2612.2c1393.7,155.7,2937,168.7,3767.6,54.5
			c152.9-21,259.2-160.7,234.3-312.9c-143.7-878.7-657.4-2715.1-1209.3-3915.9l2546.2,27.3
			c1513.3,3285.8,1714.2,4908.9,780.8,5935.6C29957.9,13319.7,26942.2,13248.9,24597.6,12986.1"/>
		<path id="path360" class="st20" d="M25885.3,13033.3l-416.7-106.4c-8.1-2.1-14.1-9.3-14.6-17.8c-0.5-8.9-51.9-907.6-64.6-1048.2
			c-12.8-140.2-218-1371.9-220.1-1384.3c-1.7-10.7,5.4-20.7,16-22.3c1.1-0.2,2.1-0.3,3.2-0.3c9.3,0,17.6,6.6,19.2,16.2
			c8.4,50.8,207.4,1245.5,220.3,1387.1c12,131.4,57.3,919.5,64,1035.4l376.8,96.3c-12.9-176.2-89.1-1170.3-194.1-1578.3
			c-112.7-438.6-363.6-582.2-366.1-583.6c-9.3-5.1-12.7-17-7.6-26.4c5.3-9.4,17-12.7,26.4-7.6c10.9,6,267.7,151.8,385,607.8
			c115.6,449.9,196.3,1600.7,197,1612.2c0.5,6.2-2.1,12.3-6.9,16.2C25897.7,13033.4,25891.4,13035.1,25885.3,13033.3"/>
		<path id="path362" class="st24" d="M24850.1,11817.3l-1485.8-495.4l-1175.5-6.9c155.1-1551.5,930.5-3825,938.7-4905.4
			c-787,51.6-2353.2,428.9-3722.5,917.9l-885.3-2474.9c50.9-18.2,1261-449.4,2569.6-757.2c740-173.9,1506.6-316.8,2199.8-316.8
			c900.7,0,1677.4,241.3,2110.1,969c325.6,547.4,559,1440,67.9,4239.1C25225.9,10361,24893,11688.7,24850.1,11817.3"/>
		<path id="path364" class="st18" d="M22288.9,13373c-322.3,223.2,264.7,2460.6,530.2,2999.4l-690.7,341.3l690.2-342l-1380.4,684
			c-136-274.3-1308.5-2730.9-626.3-4474.1c164-419,430-670.2,867.2-853.5c316-132.7,579.5-176.5,970.9-176.5
			c1382.1,0,3000.6,549.6,3900.7,437.3l-699.8,1154.8C24375.7,13012,22835.4,12994.6,22288.9,13373"/>
		<path id="path366" class="st19" d="M21193.4,15711.8c220.2-278.5,1184.9-744.7,1184.9-744.7l77.7,284.9
			C22456,15252,20973.2,15990.2,21193.4,15711.8"/>
		<path id="path368" class="st21" d="M20780.4,15852.4c0,0,1155.4-641.9,1701.1-658l609.8,1251.8l-937.2,1771.3
			C21502.6,17970.7,20780.4,15852.4,20780.4,15852.4"/>
		<path id="path370" class="st20" d="M22849.4,16299.1c-10.3,2.9-21.1-2.5-24.3-12.7c-28-91.1-329.4-1065.2-329.4-1065.2l37.2-11.5
			c0,0,301.4,974.1,329.4,1065.2C22865.4,16285.2,22859.6,16296.1,22849.4,16299.1"/>
		<path id="path372" class="st20" d="M22936.5,16190.6l-194.5-205c-7.4-7.7-7.1-20,0.7-27.5c3.8-3.5,8.6-5.3,13.4-5.3
			c5.2,0,10.2,2,14.1,6.1l194.5,205c7.3,7.8,7,20-0.8,27.5C22956.2,16198.7,22943.9,16198.5,22936.5,16190.6"/>
		<path id="path374" class="st20" d="M21255.8,12798.2c-1,0-2.1,0-3.1,0c-35.7-0.5-57.9-10.2-65.8-28.7c-4.2-9.9,0.1-21.7,10-25.8
			c10.1-4.7,21.1-0.2,25.3,9.7c3.9,4.3,29.1,10,80.5,1.5c74.6-12.7,163.2-50.4,182.3-91.8c20.7-44.9,11.8-111.1-20-147.2
			c-19.7-22.6-44.2-29.6-73.2-20.3c-29.4,9.2-48.7,22.9-57.2,40.8c-10.2,21.4-1.8,43.2-1.8,43.2c4.2,9.9-0.5,21.3-10.4,25.4
			c-10.2,4.4-21.3-0.5-25.4-10.5c-0.7-1.5-15.1-37,2.2-74.2c13.3-28.4,40.5-49.2,81.1-61.8c12-3.8,23.8-5.6,35.2-5.6
			c29.9,0,57.1,12.8,78.7,37.4c41.6,47.5,53.1,130.5,26,189.2C21486.9,12751.7,21340.5,12798.2,21255.8,12798.2"/>
		<path id="path376" class="st20" d="M22617.9,11509c0.2,10.8-8.2,19.6-19,19.9c-11.6-1.1-19.5-8.2-19.8-19
			c-5.6-251.5,193.6-1161.6,424.4-2215.5c304.8-1392.4,650.3-2970.6,598.8-3389.9c-6.1-49.3-32.8-88.6-81.7-120.5
			c-617.7-400.9-4259.7,708.3-4296.4,719.3c-10.2,3.2-21.2-2.4-24.3-12.9c-3.1-10.1,2.7-21,12.9-24.1
			c126.7-38.8,2653.2-807.8,3830.6-807.8c223,0,397.6,27.6,498.4,92.9c58.3,37.9,91.6,87.8,99.1,148.2
			c52.2,426-294,2007.7-599.5,3403.1C22820.8,10310.4,22612.5,11262.2,22617.9,11509"/>
		<path id="path378" class="st20" d="M19787,7121.9c-8.4,6.7-20.7,4.6-27.2-3.8c-39.5-52.8-727.4-2056.3-805.7-2284.6
			c-3.5-10.1,1.9-21.2,12-24.7c2.1-0.8,4.2-1.1,6.3-1.1c8.1,0,15.7,5,18.4,13.1c210.3,613.1,763.7,2215.7,800.4,2274.3
			C19797.3,7103.7,19795.5,7115.7,19787,7121.9"/>
		<path id="path380" class="st20" d="M25236.3,10660.8c-10.5-2.3-17.2-12.6-14.9-23.1c2.1-10.4,11.9-16.5,22.9-14.8
			c37.6,8,3759.4,794.7,4084.9,293.2c325.7-500.8-890.5-3980.7-1102.1-4449.2c-4.4-9.8-0.1-21.4,9.7-25.8c2.6-1,5.3-1.6,8-1.6
			c7.4,0,14.5,4.2,17.7,11.3c156,345.6,1451.5,3944.9,1099.3,4486.5C29021.8,11460.3,25390.7,10693.6,25236.3,10660.8"/>
		<path id="path382" class="st9" d="M29174.9,16007.1c-1732.9,0-3137.6-1404.8-3137.6-3137.6c0-1732.9,1404.7-3137.6,3137.6-3137.6
			c1732.8,0,3137.6,1404.7,3137.6,3137.6C32312.5,14602.3,30907.7,16007.1,29174.9,16007.1"/>
		<path id="path384" class="st8" d="M29170.1,15264.3c-1346.1,0-2437.3-1091.3-2437.3-2437.4s1091.2-2437.4,2437.3-2437.4
			c1346.2,0,2437.4,1091.3,2437.4,2437.4S30516.3,15264.3,29170.1,15264.3"/>
		<path id="path386" class="st9" d="M29174.9,14649c-982.8,0-1779.6-796.7-1779.6-1779.5c0-982.9,796.8-1779.6,1779.6-1779.6
			c982.8,0,1779.6,796.7,1779.6,1779.6C30954.5,13852.3,30157.7,14649,29174.9,14649"/>
		<path id="path388" class="st10" d="M29175,11180.8c-931.3,0-1688.8,757.5-1688.8,1688.6c0,931.2,757.5,1688.8,1688.8,1688.8
			c931,0,1688.5-757.6,1688.5-1688.8C30863.5,11938.3,30106,11180.8,29175,11180.8 M29175,14739.9
			c-1031.4,0-1870.5-839.2-1870.5-1870.5c0-1031.4,839.1-1870.3,1870.5-1870.3c1031.3,0,1870.3,838.9,1870.3,1870.3
			C31045.3,13900.7,30206.3,14739.9,29175,14739.9"/>
		<path id="path390" class="st11" d="M29174.9,13647.6c-429.8,0-778.1-348.4-778.1-778.1c0-429.7,348.3-778.1,778.1-778.1
			c429.7,0,778.1,348.4,778.1,778.1C29953,13299.2,29604.6,13647.6,29174.9,13647.6"/>
		<path id="path392" class="st12" d="M29193.8,13899.4c-102.5,0-185.5,83-185.5,185.5s83,185.5,185.5,185.5s185.5-83,185.5-185.5
			S29296.3,13899.4,29193.8,13899.4"/>
		<path id="path394" class="st12" d="M29193.8,11468.5c-102.5,0-185.5,83.1-185.5,185.6c0,102.4,83,185.5,185.5,185.5
			s185.5-83.1,185.5-185.5C29379.3,11551.6,29296.3,11468.5,29193.8,11468.5"/>
		<path id="path396" class="st12" d="M30428.1,12763.5c-102.4,0-185.5,83-185.5,185.5s83.1,185.5,185.5,185.5
			c102.5,0,185.6-83,185.6-185.5S30530.6,12763.5,30428.1,12763.5"/>
		<path id="path398" class="st12" d="M30011.6,13558.6c-102.4,0-185.5,83.1-185.5,185.5c0,102.5,83.1,185.6,185.5,185.6
			c102.5,0,185.6-83.1,185.6-185.6C30197.2,13641.7,30114.1,13558.6,30011.6,13558.6"/>
		<path id="path400" class="st12" d="M30072.2,11809.3c-102.4,0-185.5,83.1-185.5,185.5c0,102.5,83.1,185.6,185.5,185.6
			c102.5,0,185.6-83.1,185.6-185.6C30257.8,11892.4,30174.7,11809.3,30072.2,11809.3"/>
		<path id="path402" class="st12" d="M27921.6,12763.5c-102.5,0-185.5,83-185.5,185.5s83,185.5,185.5,185.5s185.5-83,185.5-185.5
			S28024.1,12763.5,27921.6,12763.5"/>
		<path id="path404" class="st12" d="M28338.1,13558.6c-102.5,0-185.5,83.1-185.5,185.5c0,102.5,83,185.6,185.5,185.6
			s185.5-83.1,185.5-185.6C28523.6,13641.7,28440.6,13558.6,28338.1,13558.6"/>
		<path id="path406" class="st12" d="M28277.5,11809.3c-102.4,0-185.5,83.1-185.5,185.5c0,102.5,83.1,185.6,185.5,185.6
			c102.5,0,185.6-83.1,185.6-185.6C28463.1,11892.4,28380,11809.3,28277.5,11809.3"/>
		<path id="path408" class="st18" d="M27076.9,11712.8l-920.6,472.2c-84.3,43.6-187.8,10-231.2-74.2c-43.3-84.6-10-188.1,74.5-231.2
			l920.6-472.2c25-13,51.8-19,78.2-19c62.4,0,122.5,33.9,153,93.2C27194.6,11566.1,27161.3,11669.6,27076.9,11712.8"/>
		<path id="path410" class="st20" d="M27169.6,12738.2l-356.4,58.8l-9.3,35.6c-1.7,6-8,9.9-13.9,8c-6.1-1.6-9.7-7.7-8.1-13.8
			l11.3-42.8c1.1-4.3,4.7-7.5,9.1-8.3l363.6-59.9l0.8-0.1c5.9-0.5,11.3,3.5,12.2,9.5C27180,12731.3,27175.8,12737.2,27169.6,12738.2
			"/>
		<path id="path412" class="st18" d="M27614.9,13035.7l-1028.1,167c-125.3,21.3-242.4-64.3-262.7-189.3
			c-20.2-124.8,64.5-242.4,189.4-262.7l1028.1-167.1c12.4-2,24.7-2.9,36.9-2.9c110.3,0,207.5,79.9,225.8,192.3
			C27824.6,12897.8,27739.8,13015.4,27614.9,13035.7"/>
		<path id="path414" class="st18" d="M27347.9,12196.4l-1028.2,167c-124.6,19.9-242.3-64.4-262.7-189.4
			c-20.2-124.7,64.5-242.3,189.4-262.7l1028.1-167c12.4-2,24.8-2.9,36.9-2.9c110.4,0,207.5,79.8,225.8,192.3
			C27557.5,12058.4,27472.7,12176,27347.9,12196.4"/>
		<path id="path416" class="st18" d="M27640.3,12502.7l-1187.7,294.5c-122.5,30.1-246.8-44.1-277.3-167.3
			c-30.4-122.5,44.4-246.8,167.1-277.2l1187.7-294.5c18.6-4.5,37-6.7,55.3-6.7c102.8,0,196.2,69.5,222.1,174
			C27837.9,12348.2,27763.1,12472.3,27640.3,12502.7"/>
		<path id="path418" class="st18" d="M26597.9,13884.2c-19,292-261.2,418.6-347,200.4c-64.4-163.5-307.2-579.9-375.7-651.1
			c-68.4-71.3-223.8-169-505.7-329.3l356.8-1016.4l518.7-132.5l193.1,164.5l284,1057.8c0,0-89,23.3-334.3,79.8
			C26308.3,13275.7,26612.1,13664.5,26597.9,13884.2"/>
		<path id="path420" class="st18" d="M25820.3,13193.9c-158.8,49-654.1-179.7-654.1-179.7l-136.6-978.4
			c0,0,1182.3-209.5,1407.6-194.5c239.5,15.9,1.4,1089.1,1.4,1089.1S26270.8,13055.1,25820.3,13193.9"/>
		<path id="path422" class="st20" d="M26446.3,13036.2c-3.5,3.8-9.4,4.1-13.2,0.6c-3.9-3.4-4.3-9.4-0.7-13.3l93.2-102.8
			c3.5-3.8,9.4-4.1,13.3-0.6c1.6,1.4,2.6,3.3,2.9,5.3c0.5,2.8-0.2,5.7-2.3,8L26446.3,13036.2"/>
		<path id="path424" class="st20" d="M26543.2,13018.8l-123.1-64c-2.7-1.5-4.4-4-4.9-6.7c-0.4-2-0.1-4.1,0.9-6
			c2.4-4.7,8.1-6.4,12.7-4.1l123,64.1c4.7,2.4,6.4,8.2,4,12.7C26553.4,13019.4,26547.8,13021.2,26543.2,13018.8"/>
		<path id="path426" class="st20" d="M26311.4,12654.8c-3.5,3.8-9.4,4.1-13.2,0.6c-3.9-3.4-4.3-9.4-0.7-13.3l93.2-102.8
			c3.5-3.8,9.4-4.1,13.3-0.6c1.6,1.5,2.6,3.3,2.9,5.3c0.5,2.8-0.2,5.7-2.3,8L26311.4,12654.8"/>
		<path id="path428" class="st20" d="M26408.3,12637.5l-123.1-64.1c-2.7-1.4-4.4-4-4.9-6.7c-0.4-2-0.1-4.1,0.9-6
			c2.4-4.6,8.1-6.4,12.7-4.1l123,64.1c4.7,2.5,6.4,8.2,4,12.7C26418.5,12638,26412.9,12639.8,26408.3,12637.5"/>
		<path id="path430" class="st20" d="M26241.7,12297.6c-3.5,3.8-9.4,4.1-13.2,0.6c-3.8-3.4-4.2-9.4-0.7-13.3l93.2-102.8
			c3.5-3.8,9.4-4.1,13.3-0.6c1.6,1.5,2.6,3.3,2.9,5.3c0.5,2.8-0.2,5.8-2.3,8L26241.7,12297.6"/>
		<path id="path432" class="st20" d="M26338.6,12280.3l-123.1-64.1c-2.7-1.4-4.4-4-4.9-6.7c-0.4-2-0.1-4.1,0.9-6
			c2.4-4.6,8.1-6.4,12.7-4l123,64.1c4.7,2.4,6.4,8.1,4,12.6C26348.8,12280.9,26343.2,12282.7,26338.6,12280.3"/>
		<path id="path434" class="st20" d="M26307.8,14130.4c-6.2-1-10.5-6.8-9.5-13c1-6.1,6.5-10.5,13-9.4c7.3,1.8,15-4.8,22.3-17.4
			c29.5-50.6,33.1-162.5,24.3-181.2c-28.7-0.4-110.7,10.5-111.6,10.6c-7,1.2-11.9-3.5-12.7-9.8c-0.9-6.1,3.5-11.8,9.8-12.7
			c2.4-0.3,40.6-5.4,74.5-8.5c17.9-1.6,34.7-2.7,44.1-2.2c4,0.3,11.2,2.1,16.1,12.5c15.8,33.9,4.4,164.8-30.8,211.6
			C26333.1,14129.9,26318,14131.8,26307.8,14130.4"/>
		<path id="path436" class="st20" d="M27532.4,12067.2l-746.3,184c-5.2,1.6-9.9-2-11.2-6.7c-1.1-4.9,1.8-9.8,6.7-11.2l746.3-184
			l2.3-0.2c4,0,7.8,2.9,8.9,6.9C27540.2,12060.9,27537.3,12065.9,27532.4,12067.2"/>
		<path id="path438" class="st20" d="M26907.9,11825.3l-307.6,89.4l-2.5,0.5c-4,0-7.6-2.7-8.7-6.7c-1.6-4.7,1.3-9.9,6.3-11.2
			l307.6-89.5l2.5-0.4c4,0,7.6,2.7,8.7,6.7C26915.8,11818.8,26912.9,11823.9,26907.9,11825.3"/>
		<path id="path440" class="st20" d="M27690.3,12873.9l-225.4,32.1c-2.5,0.5-5.3-0.6-7.4-2.2c-59.8-52.3-53.5-211.7-53.2-218.4
			c0.3-5,4.3-8.8,9.3-8.8h0.3c5.1,0.3,9,4.5,8.8,9.7c-0.1,1.5-6.2,151.1,43.9,201l216-30.9c9.8-24.1,49.4-134.6-34.6-191.6
			c-4.1-2.9-5.2-8.5-2.4-12.7c1.8-2.7,4.7-4.1,7.6-4.1c1.8,0,3.6,0.5,5.1,1.6c105.4,71.5,39.6,217.5,38.9,218.9
			C27696,12871.4,27693.3,12873.4,27690.3,12873.9"/>
		<path id="path442" class="st20" d="M27654.5,12344.4l-225.3,32.2c-2.6,0.4-5.4-0.7-7.4-2.2c-59.8-52.4-53.6-211.8-53.2-218.5
			c0.2-4.9,4.2-8.7,9.1-8.7h0.5c5,0.2,8.9,4.5,8.6,11.2c0,0-6.1,149.6,44,199.4l216-30.8c9.9-24.2,49.4-134.6-34.5-191.6
			c-4.2-3-5.3-8.5-2.5-12.8c1.8-2.7,4.7-4,7.6-4c1.8,0,3.6,0.4,5.2,1.6c105.4,71.5,39.5,217.5,38.9,218.8
			C27660.2,12341.9,27657.5,12344,27654.5,12344.4"/>
		<path id="path444" class="st20" d="M27427.4,11977.9l-218.5,64.1c-2.4,0.9-5.4,0.2-7.6-1.1c-66.7-43.2-83.3-201.9-84-208.6
			c-0.4-4.9,3-9.2,7.9-9.9l0.4-0.1c5-0.5,9.5,3.2,10,8.3c0.1,1.6,15.6,150.5,72.3,192.6l209.3-61.5c6.3-25.3,29.6-140.3-61.6-184.7
			c-4.5-2.2-6.4-7.6-4.3-12.2c1.4-2.9,4.1-4.7,7-5.1c1.8-0.2,3.6-0.1,5.3,0.8c114.6,55.7,70.3,209.7,69.9,211.1
			C27432.7,11974.6,27430.3,11977,27427.4,11977.9"/>
		<path id="path446" class="st20" d="M27062.5,11569.5l-177.5,91.1c-2,1.1-4.6,1-6.7,0.2c-64.5-26.2-104.9-160-106.5-165.7
			c-1.2-4.1,1-8.4,5.1-9.8l0.3-0.1c4.3-1.3,8.7,1.1,10,5.4c0.4,1.4,38.1,127,93.8,154l170.1-87.3c1.3-22.8,2.5-125.6-83.3-148.9
			c-4.3-1.2-6.8-5.5-5.7-9.8c0.7-2.7,2.7-4.7,5.1-5.5c1.5-0.5,3.1-0.7,4.7-0.2c107.8,29.1,95,168.9,94.8,170.2
			C27066.5,11565.9,27064.9,11568.3,27062.5,11569.5"/>
		<path id="path448" class="st18" d="M31174.2,15703.2c-60.3,32-130.5,24.9-183.1-11.3c2.6,10.7,4.9,21.4,5.7,32.2
			c5.5,75.6-33.1,151-104.4,188.8c-63.2,33.6-136.1,28.7-193.4-5.5c0.3,71-36.4,139.9-103.5,175.5c-79.8,42.4-175.1,23.7-234.7-38.6
			c3,11.5,5.3,23.2,6.2,34.8c5.5,75.6-33.1,151-104.4,188.8c-96.3,51.1-215.8,14.5-266.9-81.8l-286.7-540
			c-51.1-96.5-14.5-215.8,81.9-267c79.9-42.4,175.2-23.6,234.8,38.8c-22.5-86.5,15.7-180,98.1-223.8c63-33.4,135.6-28.7,192.9,5.2
			c-0.2-70.9,37-139.6,104-175.2c81-43,178-23.3,237.3,41.3c-0.9-64.3,32.6-126.8,93.3-159c86.3-45.8,193.4-13,239.3,73.4l257,484.1
			c11.9,22.4,18.4,46.3,20.2,70.1C31272.7,15601.7,31238.1,15669.3,31174.2,15703.2"/>
		<path id="path450" class="st20" d="M30366.7,16055.2c-6.1,3.5-13.7,1-16.9-5.1l-335.1-626.3c-3.2-6.1-0.9-13.6,5.1-16.8
			c1.4-0.8,2.9-1.3,4.4-1.5c4.9-0.6,10,1.8,12.5,6.5l335.1,626.4C30375,16044.5,30372.7,16052,30366.7,16055.2"/>
		<path id="path452" class="st20" d="M30512.3,15602.5c-6.1,2.8-13.6,0.3-16.6-5.8l-190.2-392c-3-6.2-0.4-13.6,5.8-16.6
			c1.2-0.7,2.5-1,3.8-1.2c5.2-0.7,10.4,2,12.8,6.9l190.2,392.1C30521.1,15592.1,30518.5,15599.5,30512.3,15602.5"/>
		<path id="path454" class="st20" d="M30959.9,15675.8c-6.3,2.7-13.7,0.2-16.6-6l-210.7-446.9c-3-6.2-0.3-13.7,5.9-16.6
			c1.2-0.6,2.5-0.9,3.8-1.1c5.2-0.6,10.4,2,12.8,7l210.7,446.9C30968.7,15665.3,30966.1,15672.8,30959.9,15675.8"/>
		<path id="path456" class="st20" d="M30689.4,15141c-6.5,3.1-13.7-0.3-16.3-6.7l-26.6-64.2c-2.6-6.3,0.4-13.7,6.8-16.2
			c1-0.5,2.1-0.8,3.2-0.9c5.4-0.7,10.9,2.3,13.1,7.6l26.5,64.1C30698.8,15131.1,30695.7,15138.4,30689.4,15141"/>
		<path id="path458" class="st20" d="M29813.6,15728.8c-3-0.3-5.6-2.2-6.7-5l-51.1-128.3c-1.5-3.9,0.4-8.7,4.5-10.3
			c4-1.6,8.6,0.4,10.2,4.5l49.2,123.5c25.2,0.5,142.6-2.7,195.8-102.7l-54.4-142.9c-16.4-4.1-86.5-18.4-153.3,23.1
			c-3.7,2.3-8.5,1.2-10.9-2.6c-2.1-3.5-1.1-8.4,2.5-10.8c82.3-51.2,166.5-24.9,170.1-23.7c2.3,0.7,4.1,2.5,4.9,4.7l57.1,149.9
			l0.6,2.2c0.1,1.5-0.3,2.9-0.9,4.1C29967.9,15739,29815.2,15728.9,29813.6,15728.8"/>
		<path id="path460" class="st20" d="M30132.9,15522.7c-3,0-5.7-1.7-7-4.4l-60.8-124.1c-1.9-3.8-0.3-8.6,3.6-10.5
			c4-2,8.7-0.3,10.6,3.6l58.5,119.5c25.2-1.5,142-13.6,187.4-117.4l-65.2-138.3c-16.6-2.9-87.7-11.8-151.1,34.7
			c-3.5,2.5-8.4,1.8-11-1.7c-2.4-3.4-1.8-8.4,1.7-11.1c78.1-57.2,164.1-37.4,167.7-36.5c2.4,0.5,4.3,2.1,5.3,4.3l68.4,145.1l0.7,2.2
			c0.2,1.4,0,2.8-0.6,4.1C30287.5,15521.1,30134.5,15522.7,30132.9,15522.7"/>
		<path id="path462" class="st20" d="M30460.4,15364.7c-3.1,0-5.8-1.7-7.1-4.5l-60.8-124c-1.8-3.8-0.3-8.7,3.7-10.5
			c3.9-2,8.6-0.4,10.5,3.6l58.5,119.4c25.2-1.4,142-13.6,187.4-117.3l-65.2-138.3c-16.6-2.9-87.6-11.8-151,34.7
			c-3.6,2.5-8.4,1.8-11.1-1.8c-2.4-3.3-1.7-8.3,1.7-11c78.1-57.3,164.1-37.5,167.8-36.5c2.3,0.5,4.2,2.1,5.2,4.3l68.4,145l0.7,2.2
			c0.2,1.5,0,2.9-0.5,4.2C30615,15363.1,30461.9,15364.7,30460.4,15364.7"/>
		<path id="path464" class="st20" d="M30807,15231.6c-2.8,0-5.4-1.6-6.7-4.2l-57.5-117.5c-1.8-3.6-0.3-8.2,3.4-10
			c3.8-1.8,8.2-0.3,10,3.4l55.4,113.2c23.9-1.4,134.5-12.9,177.5-111.2l-61.7-131c-15.7-2.7-83-11.2-143.1,32.9
			c-3.3,2.4-7.9,1.7-10.4-1.7c-2.3-3.2-1.7-7.9,1.6-10.4c73.9-54.2,155.4-35.5,158.8-34.6c2.2,0.5,4.1,2,5,4.1l64.8,137.4l0.6,2.1
			c0.3,1.3,0.1,2.7-0.4,3.9C30953.5,15230.1,30808.5,15231.6,30807,15231.6"/>
		<path id="path466" class="st21" d="M39414.4,21686.3c-639-599.8-1638.5-539.4-2228,134.6s-549.2,1710.4,89.9,2310.1
			c639.1,599.8,1638.5,539.3,2228-134.7S40053.5,22286.1,39414.4,21686.3z M40528.5,23504.6l578.3,529.5l-343.1,626.4l-714.7-226.6
			c-11.9,14.2-22,29.3-34.3,43.3c-169.4,193.7-363.2,350.4-571.3,472.8l69.1,756.5l-663.7,214.3l-369.7-666.9
			c-257.7,19.9-517.4-5.9-768.3-76.7l-455.9,551.4L36645,25383l191.9-688c-13.3-11.9-27.6-22.1-40.7-34.5
			c-186.2-174.7-335.7-375.5-451.8-591.6l-731.5,9.1l-159.3-701.1l611.2-297.1c-17.1-274,12.4-550.8,87.4-818.2l-555.5-535.5
			l351.6-621.3l691.8,239.6c5.5-6.5,10-13.4,15.6-19.8c166.6-190.5,356.6-345.5,560.7-467l-6.4-833.1l677.4-162.2l307.2,685.3
			c261.6-19.8,525.1,7.7,779.3,81.3l519.9-569.8l597,369.1l-231.8,700.2c4.9,4.6,10.3,8.3,15.2,12.9
			c192.6,180.8,345.7,389.8,463.2,614.5l725.8-58l195.3,691.3l-649.6,370.9C40620.6,23009.4,40593,23260.7,40528.5,23504.6"/>
		<path id="path468" class="st21" d="M9046.9,18442.6c-504.3-473.3-1292.9-425.7-1758.1,106.2
			c-465.1,531.8-433.3,1349.6,70.9,1822.8c504.3,473.3,1292.9,425.6,1758.1-106.2C9583,19733.5,9551.1,18915.8,9046.9,18442.6z
			 M9926,19877.4l456.3,417.8l-270.8,494.3l-563.9-178.9c-9.4,11.2-17.4,23.2-27,34.2c-133.7,152.9-286.7,276.5-450.8,373.1
			l54.5,596.9l-523.8,169.1l-291.7-526.2c-203.4,15.7-408.3-4.7-606.3-60.6l-359.8,435.2l-481.3-272.8l151.5-542.8
			c-10.5-9.5-21.8-17.5-32.1-27.2c-146.9-137.9-264.9-296.4-356.5-466.9l-577.3,7.2l-125.7-553.2l482.3-234.5
			c-13.5-216.2,9.8-434.6,69-645.6l-438.4-422.5l277.5-490.3l545.9,189.1c4.3-5.1,7.9-10.6,12.3-15.6
			c131.5-150.3,281.4-272.6,442.5-368.6l-5.1-657.3l534.5-128l242.4,540.7c206.4-15.6,414.3,6.1,614.9,64.2l410.2-449.6l471.1,291.2
			l-182.9,552.6c3.9,3.5,8.1,6.5,12,10.1c152,142.7,272.8,307.6,365.5,484.9l572.7-45.8l154.1,545.5l-512.6,292.7
			C9998.7,19486.6,9976.8,19684.9,9926,19877.4"/>
		<path id="path470" class="st26" d="M9095.7,14299.7l-295.5,23.6l-18.5-35.4c-48.3-92.5-109.8-174-182.5-242.3l0.1,0.2
			c-2.1-1.7-4.2-3.4-6.2-5.3l-28.6-26.4l94.7-286l-167.7-103.6l-210.1,230.2l-36.1-10.4c-100.2-29.1-203.2-39.8-306.2-32l-42.4,3.2
			l-126-281.1l-189.2,45.3l2.6,336.8l-29.8,17.7c-83.2,49.6-157.6,111.6-220.8,183.8l-1.1,1.4c-1.7,2.3-3.4,4.5-5.2,6.6l-26.8,31.6
			l-282.3-97.8l-99.9,176.6l225.8,217.6l-9.8,34.8c-29.7,106-41.4,214.9-34.6,323.8l2.5,40.4l-250.1,121.6l45.5,200.2l295.3-3.6
			l17.4,32.3c47.5,88.5,107.4,166.9,178,233.1c2,1.9,4.1,3.5,6.1,5.2c3.3,2.7,6.7,5.5,9.9,8.4l28.1,25l-78.1,279.9l171.1,97
			l184.4-223.1l37.9,10.7c98.7,27.9,200.3,38,301.9,30.2l38.7-3l150.1,270.7l185.6-59.9l-28.2-307.9l33-19.5
			c85-50,160.8-112.8,225.3-186.4c1.9-2.2,3.6-4.5,5.3-6.8c2.7-3.5,5.3-6.9,8.2-10.4l26-31.1l291.7,92.5l97.6-178.1l-235.1-215.2
			l9.3-35.4c25.7-97.4,36.5-196.5,31.9-294.7l-1.7-36.9l264.1-150.9L9095.7,14299.7z M8982.9,14974.5l251.6,230.4l-190.9,348.5
			l-309-98c-62,68.8-133,128.8-211.4,178.9l30,328.8l-372.4,120.2l-161.1-290.6c-89.6,3.3-178.9-5.6-266.4-26.6l-199.4,241.2
			l-341.6-193.6l83.2-298.3c-67.2-64.9-125.6-139.5-173.8-222.4l-320.4,4l-88.4-389.2l264.4-128.5c-2.4-96.8,8.1-193.3,31.4-287.9
			l-241.7-233l195.7-345.8l299.8,103.8c59.4-64.1,126.6-120.3,200.3-167.6l-2.8-364.3l380.2-91l132.7,295.9
			c90.6-2.9,180.9,6.8,269.5,28.8l227.5-249.3l334.2,206.6l-100.3,303c64,63.9,119.6,137,165.8,218l315.5-25.3l108.4,383.8
			l-282.6,161.4C9011.9,14802.6,9002.5,14889.1,8982.9,14974.5"/>
		<path id="path472" class="st26" d="M8406,14274.7c-115.9-108.8-266.7-164.4-424.5-156.6c-163.4,8.1-314.3,82.2-425.1,208.9
			c-226.6,259.1-211.5,657,33.6,887.1c108.7,102,248.2,157.3,395.4,157.3c9.7,0,19.4-0.3,29.1-0.7c163.4-8.1,314.3-82.3,425.1-208.9
			C8666.2,14902.7,8651.1,14504.8,8406,14274.7L8406,14274.7z M8020.5,15491.4c-191,9.5-373.2-57.8-513.2-189.1
			c-292.1-274.2-310.9-747.4-41.9-1054.9c132.6-151.6,313.7-240.4,510.1-250c11.8-0.6,23.5-0.9,35.2-0.9c178,0,346.6,66.8,478,190
			c292.1,274.1,310.9,747.3,41.9,1054.9C8398.1,15392.9,8216.9,15481.7,8020.5,15491.4"/>
		<path id="path474" class="st26" d="M34368.2,25085.3c-326.2-306.1-836.4-275.3-1137.3,68.7c-300.9,344.1-280.4,873.1,45.9,1179.2
			c326.2,306.2,836.3,275.3,1137.3-68.7C34715,25920.4,34694.4,25391.5,34368.2,25085.3z M34936.9,26013.5l295.2,270.3l-175.2,319.7
			l-364.8-115.7c-6.1,7.3-11.2,15-17.5,22.1c-86.5,98.9-185.4,178.9-291.6,241.4l35.3,386.2l-338.9,109.4l-188.7-340.5
			c-131.5,10.2-264.1-3-392.1-39.1l-232.8,281.4l-311.3-176.4l98-351.2c-6.8-6.1-14.1-11.3-20.8-17.6
			c-95.1-89.2-171.4-191.7-230.6-302l-373.5,4.7l-81.2-357.9l311.9-151.7c-8.7-139.8,6.4-281.1,44.6-417.6l-283.5-273.4l179.5-317.1
			l353.1,122.3c2.8-3.3,5.1-6.9,8-10.1c85-97.3,182-176.4,286.2-238.4l-3.3-425.3l345.8-82.8l156.8,349.8
			c133.5-10.1,268,4,397.8,41.6l265.4-290.9l304.7,188.4l-118.3,357.5c2.5,2.3,5.3,4.2,7.8,6.5c98.3,92.3,176.4,199,236.4,313.7
			l370.5-29.6l99.7,352.8l-331.6,189.4C34983.9,25760.7,34969.8,25889,34936.9,26013.5"/>
	</g>
</g>
</svg>
