<?xml version="1.0" encoding="utf-8"?>
<!-- Generator: Adobe Illustrator 25.4.1, SVG Export Plug-In . SVG Version: 6.00 Build 0)  -->
<svg version="1.1"
	 id="svg2" sodipodi:docname="vecteezy_car-maintenance-illustration-concept-on-white-background_16269491.eps" xmlns:inkscape="http://www.inkscape.org/namespaces/inkscape" xmlns:sodipodi="http://sodipodi.sourceforge.net/DTD/sodipodi-0.dtd" xmlns:svg="http://www.w3.org/2000/svg"
	 xmlns="http://www.w3.org/2000/svg" xmlns:xlink="http://www.w3.org/1999/xlink" x="0px" y="0px" viewBox="0 0 6240 4160"
	 style="enable-background:new 0 0 6240 4160;" xml:space="preserve">
<style type="text/css">
	.st0{fill:#FFFFFF;}
	.st1{fill:#7A8DB0;}
	.st2{fill:#081C3D;}
	.st3{fill:#577BBC;}
	.st4{fill:#3E3E3E;}
	.st5{fill:#2F4366;}
	.st6{fill:#375EA5;}
	.st7{fill:#4167AA;}
	.st8{fill:#C4D6F7;}
	.st9{fill:#D7E5FF;}
	.st10{clip-path:url(#SVGID_00000109726472653663952640000010587686487848132231_);}
	.st11{fill:#A5AEBD;}
	.st12{fill:#EEF4FF;}
	.st13{fill:#EDF3FF;}
	.st14{clip-path:url(#SVGID_00000105411382060857255010000002303775770297779902_);}
	.st15{clip-path:url(#SVGID_00000085225290789512749990000004188472837499845548_);}
	.st16{fill:#2C4DA2;}
	.st17{fill:#202020;}
	.st18{fill:#F5B0A6;}
	.st19{fill:#F18A8B;}
	.st20{fill:#CA101B;}
	.st21{fill:#F3CE90;}
	.st22{fill:#EF7C59;}
	.st23{fill:#F19A6D;}
	.st24{fill:#565656;}
	.st25{fill:#40947E;}
	.st26{fill:#F9880A;}
</style>
<sodipodi:namedview  bordercolor="#000000" borderopacity="0.25" id="namedview4" inkscape:deskcolor="#d1d1d1" inkscape:pagecheckerboard="0" inkscape:pageopacity="0.0" inkscape:showpageshadow="2" pagecolor="#ffffff">
	</sodipodi:namedview>
<g id="g8" transform="matrix(1.3333333,0,0,-1.3333333,0,4160)" inkscape:groupmode="layer" inkscape:label="ink_ext_XXXXXX">
	<g id="g10" transform="scale(0.1)">
		<path id="path12" class="st0" d="M46800,0H0v31200h46800V0 M10612,6913.3c2389.2-395.7,4560.9-527.8,6394.8-527.9
			c3684.2,0,6007.3,533,6007.3,533c1979.5,87.8,2335.9,2043.4,2335.9,2043.4c70.7,240.1,120.6,489.9,153.9,742.8
			c66.3,70.6,78.4,136.1,79.5,142.5l5.2,31.8l-20.7,24.7c-12.1,14.3-23.9,39-34.8,68.9c35.3,406.8,31.9,816.2,6.6,1201.9
			c9.9,214.5-14.1,401.6-52.1,558c-104.4,868.3-288,1518.8-303.6,1573.1c-0.6,1.2-0.6,2.4-1.3,3.7c0.6,4.8,0.6,10.3,1.2,15.1
			c106,1356.6-1111,2394.5-1111,2394.5c-101.1,141.4-1462.9,2338-1462.9,2338c-1557.8,2492.8-2513.2,2505.6-2533.5,2505.6h-0.1
			c-1343.3,272.7-3549.9,288.3-4035.6,288.3c-62.5,0-96.5-0.3-96.5-0.3c-1742.1-6.3-3149.9-314.5-3149.9-314.5
			c-1194.9-534.5-2652.9-3706.1-2652.9-3706.1c0.1-45.5-672.8-1133.8-672.8-1133.8c-763.6-992.4-740.3-1881.3-740.3-1881.3
			s-1.2-3-3-8.5c-756.6-1918.9-366.2-3951.7-366.2-3951.7c10.3-2831.8,1917.8-2942,2214.3-2942
			C10598.5,6912.5,10612,6913.3,10612,6913.3"/>
		<path id="path14" class="st1" d="M10771.7,4181.4c4228.8-1020.5,25813.8-514.2,27038.4,124.3
			c1855.9,967.7,2978.7,2867,3447,5065.4H5444.9C6448,6483.1,8875.9,4638.9,10771.7,4181.4"/>
		<path id="path18" class="st2" d="M11299.9,10074.7l-506.5-1.8c-864.5-3.2-1569.2-713-1566-1577.5l3.5-952.3
			c3.2-864.5,713-1569.2,1577.5-1566.1l506.5,1.9c864.5,3.1,1569.2,713,1566.1,1577.4l-3.5,952.4
			C12874.2,9373.1,12164.4,10077.8,11299.9,10074.7"/>
		<path id="path20" class="st2" d="M23029.9,10117.3l-506.6-1.8c-864.4-3.1-1569.1-713-1566-1577.4l3.5-952.4
			c3.1-864.4,713-1569.1,1577.4-1566l506.6,1.8c864.5,3.2,1569.2,713,1566,1577.5l-3.5,952.3
			C24604.2,9415.8,23894.4,10120.5,23029.9,10117.3"/>
		<path id="path22" class="st0" d="M25346.3,9754.2c-85-55.3-256.6-114.8-592-84.4l-11.3,1.1l-11-2.6
			c-27.1-6.3-2719.1-630-3662.6-436.9l-20.5,4.1l-19.4-7.6c-3.2-1.3-327.5-127.8-842.4-198c-463.9-63.4-1180.3-92.4-1980.7,121.5
			c1.1,132.4-3.7,482.5-72.7,890.2c-116.8,689.6-352.5,1185.8-700.7,1474.9c-35.9,34-438.1,402.9-795.1,235.3
			c-181.3-85.1-312.1-293.1-388.7-618.2c-84.9-360.3-106.1-875.3-63.1-1531.9c-270.2,72.4-1076.8,289.5-1892.8,520.3
			c-1632.9,462-2019.5,614.8-2106.2,664.5c-0.7,252.1-29.8,1693-593.4,2148.7c-157.9,127.6-343.3,168.8-551.1,122.5
			c-24.2-4-103.4-24-182.9-121.6c-86.1-105.6-139.5-258.3-169.9-434c13.6,274.6,44.4,598.3,92.2,969
			c37.1,73.8,232.6,476.4,231.5,769l-0.2,5.1c-0.3,4-28.3,403.8,123.7,797.5l1.4,3.7c4.8,15.1,497.4,1506.8,1512.9,1663.8
			c33.1,5.5,3314,543.5,4394.9,389.3l6.3-0.9l6.5,0.3c6.6,0.2,674.9,24.8,1604.2-172.8c545.1-115.8,1072.1-284.3,1566.3-500.8
			c617.1-270.2,1184.7-616.3,1687-1028.8l1.2-1c348.3-273.5,1276.6-1022.8,1387.8-1201.4l9.6-15.5l15.9-8.8
			c15.3-8.5,1536.5-863.6,1694.2-1814.5l3.8-21.8l15.3-15.7c1.1-1.2,116.9-121.8,215.5-346.4c90.7-206.6,185.2-546.6,120.2-992.8
			l-1.1-7.9l0.6-8c0.2-1.7,14-170,16.2-349.6c4.3-338.2-36.3-392.2-38-394.3l-19.6-24l4.5-30.7c5.5-37.8,33.7-213.2,93.6-315.9
			C25424.7,9825.4,25399.6,9788.9,25346.3,9754.2 M25485.5,10159.4c28.6,55.6,54.3,170.2,50.6,455.9c-2.1,164.2-13.2,314.7-16,351
			c68,478.7-35.5,844.8-134.7,1068.1c-88.1,198.5-187.5,321.7-225.3,364.6c-78,423.8-396.6,870.2-947.4,1327.3
			c-372.1,308.7-722.4,514.3-798.7,557.9c-182.4,254.3-1279.1,1119.2-1409,1221.3c-512.9,421-1092.2,774.2-1721.8,1049.6
			c-503.6,220.3-1040.3,391.6-1595.3,509.3c-907,192.3-1552.6,177.5-1628.2,175c-1108,154.3-4295.8-368.3-4430.5-390.5
			c-257-39.8-502.9-158.6-731-353.2c-179.8-153.4-348.9-354-502.7-596.4c-253.7-399.6-379.1-774.2-390.1-807.8
			c-158-410.5-135.1-813.5-132.3-854.2c-0.1-281.9-219.3-708.6-221.5-712.9l-5.7-11l-1.6-12.3
			c-106.8-823.5-130.8-1420.1-71.5-1773.4c45.2-268.7,129.3-324.1,175.3-333.1l94-18.4l-10.7,95.1
			c-148.4,1319.3,204.1,1440.1,231.5,1447.4l1-0.1l7.1,1.6c167.2,37.7,309.2,7,434.4-94.2c225.3-182.1,390.5-595.6,477.7-1195.7
			c67.2-462.4,63.5-873.6,63.5-877.7l-0.3-26l16.7-20c32.6-38.8,108.9-129.7,2164.8-711.9c1006.4-285,2007.2-551.4,2017.2-554
			l95.3-25.4l-7.3,98.4c-50.7,689.1-33,1223.1,52.7,1587.2c66.3,281.4,171.1,457.6,311.6,523.7c278.7,131.2,636.8-207.7,640.4-211.1
			l3.9-3.6c401.2-331.8,576.7-938.6,653.2-1389.2c84.2-495.2,70.3-915.9,70.2-920.1l-2-55.2l53.3-14.9
			c505.1-141.1,979.3-187.3,1383.3-187.2c273.2,0,514.5,21,711.4,48.1c463.6,63.8,771.3,169.3,850.4,198.4
			c132.4-25,293.7-35.8,474-35.8c1137.4,0,3032.5,432.2,3217.5,475c61.7-5.3,118.8-7.7,171.8-7.7c598.1,0,656.3,311.4,658.7,325.8
			l5.2,31.8l-20.7,24.7C25533.5,9944.4,25501,10069.7,25485.5,10159.4"/>
		<path id="path24" class="st3" d="M25025.2,13309.2c0.6,4.8,0.6,10.3,1.2,15.1c106,1356.6-1111,2394.5-1111,2394.5
			c-101.1,141.4-1462.9,2338-1462.9,2338c-1561.6,2498.9-2517.9,2505.7-2533.6,2505.6c-1516.1,307.8-4132.1,288-4132.1,288
			c-1742.1-6.3-3149.9-314.5-3149.9-314.5C11442,20001.4,9984,16829.8,9984,16829.8c0.1-45.5-672.8-1133.8-672.8-1133.8
			c-763.6-992.4-740.3-1881.3-740.3-1881.3s-1.2-3-3-8.5c-756.6-1918.9-366.2-3951.7-366.2-3951.7
			c11.2-3070.5,2252.8-2941.2,2252.8-2941.2c7188.9-1190.7,12402.1,5.1,12402.1,5.1c1979.5,87.8,2335.9,2043.4,2335.9,2043.4
			c541.2,1838.1-135.4,4237.2-166,4343.7C25025.9,13306.7,25025.9,13307.9,25025.2,13309.2"/>
		<path id="path26" class="st4" d="M8609.7,10449.9c0,0-236.3,395.5-234.6-59c0,0-260.8-1884.5,610-2487.3
			c0,0,556.8-351.5,615.2,234.5c0,0,118.4,757.9-449.3,1361.8C9151,9499.9,8627.7,10361.6,8609.7,10449.9"/>
		<path id="path28" class="st5" d="M8943.3,17033.6c-30.2-15.2,8.6-363.5,8.6-363.5c429-328.1,1024.2-352.7,1024.2-352.7
			c62.8,59.7,114.7,130.8,157.4,209.1c224,402.6,216.4,981.9,216.4,981.9C9076.9,17602.5,8973.5,17048.9,8943.3,17033.6"/>
		<path id="path30" class="st5" d="M24387.2,17445.7c-29.8,15.1-313.6,591.6-1630.4,423.8c-14.6-1.3-29.7-3.8-44.9-5.6
			c0,0,160.5-480.6,417-862.1c70.1-104.5,147.4-201.2,230.7-279.1c0,0,585.9,27.6,1012,352.1c3.6,2.5,6.6,4.9,9,7.3
			C24380.6,17082.1,24417.6,17430.7,24387.2,17445.7"/>
		<path id="path32" class="st6" d="M22756.8,17869.5c0-3.1,0.6-6.1,0.6-9.1l486.4-452.7l1143.4,38
			C24357.4,17460.8,24073.6,18037.3,22756.8,17869.5"/>
		<path id="path34" class="st2" d="M23128.9,17001.8c70.1-104.5,147.4-201.2,230.7-279.1c0,0,585.9,27.6,1012,352.1
			C24221.6,16973.1,23319.3,16995.9,23128.9,17001.8"/>
		<path id="path36" class="st6" d="M8943.3,17033.6c0,0,760.8-234.8,981.9-52.2c221.8,182.6,424.7,527,424.7,527
			C9076.9,17602.5,8973.5,17048.9,8943.3,17033.6"/>
		<path id="path38" class="st2" d="M10103.7,16537.9c-95.6-30.7-1151.8,132.2-1151.8,132.2c429-328.1,1024.2-352.7,1024.2-352.7
			c62.8,59.7,114.7,130.8,157.4,209.1C10124.3,16536.7,10114.6,16541.6,10103.7,16537.9"/>
		<path id="path40" class="st6" d="M25218.4,11824.6c-487.5-564.7-1292-968.2-2277.6-1250.5
			c-4262.9-1221.4-11912.4-179.7-11912.4-179.7c-2.4,0-4.2,0-6.6,0.6c-553.4,37.4-2391.6,1248.1-2391.6,1248.1
			c-364.5,751.3,56.8,2048.4,95.1,2163.1c-756.6-1918.9-366.2-3951.7-366.2-3951.7c6.9-1902.2,869.9-2575.9,1525.2-2814.1
			c402.9-145.8,727.6-127.1,727.6-127.1c7188.9-1190.7,12402.1,5.1,12402.1,5.1c411.4,18.5,752.2,117.3,1034.7,262.5
			C25126,7734.5,25350,8961.8,25350,8961.8c535.2,1817.5-120.6,4183.9-164.8,4339.5
			C25273.7,12959.2,25218.4,11824.6,25218.4,11824.6"/>
		<path id="path42" class="st7" d="M8725.4,13806.2c-509.3-1333.6-95.1-2163.1-95.1-2163.1c-46.9,393.7,238.4,1096.7,238.4,1096.7
			C8634.5,13369.5,8725.4,13806.2,8725.4,13806.2"/>
		<path id="path44" class="st7" d="M24972.8,12712.5c0,0,259.5-531.8,245.6-887.9c0,0,94.1,1213.9-12.6,1387.8
			C25205.8,13212.4,25018.1,12753.1,24972.8,12712.5"/>
		<path id="path46" class="st5" d="M25122.9,11028.9c-17.4-88.4-534.4-953.8-534.4-953.8c-563.4-608.1-439.4-1365.1-439.4-1365.1
			c62.7-585.5,616.9-230.1,616.9-230.1c866.4,609.2,591.9,2491.8,591.9,2491.8C25356.2,11426.2,25122.9,11028.9,25122.9,11028.9"/>
		<path id="path48" class="st5" d="M24877.2,8826.4c0,0-554.2-355.6-616.9,230c0,0-39.4,241.2,27.5,560.6
			c-209.1-474-138.7-907-138.7-907c62.7-585.5,616.9-230.1,616.9-230.1c287,201.8,448.4,543.6,536.4,910.1
			C25207,9162.1,25070.7,8962.4,24877.2,8826.4"/>
		<path id="path50" class="st0" d="M25146.1,9891.2c-179.2,144.3-488.3,57.9-690.4-192.9c-202-250.9-220.5-571.3-41.3-715.6
			c179.1-144.3,488.2-57.9,690.3,192.9C25306.7,9426.5,25325.3,9746.9,25146.1,9891.2"/>
		<path id="path52" class="st5" d="M9564.3,8518.6c-58.5-586-615.2-234.6-615.2-234.6c-370.9,256.8-536.1,746-604,1223.1
			c29-575.3,168.5-1277.1,640-1603.5c0,0,556.8-351.5,615.2,234.5c0,0,34.8,227.6-26.2,532.2
			C9572.8,8576.2,9564.3,8518.6,9564.3,8518.6"/>
		<path id="path54" class="st0" d="M8625.3,9337c-161.3-131.9-126.8-440.9,77.1-690.3c203.9-249.4,499.9-344.7,661.2-212.9
			c161.3,131.9,126.8,440.9-77.1,690.3C9082.6,9373.5,8786.6,9468.8,8625.3,9337"/>
		<path id="path56" class="st8" d="M9933.9,15715.6c-30.4,15.1-465.4-19.4-465.4-19.4c-293.3-384.3-455.4-689.7-548.1-940.5
			c-161.6-435.7-116.3-706.2-192.6-940.5c-118.8-369.8,140.5-1075.9,140.5-1075.9c585,179.2,3400.8-598.5,3400.8-598.5
			c-0.6,172-647.5,1710.2-647.5,1710.2C10361.3,14686.3,9933.9,15715.6,9933.9,15715.6"/>
		<path id="path58" class="st8" d="M24880.7,14650.6c-160.7,363.6-402.4,742.2-786.7,1027.9c0,0-202.3-15.9-232.6-31.2
			c0,0-153.2-1002.3-1407.4-1848c0,0-620.4-1552.9-619.8-1725c0,0,2552.1,812.5,3138.3,638.8c0,0,370,511.1,247.3,878.7
			C25152,13794,25075.8,14211.1,24880.7,14650.6"/>
		<path id="path60" class="st5" d="M20555.9,20276.3c-3196.8,49-6252.6,234.8-7666.1,98.4c-424.4-41-2139.3-3270-2139.3-3270
			c106.8-211.7,12195.8-107.2,12195.8-107.2C22577.4,18465.7,20555.9,20276.3,20555.9,20276.3"/>
		<path id="path62" class="st9" d="M20556.7,19991.7c-53.2,50.7-123.5,78.8-197,80.1c-1024.2,17.5-2014.8,47.5-2974.8,76.7
			c-1196,36.4-2325.6,70.7-3206.5,67.5c-480.8-1.7-862.7-14.4-1162.3-38.5c-70-5.6-135.1-36.1-184-86.4
			c-296.6-305-938.1-1342.5-1536.8-2418.9c-106.4-191.3,26.1-427.7,244.9-436.3c930.6-36.1,3038-69.2,7767.2-52
			c1193.8,4.3,2244,11,2905.1,15.6c221.5,1.6,360.4,237.6,256.6,433.3C21941.3,18627.1,20926.8,19639.6,20556.7,19991.7"/>
		<path id="path64" class="st6" d="M22946.3,16997.5c-237.3-0.8-12032.9-265.9-12195.8,107.2c0,0-623-881-561.7-1082.7
			c0,0,7369.3,955.9,10019.1-44.4c0,0,3434.1-27.9,3748.2-329.8C24270.3,15346,23183.6,16998.4,22946.3,16997.5"/>
		<g id="g66">
			<g>
				<defs>
					<path id="SVGID_1_" d="M19307.4,17183.9c-4729.2-17.2-6836.6,15.9-7767.2,52c-218.8,8.6-351.3,245-244.9,436.3
						c598.7,1076.4,1240.2,2113.9,1536.8,2418.9c48.9,50.3,114,80.8,184,86.4c299.6,24.1,681.5,36.8,1162.3,38.5
						c880.9,3.2,2010.5-31.1,3206.5-67.5c960-29.2,1950.6-59.2,2974.8-76.7c73.5-1.3,143.8-29.4,197-80.1
						c370.1-352.1,1384.6-1364.6,1912.4-2358.9c103.8-195.7-35.2-431.7-256.6-433.3
						C21551.4,17194.9,20501.2,17188.2,19307.4,17183.9"/>
				</defs>
				<clipPath id="SVGID_00000063616781303931682540000009333322291908557219_">
					<use xlink:href="#SVGID_1_"  style="overflow:visible;"/>
				</clipPath>
				<g id="g68" style="clip-path:url(#SVGID_00000063616781303931682540000009333322291908557219_);">
					<path id="path74" class="st11" d="M13256.3,17197.8c-370.5,4.7-685.1,10.2-952.4,16l0,0
						C12571.2,17208,12885.9,17202.5,13256.3,17197.8 M17366.2,20149.1c-10.1,0.3-20.2,0.6-30.2,0.9
						C17346,20149.7,17356.1,20149.4,17366.2,20149.1 M17276.1,20151.8c-7.3,0.2-14.7,0.5-22,0.7
						C17261.4,20152.3,17268.8,20152,17276.1,20151.8 M17165.4,20155.2c-1.4,0-3,0.1-4.4,0.1
						C17162.4,20155.3,17164,20155.2,17165.4,20155.2 M17045.1,20158.8c-0.2,0-0.4,0-0.6,0
						C17044.7,20158.8,17044.9,20158.8,17045.1,20158.8 M17037.1,20159.1c-676.7,20.4-1326,39-1913.2,49.1l0,0
						C15711.1,20198.1,16360.4,20179.5,17037.1,20159.1"/>
					<path id="path76" class="st12" d="M15457.9,17181.5c-894.2,3-1617.2,8.8-2201.6,16.3c-370.4,4.7-685.1,10.2-952.4,16
						l2820,2994.4c587.2-10.1,1236.5-28.7,1913.2-49.1c2.5-0.1,4.9-0.2,7.4-0.3c0.2,0,0.4,0,0.6,0c38.6-1.2,77.1-2.3,115.9-3.5
						c1.4,0,3-0.1,4.4-0.1c29.5-0.9,59.1-1.8,88.7-2.7c7.3-0.2,14.7-0.5,22-0.7c19.9-0.6,39.9-1.2,59.9-1.8
						c10-0.3,20.1-0.6,30.2-0.9c6.2-0.2,12.4-0.4,18.7-0.6c278.5-8.5,559.6-17,843.3-25.3L15457.9,17181.5"/>
					<path id="path78" class="st13" d="M16913.7,17179.2c-91.3,0-181.1,0-269.7,0.1l2743,2912.7c320.9-7.7,645.1-14.6,972.7-20.2
						c73.5-1.3,143.8-29.4,197-80.1c38.3-36.4,83.6-80,134.5-129.8l-2525.1-2681.3C17722.5,17179.7,17305.6,17179.2,16913.7,17179.2
						"/>
				</g>
			</g>
		</g>
		<path id="path80" class="st9" d="M9933.9,15715.6c-30.4,15.1-465.4-19.4-465.4-19.4c-293.3-384.3-455.4-689.7-548.1-940.5
			c44.5-59.3,842.5-1064.5,2701.2-904.7C10361.3,14686.3,9933.9,15715.6,9933.9,15715.6"/>
		<path id="path82" class="st9" d="M24094,15678.5c0,0-202.3-15.9-232.6-31.2c0,0-153.2-1002.3-1407.4-1848
			c0,0,1434.4-20,2411.6,837.3c5,5.1,10.1,8.9,15.1,14C24720,15014.2,24478.3,15392.8,24094,15678.5"/>
		<path id="path84" class="st7" d="M22940.8,10574.1c-303.4,284.3-567.3,381.5-567.3,381.5
			c-4086.3,1681.9-7194.7,933.7-7386.1,922.7c-192.1-11-2996.5-859.3-2996.5-859.3c-405-114.1-721.1-341.9-969.1-624
			c-796-904.6-878.6-2362.3-878.6-2362.3c-247.8-528.7-259-929.3-258.8-992.3c112.8-40.8,219.6-68.9,314.8-87.4
			c244.4-49.4,412.8-39.7,412.8-39.7c7188.9-1190.7,12402.1,5.1,12402.1,5.1c126.7,5.9,246.6,19.1,360.5,38.9
			c255.5,45.2,478.8,123,674.2,223.6c2.4,7.3,4.2,13.4,4.8,18.8c29.5,220.1-215.2,842.8-215.2,842.8
			C23868.6,9414.5,23365.9,10176.9,22940.8,10574.1"/>
		<g id="g86">
			<g>
				<defs>
					<path id="SVGID_00000019657036365778576490000004816869014399353769_" d="M24053.6,7199.7c-0.6-5.4-2.4-11.5-4.8-18.8
						c-195.4-100.7-418.7-178.4-674.3-223.6c-113.8-19.8-233.7-33-360.4-38.9c0,0-5213.2-1195.8-12402.1-5.1
						c0,0-168.4-9.7-412.8,39.7c-95.2,18.5-202,46.6-314.8,87.4c-0.2,63,11,463.6,258.8,992.3c0,0,82.6,1457.7,878.6,2362.3
						c248,282.1,564.1,509.9,969.1,624c0,0,2804.4,848.3,2996.5,859.3c191.4,11,3299.9,759.2,7386.1-922.7
						c0,0,263.9-97.2,567.3-381.5c425.1-397.2,927.8-1159.6,897.6-2531.6C23838.4,8042.5,24083.1,7419.8,24053.6,7199.7"/>
				</defs>
				<clipPath id="SVGID_00000044147571852433473050000006664181821750851990_">
					<use xlink:href="#SVGID_00000019657036365778576490000004816869014399353769_"  style="overflow:visible;"/>
				</clipPath>
				<g id="g88" style="clip-path:url(#SVGID_00000044147571852433473050000006664181821750851990_);">
					<path id="path94" class="st5" d="M8939.6,11576.9l0.4-131l17328.3,63l-0.5,131L8939.6,11576.9"/>
					<path id="path96" class="st5" d="M8973.1,11071.1l0.4-131l17328.3,63l-0.5,131L8973.1,11071.1"/>
					<path id="path98" class="st5" d="M9006.5,10565.3l0.4-131l17328.3,63l-0.5,131L9006.5,10565.3"/>
					<path id="path100" class="st5" d="M9040,10059.4l0.4-130.9l17328.3,63l-0.5,130.9L9040,10059.4"/>
					<path id="path102" class="st5" d="M9073.4,9553.6l0.4-131l17328.3,63l-0.4,131L9073.4,9553.6"/>
					<path id="path104" class="st5" d="M9106.9,9047.8l0.4-131l17328.3,63l-0.5,131L9106.9,9047.8"/>
					<path id="path106" class="st5" d="M9140.3,8542l0.4-131l17328.3,63l-0.5,131L9140.3,8542"/>
					<path id="path108" class="st5" d="M9173.8,8036.1l0.4-130.9l17328.3,63l-0.4,130.9L9173.8,8036.1"/>
					<path id="path110" class="st5" d="M9207.3,7530.3l0.4-131l17328.3,63.1l-0.5,130.9L9207.3,7530.3"/>
					<path id="path112" class="st5" d="M22940.8,10574.1c-156.1,146.3-301.4,242.7-406,302.2l0,0h-0.1
						c-98.7,56.1-161.2,79.3-161.2,79.3c-4086.3,1681.9-7194.7,933.7-7386.1,922.7c-6.3-0.3-15.6-1.7-27.2-3.8
						c-3.5-0.6-8.5-1.7-12.3-2.5c-9.3-1.7-18.9-3.6-30.7-6.3c-5.5-1.2-12.3-2.8-18.3-4.2c-12.5-2.9-25.3-5.9-39.9-9.4
						c-6.4-1.6-13.6-3.4-20.4-5.1c-16.3-4.1-33.1-8.3-51.5-13c-7.2-1.9-14.9-3.9-22.4-5.8c-20.2-5.3-41.3-10.8-63.8-16.8
						c-6.4-1.7-13.1-3.5-19.8-5.3c-25.1-6.8-51.4-13.9-78.9-21.4c-5.1-1.4-10.4-2.8-15.6-4.2c-30.6-8.4-62.4-17.2-95.4-26.4
						c-3-0.8-5.9-1.6-8.9-2.4c-859.1-238.9-2491.4-732.6-2491.4-732.6c-405-114.2-721.1-342-969.1-624.1
						c-796-904.6-878.6-2362.3-878.6-2362.3c-247.8-528.7-259-929.3-258.8-992.3c102.5-37.1,198.9-62.5,287.3-80.9
						c6.5,133,45.1,491.3,257.4,944.5c0,0,82.6,1457.7,878.6,2362.3c248,282.1,564.1,509.9,969.1,624c0,0,2804.4,848.3,2996.5,859.3
						c110.6,6.4,1196.4,257.6,2880.7,144.8c1125.7-123.8,2466.3-413.5,3934.3-1017.7c0,0,264-97.2,567.4-381.5
						c425-397.2,857.4-1150.8,827.3-2522.9c0,0,255.4-218,258-925.2c-7.5-14.3,138.3,46.5,307.8,133.8c2.4,7.3,4.2,13.4,4.8,18.8
						c29.5,220.1-215.2,842.8-215.2,842.8C23868.6,9414.6,23365.9,10176.9,22940.8,10574.1"/>
				</g>
			</g>
		</g>
		<path id="path114" class="st8" d="M19846,10123.5l-5437.7-19.8c-301.4-1.1-544.9-246.4-543.8-547.8l1.4-408.1
			c1.1-301.5,246.4-545,547.9-543.9l5437.7,19.8c301.4,1.1,544.9,246.3,543.8,547.8l-1.4,408.1
			C20392.8,9881.1,20147.5,10124.6,19846,10123.5"/>
		<path id="path116" class="st2" d="M23074.9,7864c-1507.4-398.8-6873.9-1598.2-12022-40.1c0,0-319.3,335.2-621.6,129.2
			c0,0-331.2-576.9-238.9-970.4c2.5-9.1,4.4-19.4,6.8-29.7c244.4-49.4,412.8-39.7,412.8-39.7c7188.9-1190.7,12402.1,5.1,12402.1,5.1
			c79.4,3.9,192.7,5,361.1,41.3c99.2,21,217.9,54.7,360.7,107.4c8.1,114.5-7.3,681.7-245.7,913.5
			C23490.2,7980.6,23344.3,7934.7,23074.9,7864"/>
		<path id="path118" class="st5" d="M10427,7957.5c0,0-373.1-598.9-255.3-998c244.4-49.4,438.2-49.3,438.2-49.3
			c74.9,883.8,438.7,918,438.7,918S10729.2,8163.4,10427,7957.5"/>
		<path id="path120" class="st3" d="M11052.9,7823.9c0,0,684.6-775,2397.1-950.6c0,0,8291.2-694.6,9624.9,990.7
			C21567.5,7465.2,16201,6265.8,11052.9,7823.9"/>
		<path id="path122" class="st6" d="M15487,13304.2c-1014.8-64.3-3865.2,546.5-3865.2,546.5l122.3-302.6l4411.9-908
			c1285.2,686.4,2020.2-73.5,2030.2-43.2c10,30.4,4137.6,893.8,4137.6,893.8l130.2,308.5c-635.3-275-3512.8-512.7-3512.8-512.7
			C17136.3,13855.6,15487,13304.2,15487,13304.2"/>
		<path id="path124" class="st5" d="M16098,12592.1l-4397.9,1004.7l505.8-1139.9l2614.3-526.8c2744.7-3121.3,4377-36,4377-36
			l2662.3,528.7l515,1109.1l-4200.5-949.5C17150.2,13426.4,16098,12592.1,16098,12592.1"/>
		<path id="path126" class="st0" d="M18366.6,11960.3c-1309-1596.4-2473.8-26.3-2473.8-26.3c16.2,294.2-434.2,465.5-434.2,465.5
			l-3549.5,800.2l100.3-207.2c0,0,2887.4-724.8,3069.2-776c181.9-51.3,537.9-430.6,537.9-430.6c1459.8-1802.5,3045-49.4,3045-49.4
			c232.5,286.3,517.2,486.2,517.2,486.2l2869.1,737.1l85.9,190.6l-3059.5-720.4C18416.8,12427.6,18366.6,11960.3,18366.6,11960.3"/>
		<path id="path128" class="st9" d="M17152.9,12708.4c-523.2-1.9-946.2-288.1-944.9-639.2c1.3-351.1,426.4-634.2,949.5-632.3
			s946.1,288.1,944.8,639.2C18101,12427.2,17675.9,12710.3,17152.9,12708.4"/>
		<g id="g130">
			<g>
				<defs>
					<path id="SVGID_00000023279496962340314430000012718969509740129192_" d="M7458.5,19214c0,0,4992.4,8048,12889.5,6902.3
						c7897.1-1145.6,6922.2-2078.1,12623.9-626.1c3770.5,960.2,3615.7-4938,7722.2-6169.1c5561.5-1667.2,770.2-4397,882.8-6612.3
						c206.1-4055.7-1331.2-7133.1-3766.8-8403.1c-1224.7-638.5-22809.6-1144.8-27038.4-124.3
						C7203.7,5042.5,1751.2,10814.9,7458.5,19214"/>
				</defs>
				<clipPath id="SVGID_00000135677980154417858200000000653780132321283468_">
					<use xlink:href="#SVGID_00000023279496962340314430000012718969509740129192_"  style="overflow:visible;"/>
				</clipPath>
				<g id="g132" style="clip-path:url(#SVGID_00000135677980154417858200000000653780132321283468_);">
					<path id="path138" class="st16" d="M29625.1,3698c1459.1-0.1,2916,55.8,4372.5,127C33523.5,4659.3,31626.4,7503.8,29625.1,3698
						"/>
					<path id="path140" class="st17" d="M41057.4,16646.7c-1577-254.3-2009.4,50.9-2263.8,890.3
						c-254.4,839.4-661.3,1119.2-1373.5,1297.2c-712.3,178.1-1042.9,0-1042.9,0s559.6,610.5,712.2,1119.2
						c152.6,508.7-178.1,1602.5-686.8,2060.3c-508.7,457.9-992,356.1-992,356.1c-585,661.4-1449.8,712.2-2619.9,0
						c-1170.1-712.2-788.5-2594.4-788.5-2594.4l3917.1-1195.5c203.5-992,1144.6-890.3,1449.9-1348.1
						c685-1027.5-407-1399-305.3-2314.7c101.8-915.7,1551.6-1551.6,3739.1-1399S42634.4,16901.1,41057.4,16646.7"/>
					<path id="path142" class="st17" d="M40595,15972.3c-528-96-728.8-355.6-740.2-548.9c-10.5-175,116.1-324.8,330.3-390.8
						c13.5-3.6,27.7,3.5,31.8,16.9s-3.4,27.7-16.8,31.8c-190.6,58.6-303.5,188.6-294.6,339.1c10.4,174.8,199.6,411.1,698.6,501.8
						c391.1,71.3,652.7-188.6,766.4-455.5c153.6-360.4,112.1-867.6-264.4-1139.4c-266.7-192.7-677.4-135.9-975-54.3
						c-704.2,193.1-1528.3,739.7-1695.7,1124.8c-99.1,228-85.4,499.6-70.9,786.9c22.6,446.6,46,908.6-328.2,1306.1
						c-358.6,381-597.1,443.2-827.7,503.4c-164,42.8-333.6,87-549,249.8c-11.3,8.5-27.2,6.4-35.6-4.9c-8.5-11.2-6.3-27.2,4.9-35.6
						c223.5-169,398-214.5,566.9-258.5c233.9-61,454.9-118.7,803.5-489c359.3-381.8,336.5-832.7,314.4-1268.7
						c-14.9-293.5-28.9-570.8,75-809.8c175.6-403.8,999.6-953.5,1728.9-1153.5c153-42,335.4-77.3,514.7-77.3
						c182,0,361,36.3,503.6,139.3c398.1,287.5,442.9,821.7,281.4,1200.7C41262.5,15850.2,40947.1,16035.9,40595,15972.3"/>
					<path id="path144" class="st17" d="M31843.2,16049l-73.1-15.9c0,0-73.1-15.9-85.9-38.2c-12.7-22.2-41.3-136.7-41.3-136.7
						s260.7-42.9,271.8-42.9c11.2,0,57.8,52.5,57.8,52.5l-33.9,143L31843.2,16049"/>
					<path id="path146" class="st17" d="M36456.7,15948.8l-68.4-15.9c0,0-74.7-52.4-87.4-74.7c-12.7-22.2-41.4-136.7-41.4-136.7
						s260.8-42.9,271.9-42.9c11.1,0,57.7,52.4,57.7,52.4l-33.9,143.1L36456.7,15948.8"/>
					<path id="path148" class="st16" d="M37191.1,6268.9L30501.5,5989c0,0-524.4-1139.8-906.3-2291
						c2696.2-1.5,5384.7,193.1,8077.8,307.7c568.6,24.2,1137.1,40.9,1705.4,52.6C38890.6,4820.1,38192.3,5594.1,37191.1,6268.9"/>
					<path id="path150" class="st18" d="M24410.4,16518.5c-19,58.8-30.5,77.4-30.5,77.4L24410.4,16518.5"/>
					<path id="path152" class="st18" d="M27349,10639.1c-57.8-118.1-224.1-118.4-283.2-0.9c-420,834.5-1705.1,2489-1591.9,3181.7
						l-1063.5,2698.6c53.4-166.2,165.6-654.6,240.8-1957.5c101.7-1763.6-1017.5-7122.1,1594-7800.4
						c2611.4-678.3,3832.3,2713.2,3832.3,2713.2l746.2,1153.1l135.6,1594L28687,13374L27349,10639.1"/>
					<path id="path154" class="st19" d="M29115.2,12577l-852.1-101.8l-241.7-585c0,0,407-267.1,1628-419.7l-114.5,686.8
						L29115.2,12577"/>
					<path id="path156" class="st20" d="M36233.7,15736.1c-1280.9-30.5-2069.4-462.9-2069.4-462.9l-2245.8,589
						c-1086.4,199.5-1849.5-207.5-2485.4-1021.4c-635.9-814-1831.3-1933.2-1831.3-1933.2l1856.8-1424.4
						c0,0-966.6-1271.8,279.8-2365.5c0,0,203.5-2187.5,763.1-3128.6c0,0,2212.9-1348.2,6689.6,279.7
						c0,0,1042.9,4832.9,1322.7,5316.2c279.8,483.2-50.9,3535.6-50.9,3535.6S37514.7,15766.6,36233.7,15736.1"/>
					<path id="path158" class="st19" d="M31722.4,19866.3c-418-144.8-484.3-1041.9-38.8-1221.6c445.6-179.7,986.8,164.6,986.8,164.6
						l-40.4,690C32630,19499.3,32140.3,20011,31722.4,19866.3"/>
					<path id="path160" class="st17" d="M32248.6,19539.8c-233.7,78.3-370.4,88.2-471.8,34c-80.9-43.3-135.7-127.1-172.5-263.5
						c-89.5-331.6,199.7-465,202.6-466.3c1.8-0.7,3.6-1.2,5.4-1.4c7.7-0.9,15.5,3.2,18.8,10.7c4.1,9.2,0,20-9.2,24.1
						c-10.9,4.9-263.7,121.7-182.3,423.3c34.1,126.1,83.1,202.6,154.4,240.8c90.4,48.4,222.8,37.5,443-36.5
						c9.7-2.9,19.9,2,23.1,11.6C32263.4,19526.2,32258.2,19536.5,32248.6,19539.8"/>
					<path id="path162" class="st18" d="M35247.1,16136.6c-210.9,251.4-44.8,1514.6-44.8,1514.6l-1962.7-297.5
						c0,0,14.7-976.7-136.6-1117.9c-151.4-141.1-1184.5-373.6-1184.5-373.6s-157.3-311.7,1305.8-1046.1
						c1463-734.4,3009.4,920,3009.4,920S35458,15885.2,35247.1,16136.6"/>
					<path id="path164" class="st19" d="M33237.5,17353.7c0,0,7.1-473.1-39.6-808.4c326.2,5,1209.3,63.7,1853.6,1038l-778-72.5
						L33237.5,17353.7"/>
					<path id="path166" class="st18" d="M34857.9,22371.2c-23.9,6-48.2,11.6-72.8,16.9c-2034.8,437.1-2546.5-1290-2546.5-1290
						c-133.8-337-5.4-854-127.6-1557.5c-122.1-703.4-174.7-2118.3,823.4-2397.2c682.9-190.8,1403.1-96,1876.9,142.5
						c456.3,229.7,793.8,641.9,934.9,1132.9l453.5,1578C36495,21024.2,35894.9,22111.6,34857.9,22371.2"/>
					<path id="path168" class="st17" d="M34263.6,19595.5c-47,3.9-93-86.7-102.7-202.5s20.5-212.8,67.5-216.8
						c46.9-3.9,92.9,86.7,102.6,202.5C34340.8,19494.5,34310.6,19591.5,34263.6,19595.5"/>
					<path id="path170" class="st17" d="M32723.8,19763.1c-47,3.9-92.9-86.7-102.7-202.5c-9.7-115.8,20.5-212.8,67.5-216.8
						c46.9-3.9,92.9,86.7,102.7,202.5C32801,19662.1,32770.8,19759.1,32723.8,19763.1"/>
					<path id="path172" class="st17" d="M33397.8,19438.5c-13.2,2.9-26.1-5.7-28.8-18.9c-23-109.4-97.8-172-170.1-232.5
						c-77.6-65-157.9-132.1-143.1-250.5c26.1-209.7,170.2-365.1,176.3-371.6c5.5-5.9,13.1-8.4,20.5-7.6c5.1,0.6,10,2.7,13.9,6.5
						c9.9,9.2,10.3,24.6,1.1,34.5c-1.3,1.4-139.3,150.7-163.4,344.2c-11.5,92,49.2,142.8,126,207c75,62.8,160.1,134,186.5,260
						C33419.5,19422.8,33411,19435.7,33397.8,19438.5"/>
					<path id="path174" class="st17" d="M34041.6,19960.3c-40-5.8-67.8-42.9-62-82.9c5.7-40,42.9-67.5,82.8-62
						c275.5,39.4,423.8-96.7,430.8-103.2c13.5-13,30.8-19.8,48.2-20.4c19.8-0.7,40,6.6,55,22c28.1,29,27.6,75.3-1.4,103.5
						C34586.9,19825.2,34392.1,20010.6,34041.6,19960.3"/>
					<path id="path176" class="st17" d="M33010.4,20060.1c-10.3,4.8-255.2,115.8-569.7-46.9c-35.9-18.6-50-62.7-31.4-98.6
						s62.8-49.7,98.6-31.4c247.3,127.8,432.1,48,440.8,44.1c17.1-7.8,35.6-8.6,52.3-3.4c18.9,5.8,35.5,19.4,44.6,38.9
						C33062.7,19999.4,33047,20042.9,33010.4,20060.1"/>
					<path id="path178" class="st17" d="M35110.1,22352.4c-2705.4,802.1-3034.1-1626.9-3034.1-1626.9s-147-714.8,162.1-249.7
						c309.1,465.1,611.4,342.3,1188.5,444.2c577.1,101.9,1136.1,347.6,1136.1,347.6c336.6-1195.4,1057.6-2130,1057.6-2130
						l306.6-303.6C35926.9,18834,37815.4,21550.3,35110.1,22352.4"/>
					<path id="path180" class="st19" d="M34563.1,18991.1c-46.3,27.2-96.1,45.9-133.1,52.7c-173,31.8-356.6,3-511.5-80.3
						c-41.5-22.3-83.5-51.4-100-95.5c-33.7-90.1,74.1-137.1,141.6-155.6c182.1-50,405.9-74.1,591.4-29.7
						c39.1,9.4,79.4,23.5,105.8,53.8C34744.8,18837.2,34661.7,18933.3,34563.1,18991.1"/>
					<path id="path182" class="st19" d="M32779.5,19116.6c-40.9,24-84.9,40.6-117.7,46.6c-153,28.1-315.4,2.6-452.4-71
						c-36.8-19.8-73.9-45.5-88.5-84.6c-29.8-79.6,65.5-121.2,125.2-137.6c161.1-44.2,359.1-65.5,523.2-26.3
						c34.6,8.3,70.2,20.8,93.6,47.7C32940.3,18980.4,32866.8,19065.4,32779.5,19116.6"/>
					<path id="path184" class="st17" d="M35284.8,22253.2c-9.2,4.5-20,0.5-24.4-8.5c-3.2-6.6-318.4-658.8-709.3-919.6
						c-8.4-5.6-10.7-16.9-5.1-25.3c3.9-5.9,10.7-8.8,17.3-8.1c2.8,0.4,5.6,1.3,8.1,3c399.4,266.4,709,907,722,934.2
						C35297.8,22238,35293.9,22248.9,35284.8,22253.2"/>
					<path id="path186" class="st0" d="M34099.3,18381.7c-118.6,84.9-286.9,44.3-416.7,12.7c-111.4-27.1-220.3-63.3-331.9-89.3
						c-9.8-2.3-19.7-4.4-29.5-6.4c-97.1-19.2-194.9-23.2-292.2-37.6c-103.8-15.4-182.1-80.5-156.8-191
						c102.3-445.4,724.8-396.7,1049.5-269.8c76.4,29.8,150,71.2,202.8,135.4C34224.3,18057,34238.2,18282.2,34099.3,18381.7"/>
					<path id="path188" class="st16" d="M35410.6,11585l-5239.8,203.5c0,0-826.7-3459.3,521.4-6002.9s4006.2-686.8,4006.2-686.8
						l1984,966.6C36682.4,6065.4,35156.3,8532.6,35410.6,11585"/>
					<path id="path190" class="st17" d="M36677.4,6090.3c-38-7.6-3826.4-754.4-6016.4-136.1c-13.6,3.8-27.6-4.1-31.4-17.5
						c-3.8-13.5,4.1-27.6,17.6-31.4c644.6-182.1,1426.5-246.7,2210.7-246.7c1894.2,0,3802.6,376.5,3829.5,381.8
						c13.8,2.8,22.7,16.2,19.9,29.9C36704.6,6084.1,36690.8,6092.7,36677.4,6090.3"/>
					<path id="path192" class="st17" d="M37819.2,5784.4c-51.4-16.6-5170.8-1642-7474.2-256.9c-12.1,7.3-27.7,3.5-34.9-8.6
						c-7.3-12-3.3-27.7,8.7-34.9c695.1-418.1,1642.8-565,2630.6-565c2313.8,0,4849.2,805.3,4885.4,816.9
						c13.4,4.3,20.7,18.7,16.4,32.1C37846.9,5781.3,37832.4,5788.3,37819.2,5784.4"/>
					<path id="path194" class="st17" d="M38450.5,4140.4c-19.2-3.1-1937.1-285.3-2516.2,1120.6c-5.3,13.1-20.2,19.2-33.1,13.9
						c-13-5.3-19.2-20.2-13.9-33.1c423-1027.2,1536.1-1177.2,2150-1177.2c248.7,0,415.4,24.6,421.1,25.5
						c13.9,2.2,23.3,15.2,21.2,29.1C38477.4,4133.1,38464.3,4142.4,38450.5,4140.4"/>
					<path id="path196" class="st17" d="M32720.9,4920.6c-14-1-24.4-13.3-23.3-27.2l87.6-1123.1c17,0.7,33.9,1.4,50.8,2.1
						l-87.8,1124.8C32747.2,4911.3,32734.4,4923,32720.9,4920.6"/>
					<path id="path198" class="st17" d="M32171.7,4962.3c0.5,13.9-10.4,25.8-24.5,26.3c-13.5,0.4-25.8-10.6-26.3-24.5
						c-5.8-160.8,23.4-645.1,64.4-1217.8c17,0.6,33.9,0.9,50.9,1.6C32195.2,4319.6,32166.1,4802.7,32171.7,4962.3"/>
					<path id="path200" class="st17" d="M30900.9,5275.1c-13,4.9-27.8-1.2-33-14.3c-5.3-13.1-529.5-1312.7-1254.4-1493.9
						c-13.6-3.4-21.9-17.2-18.5-30.8c2.9-11.6,13.3-19.3,24.7-19.3c2,0,4.1,0.2,6.2,0.8c750.1,187.5,1267.6,1469.9,1289.2,1524.4
						C30920.3,5255.1,30913.9,5269.9,30900.9,5275.1"/>
					<path id="path202" class="st17" d="M32424.6,6987.4l1,0.6c-125.6,0-1183.7,713.5-1868.8,1196.1
						c-310.3,913.1-125.1,2733.2-100.4,2959.4l4254.9-117.3c-165.9-1125.7,88-2733.9,119.9-2928.1
						C34616.9,7998.9,32536.1,7035.2,32424.6,6987.4L32424.6,6987.4z M34765.9,11046.9c1.1,7.2-0.9,14.5-5.6,20.2
						c-4.7,5.6-11.5,9-18.8,9.1l-4307.2,118.8c-12.1,0.5-24.3-9.5-25.9-22.5c-2.4-20.2-234.2-2035.1,103-3012.6
						c1.7-5.1,5-9.5,9.3-12.6c175.8-123.9,1722.3-1210.2,1904.9-1210.2c7.2,0,13.4,1.2,19,3.6
						c117.7,50.4,2331.4,1075.9,2425.6,1119.5c10.4,4.8,16.3,16.1,14.4,27.4C34881.5,8105.2,34582.2,9861,34765.9,11046.9"/>
					<path id="path204" class="st16" d="M36517.1,15968.4c-50.9,38.2-334.9,8.5-449.4,67.9c-114.5,59.3-292.5,33.9-292.5,33.9
						c-593.5-627.4-1237.9-4069.8-1237.9-4069.8l898.7-16.9c101.8,932.6,898.8,3951,1000.5,3917.1
						c101.8-33.9,152.6-169.6,152.6-169.6S36568,15930.3,36517.1,15968.4"/>
					<path id="path206" class="st16" d="M31908.9,16061.7c-50.9,38.2-368.8-84.8-483.3-25.4c-114.4,59.3-313.7,16.9-313.7,16.9
						c-593.5-627.4-907.2-3942.6-907.2-3942.6l847.9-16.9c101.7,932.6,661.3,3925.6,763.1,3891.7c101.7-33.9,156.8-124,156.8-124
						S31959.8,16023.5,31908.9,16061.7"/>
					<path id="path208" class="st17" d="M35424.9,11692.3h-224.2c-21.9,0-41-14.9-46.2-36.3l-95.1-386.5h-142l-102.6,387.4
						c-5.6,20.9-24.5,35.4-46.1,35.4h-225.3v285.9h881.5L35424.9,11692.3z M35472.6,12073.5h-976.8c-26.4,0-47.7-21.3-47.7-47.6
						v-381.2c0-26.3,21.3-47.7,47.7-47.7h236.3l102.6-387.4c5.6-20.9,24.5-35.4,46.1-35.4h216c21.9,0,41,15,46.2,36.3l95,386.5
						h234.6c26.3,0,47.6,21.4,47.6,47.7v381.2C35520.2,12052.2,35498.9,12073.5,35472.6,12073.5"/>
					<path id="path210" class="st0" d="M34992.1,11871c-144.8,0-262.1-117.3-262.1-262c0-144.8,117.3-262.1,262.1-262.1
						c144.7,0,262,117.3,262,262.1C35254.1,11753.7,35136.8,11871,34992.1,11871"/>
					<path id="path212" class="st17" d="M31048.8,11808.2h-224.2c-22,0-41.1-14.9-46.3-36.2l-95-386.6h-142l-102.7,387.4
						c-5.5,20.9-24.4,35.4-46,35.4h-225.3v285.9h881.5V11808.2z M31096.4,12189.4h-976.8c-26.3,0-47.6-21.3-47.6-47.6v-381.2
						c0-26.3,21.3-47.6,47.6-47.6h236.3l102.7-387.5c5.5-20.9,24.4-35.4,46-35.4h216c22,0,41.1,15,46.3,36.3l95,386.6h234.5
						c26.3,0,47.6,21.3,47.6,47.6v381.2C31144,12168.1,31122.7,12189.4,31096.4,12189.4"/>
					<path id="path214" class="st0" d="M30615.9,11986.9c-144.7,0-262-117.3-262-262c0-144.8,117.3-262.1,262-262.1
						c144.8,0,262.1,117.3,262.1,262.1C30878,11869.6,30760.7,11986.9,30615.9,11986.9"/>
					<path id="path216" class="st17" d="M37344,5643.8c-14.5-12.9-15.7-35.2-3-49.7c9.9-11,670.2-761.4,1167.2-1558.2
						c27.8,0.8,55.6,2.1,83.3,2.9c-492.8,801.3-1157.2,1556-1197.8,1601.9C37380.8,5655,37358.7,5656.1,37344,5643.8"/>
					<path id="path218" class="st17" d="M33874.5,14213.3c-857.5-48.3-1412.7,827.2-1418.3,835.9c-7.5,12.1-23.2,15.4-35.1,8.2
						c-11.9-7.4-15.5-23.1-8.1-35c5.5-8.9,546.8-862,1391.8-862c24,0,48.2,0.7,72.6,2.1c14.1,0.8,24.7,12.9,23.9,26.9
						S33889.3,14212.9,33874.5,14213.3"/>
					<path id="path220" class="st18" d="M40741.3,12318.2l-2952.1-1077.7c0,0,1312-3514.5,2014.9-5248.3
						c168.5-415.7,190.6-1110,128.3-1923.5c679.2,8.6,1358.5,7.6,2038.5-6.5c445-9.2,889.8-36.2,1334.5-64.9
						c65.9,578.2,78.1,1141.8,13.2,1666.9C43016.6,8104.2,40741.3,12318.2,40741.3,12318.2"/>
					<path id="path222" class="st19" d="M38208.6,10109.7l190.7-483.3c0,0,1806,432.4,2162.1,1437.1
						C40917.5,12068.2,38208.6,10109.7,38208.6,10109.7"/>
					<path id="path224" class="st20" d="M37318.3,15629.3c0,0-780-3459.3-780-3561.1c0-101.7,1441.4-1950,1441.4-1950
						c2374-288.3,3645.8,1916.1,3645.8,1916.1s-322.2,508.8-1322.7,1763.6S38369.7,15408.9,37318.3,15629.3"/>
					<path id="path226" class="st17" d="M37389.1,11287.2c-8.8,10.8-24.8,12.7-35.8,4c-11-8.8-12.7-24.9-4-35.8
						c132.4-165.4,602.7-1138.6,607.5-1148.3c4.3-9.1,13.4-14.4,22.9-14.4c3.7,0,7.5,0.8,11,2.5c12.6,6.1,18,21.3,11.9,34
						C37983.1,10169.5,37524.9,11117.3,37389.1,11287.2"/>
					<path id="path228" class="st17" d="M37655,10783.4l-390,271.3c-11.5,8-27.4,5.3-35.4-6.4c-8-11.5-5.1-27.3,6.4-35.3l390-271.3
						c4.4-3.1,9.5-4.6,14.5-4.6c8,0,15.9,3.8,20.9,11C37669.4,10759.6,37666.5,10775.4,37655,10783.4"/>
					<path id="path230" class="st17" d="M39667.1,13796.4c-278,101.1-1453.8,370.9-1503.7,382.4c-13.9,3-27.4-5.4-30.5-19.1
						c-3.1-13.7,5.4-27.4,19.1-30.5c12.2-2.8,1222.6-280.6,1497.7-380.7c2.9-1,5.8-1.5,8.7-1.5c10.4,0,20.2,6.5,23.9,16.8
						C39687.1,13776.9,39680.3,13791.5,39667.1,13796.4"/>
					<path id="path232" class="st17" d="M40261.6,13143.1l-1322.7,542.7c-12.9,5.3-27.8-0.9-33.2-13.9c-5.3-13,0.9-27.8,13.9-33.2
						l1322.7-542.7c3.1-1.3,6.4-1.9,9.6-1.9c10,0,19.5,6,23.6,15.8C40280.8,13123,40274.6,13137.8,40261.6,13143.1"/>
					<path id="path234" class="st17" d="M34711.7,10834.6l-4273.2,101.8c-14.9-0.4-25.7-11-26.1-24.9c-0.3-14,10.8-25.7,24.9-26
						l4273.2-101.8h0.6c13.8,0,25.1,11.1,25.5,24.9C34736.9,10822.6,34725.8,10834.3,34711.7,10834.6"/>
					<path id="path236" class="st17" d="M40528.1,17067.2c-297.6-44-605.2-89.7-868.1-72.8c-535.6,33.4-583.5,276.8-644,584.8
						c-28.7,145.6-61.1,310.5-149.3,470.4c-295.8,536-571.2,861-1887.8,843.9c-14.1-0.2-25.3-11.7-25.2-25.7
						c0.2-13.9,11.5-25.1,25.5-25.1h0.2c1381.2,17.6,1595.6-369.6,1842.8-817.8c84.3-152.8,114.6-306.7,143.8-455.5
						c62.3-316.5,116-589.9,690.8-625.9c268.1-16.4,578.6,29,878.7,73.3c611.8,90.4,1244.4,183.7,1543.9-248.9
						c490.5-708.5,323.9-1607,32.3-2161.2c-6.6-12.4-1.8-27.8,10.7-34.4c3.8-2,7.8-2.9,11.8-2.9c9.1,0,17.9,5,22.5,13.6
						c298.2,566.8,467.9,1486.7-35.5,2213.9C41803.7,17255.3,41155.3,17159.5,40528.1,17067.2"/>
					<path id="path238" class="st17" d="M34483.9,21313.9c-11.3,8-27.3,5.3-35.3-6.3c-212.3-306.7-820.8-504-1312.2-540.3
						c-455.5-33.7-969.2-260.8-1023.7-615c-2.1-13.9,7.4-26.9,21.3-29c1.3-0.2,2.6-0.3,3.9-0.3c12.3,0,23.2,9.1,25.1,21.6
						c48.7,316.3,535,539.2,977.2,572c503.4,37.3,1128.8,242.2,1350.2,562C34498.4,21290.2,34495.5,21306,34483.9,21313.9"/>
					<path id="path240" class="st17" d="M36057.1,19427.6c-490.3,41.4-770,867.5-955.1,1414.2c-76.7,226.4-137.2,405.2-196.1,491.1
						c-7.9,11.5-23.7,14.3-35.4,6.6c-11.5-8-14.5-23.8-6.5-35.4c54.9-80.1,117.4-264.8,189.8-478.6
						c200.7-592.7,475.5-1404.4,999.1-1448.6l2.2-0.1c13,0,24.2,10.1,25.2,23.3C36081.5,19414.1,36071.2,19426.4,36057.1,19427.6"/>
					<path id="path242" class="st18" d="M36336.4,19535.6c-418,144.7-907.6-367-907.6-367l-40.4-690c0,0,541.2-344.3,986.7-164.6
						C36820.7,18493.7,36754.4,19390.9,36336.4,19535.6"/>
					<path id="path244" class="st17" d="M36282,19243.1c-101.4,54.2-238.1,44.4-471.9-34c-9.5-3.2-14.7-13.6-11.5-23.2
						c3.3-9.6,13.5-14.5,23.2-11.5c220.2,73.9,352.6,84.8,442.9,36.4c71.4-38.2,120.4-114.7,154.5-240.7
						c81.4-301.7-171.5-418.5-182.3-423.3c-9.2-4.2-13.3-15-9.2-24.2c3.3-7.5,11-11.6,18.7-10.7c1.9,0.2,3.7,0.7,5.4,1.5
						c3,1.3,292.2,134.7,202.7,466.2C36417.6,19116.1,36362.8,19199.8,36282,19243.1"/>
					<path id="path246" class="st0" d="M28906.7,17330h-6926.4c-17.7,0-32.1-14.3-32.1-32V5242.7c0-28.8,23.3-52,52-52h6886.6
						c28.7,0,52,23.2,52,52V17298C28938.8,17315.7,28924.4,17330,28906.7,17330"/>
					<path id="path248" class="st21" d="M26799.7,13669.3H24739c-39.5,0-71.4-31.9-71.4-71.4c0-39.4,31.9-71.3,71.4-71.3h2060.7
						c39.5,0,71.4,31.9,71.4,71.3C26871.1,13637.4,26839.2,13669.3,26799.7,13669.3"/>
					<path id="path250" class="st21" d="M24328.6,13660.4h-1480.8c-39.5,0-71.4-32-71.4-71.4s31.9-71.4,71.4-71.4h1480.8
						c39.5,0,71.4,32,71.4,71.4S24368.1,13660.4,24328.6,13660.4"/>
					<path id="path252" class="st21" d="M26799.7,13232.2h-3372.1c-39.4,0-71.3-32-71.3-71.4s31.9-71.4,71.3-71.4h3372.1
						c39.5,0,71.4,32,71.4,71.4S26839.2,13232.2,26799.7,13232.2"/>
					<path id="path254" class="st21" d="M26799.7,12857.5h-1471.9c-39.5,0-71.4-31.9-71.4-71.4c0-39.4,31.9-71.3,71.4-71.3h1471.9
						c39.5,0,71.4,31.9,71.4,71.3C26871.1,12825.6,26839.2,12857.5,26799.7,12857.5"/>
					<path id="path256" class="st21" d="M26799.7,10315H24739c-39.5,0-71.4-31.9-71.4-71.3c0-39.5,31.9-71.4,71.4-71.4h2060.7
						c39.5,0,71.4,31.9,71.4,71.4C26871.1,10283.1,26839.2,10315,26799.7,10315"/>
					<path id="path258" class="st21" d="M24328.6,10306.1h-1480.8c-39.5,0-71.4-31.9-71.4-71.4c0-39.4,31.9-71.3,71.4-71.3h1480.8
						c39.5,0,71.4,31.9,71.4,71.3C24400,10274.2,24368.1,10306.1,24328.6,10306.1"/>
					<path id="path260" class="st21" d="M26799.7,9877.9h-3372.1c-39.4,0-71.3-31.9-71.3-71.3c0-39.5,31.9-71.4,71.3-71.4h3372.1
						c39.5,0,71.4,31.9,71.4,71.4C26871.1,9846,26839.2,9877.9,26799.7,9877.9"/>
					<path id="path262" class="st21" d="M26799.7,9503.2h-1471.9c-39.5,0-71.4-31.9-71.4-71.3c0-39.5,31.9-71.4,71.4-71.4h1471.9
						c39.5,0,71.4,31.9,71.4,71.4C26871.1,9471.3,26839.2,9503.2,26799.7,9503.2"/>
					<path id="path264" class="st21" d="M26817.6,12045.7h-2497.9c-39.4,0-71.4-31.9-71.4-71.4c0-39.4,32-71.3,71.4-71.3h2497.9
						c39.4,0,71.3,31.9,71.3,71.3C26888.9,12013.8,26857,12045.7,26817.6,12045.7"/>
					<path id="path266" class="st21" d="M26826.5,11546.1h-927.8c-39.4,0-71.4-31.9-71.4-71.3c0-39.5,32-71.4,71.4-71.4h927.8
						c39.4,0,71.3,31.9,71.3,71.4C26897.8,11514.2,26865.9,11546.1,26826.5,11546.1"/>
					<path id="path268" class="st21" d="M25479.4,11546.1h-2444.3c-39.4,0-71.4-31.9-71.4-71.3c0-39.5,32-71.4,71.4-71.4h2444.3
						c39.5,0,71.4,31.9,71.4,71.4C25550.8,11514.2,25518.9,11546.1,25479.4,11546.1"/>
					<path id="path270" class="st22" d="M27706.9,15550.4c-328.5,0-594.9-266.4-594.9-595c0-328.5,266.4-594.9,594.9-594.9
						c328.6,0,595,266.4,595,594.9C28301.9,15284,28035.5,15550.4,27706.9,15550.4"/>
					<path id="path272" class="st21" d="M27582.8,15113c-2.7-3.4-6.7-5.5-11-5.7c-4,0.2-8.5,1.4-11.5,4.4l-219.9,219.9l-248.4-248.3
						l509.7-509.6l645.6,809.3l-274.6,218.9L27582.8,15113"/>
					<path id="path274" class="st22" d="M27706.9,13976.1c-328.5,0-594.9-266.3-594.9-594.9c0-328.6,266.4-594.9,594.9-594.9
						c328.6,0,595,266.3,595,594.9C28301.9,13709.8,28035.5,13976.1,27706.9,13976.1"/>
					<path id="path276" class="st21" d="M27582.8,13538.8c-2.7-3.4-6.7-5.5-11-5.7c-4,0.2-8.5,1.4-11.5,4.4l-219.9,219.9
						l-248.4-248.3l509.7-509.6l645.6,809.2l-274.6,219L27582.8,13538.8"/>
					<path id="path278" class="st23" d="M27706.9,12220.3c-328.5,0-594.9-266.4-594.9-595c0-328.5,266.4-594.9,594.9-594.9
						c328.6,0,595,266.4,595,594.9C28301.9,11953.9,28035.5,12220.3,27706.9,12220.3"/>
					<path id="path280" class="st23" d="M27706.9,10403.9c-328.5,0-594.9-266.4-594.9-595c0-328.5,266.4-594.9,594.9-594.9
						c328.6,0,595,266.4,595,594.9C28301.9,10137.5,28035.5,10403.9,27706.9,10403.9"/>
					<path id="path282" class="st21" d="M26799.7,8590.8H24739c-39.5,0-71.4-31.9-71.4-71.4c0-39.4,31.9-71.3,71.4-71.3h2060.7
						c39.5,0,71.4,31.9,71.4,71.3C26871.1,8558.9,26839.2,8590.8,26799.7,8590.8"/>
					<path id="path284" class="st21" d="M24328.6,8581.9h-1480.8c-39.5,0-71.4-31.9-71.4-71.4c0-39.4,31.9-71.4,71.4-71.4h1480.8
						c39.5,0,71.4,32,71.4,71.4C24400,8550,24368.1,8581.9,24328.6,8581.9"/>
					<path id="path286" class="st21" d="M26799.7,8153.7h-3372.1c-39.4,0-71.3-31.9-71.3-71.4c0-39.4,31.9-71.4,71.3-71.4h3372.1
						c39.5,0,71.4,32,71.4,71.4C26871.1,8121.8,26839.2,8153.7,26799.7,8153.7"/>
					<path id="path288" class="st21" d="M26799.7,7779h-1471.9c-39.5,0-71.4-31.9-71.4-71.4c0-39.4,31.9-71.3,71.4-71.3h1471.9
						c39.5,0,71.4,31.9,71.4,71.3C26871.1,7747.1,26839.2,7779,26799.7,7779"/>
					<path id="path290" class="st21" d="M26817.6,15318.2h-2497.9c-39.4,0-71.4-31.9-71.4-71.4c0-39.4,32-71.3,71.4-71.3h2497.9
						c39.4,0,71.3,31.9,71.3,71.3C26888.9,15286.3,26857,15318.2,26817.6,15318.2"/>
					<path id="path292" class="st21" d="M26826.5,14818.6h-927.8c-39.4,0-71.4-31.9-71.4-71.3c0-39.5,32-71.4,71.4-71.4h927.8
						c39.4,0,71.3,31.9,71.3,71.4C26897.8,14786.7,26865.9,14818.6,26826.5,14818.6"/>
					<path id="path294" class="st21" d="M25479.4,14818.6h-2444.3c-39.4,0-71.4-31.9-71.4-71.3c0-39.5,32-71.4,71.4-71.4h2444.3
						c39.5,0,71.4,31.9,71.4,71.4C25550.8,14786.7,25518.9,14818.6,25479.4,14818.6"/>
					<path id="path296" class="st21" d="M26835.4,11091.2h-2970.7c-39.4,0-71.3-32-71.3-71.4c0-39.5,31.9-71.4,71.3-71.4h2970.7
						c39.4,0,71.4,31.9,71.4,71.4C26906.8,11059.2,26874.8,11091.2,26835.4,11091.2"/>
					<path id="path298" class="st21" d="M28775,17311.5h-6584.6c-112.1,0-202.9-79.8-202.9-178.2v-807H28978v807
						C28978,17231.7,28887.1,17311.5,28775,17311.5"/>
					<path id="path300" class="st0" d="M26539.3,16888.9h-2267.5c-49.6,0-89.7-40.2-89.7-89.8c0-49.6,40.1-89.7,89.7-89.7h2267.5
						c49.6,0,89.8,40.1,89.8,89.7S26588.9,16888.9,26539.3,16888.9"/>
					<path id="path302" class="st23" d="M28827.4,5492.6c0-105.2-85.4-190.7-190.6-190.7h-6386.7c-105.2,0-190.6,85.5-190.6,190.7
						v11651.3c0,41.3,33.5,74.9,74.8,74.9h6618.3c41.3,0,74.8-33.6,74.8-74.9L28827.4,5492.6z M28752.6,17441.4h-6618.3
						c-163.9,0-297.4-133.5-297.4-297.5V5492.6c0-227.9,185.4-413.3,413.2-413.3h6386.7c227.8,0,413.2,185.4,413.2,413.3v11651.3
						C29050,17307.9,28916.5,17441.4,28752.6,17441.4"/>
					<path id="path304" class="st18" d="M23948.9,12421.2l-2128,216.2c-379.5,38.4-714.8-279.3-748.7-709.7
						c-25.2-318.8,121.8-610,353.7-755.4c35.8-22.4,74.3-39.8,113.8-54.9c-296.2-63-532.7-339.1-560.8-696.2
						c-23.7-299.9,108.2-571,316.6-723.6c-209.4-116.5-362.8-348.1-385.1-630.8c-25.1-318.7,121.8-610,353.7-755.4
						c33.1-20.8,69-36.4,105.3-50.8c-206.6-96.5-361.1-314.1-382.4-583.8c-22.5-285.7,109.3-546.9,317.1-677.2
						c73-45.7,155.3-75.4,243.7-84.5l1907.8-193.9c340.3-34.4,640.8,250.4,671.2,636.3c21.5,271.3-97.6,517.8-287.5,653.9
						c302.1,57.5,544.8,337.1,573.4,699.3c23.7,299.5-106.4,571.8-314.5,724.6c208.4,116.8,360.8,348,383,629.7
						c29,368.2-171.9,697.6-468.1,810.2c296.4,62.8,533.2,339.1,561.3,696.4C24608.5,12002.2,24328.9,12382.3,23948.9,12421.2"/>
					<path id="path306" class="st19" d="M24015.4,10905.2l-2473.3,242.1c-14.6,1.5-27.5-10.9-28.9-27.4
						c-1.2-16.7,9.6-31.2,24.2-32.6l2473.3-242.1c2.8-0.3,5.5-0.1,8,0.5c11.1,2.8,19.8,13.4,20.9,26.9
						C24040.8,10889.3,24030,10903.8,24015.4,10905.2"/>
					<path id="path308" class="st19" d="M24101.5,9465.2l-1510.9,216.7c-14.5,2.4-27.7-9.8-29.6-26.2c-1.9-16.6,8.4-31.7,23.1-33.9
						l1510.9-216.6c3-0.5,6-0.2,8.9,0.5c10.7,2.6,19.2,12.7,20.7,25.6C24126.5,9448,24116.2,9463,24101.5,9465.2"/>
					<path id="path310" class="st19" d="M23233.4,8085.6l-1710.4,267c-14.6,2.9-28-9.1-29.9-25.8c-2-16.4,8.2-31.7,22.7-33.9
						l1710.4-267c3.2-0.7,6.4-0.4,9.3,0.4c10.6,2.6,19.1,12.4,20.7,25.3C23258.2,8068.1,23248,8083.4,23233.4,8085.6"/>
					<path id="path312" class="st19" d="M23844.2,8041l-238.5,50.6c-14.8,2.8-28.5-7.8-31.1-24.1c-2.7-16.4,6.8-32.1,21.3-35.3
						l238.5-50.6c3.6-0.8,7.2-0.6,10.6,0.2c10.1,2.6,18.5,11.6,20.5,23.9C23868.2,8022.1,23858.7,8037.8,23844.2,8041"/>
					<path id="path314" class="st19" d="M24243.7,11787.2c-15.4,0.4-27.8-13.3-28.2-30.5c-5.8-311.7-181.5-513.9-224.9-559.1
						l-522,128.3c-191.4,393.1,23,790,72.6,872.9l455.7-104c14.9-3.5,29.5,7.4,32.4,24.4c3.1,17-7,33.6-21.5,36.8l-473.2,108
						c-10.3,2.5-21-2.1-27.4-11.5c-3.3-5-324.2-490.6-80.5-970.1c2.5-4.8,6.1-8.9,10.5-11.7c2.4-1.5,5-2.4,7.5-3.1l547.8-134.6
						c8.2-2.1,16.7,0.2,23.1,6.2c10.3,9.2,248.1,232.3,255.1,616.2C24270.7,11772.6,24258.3,11786.7,24243.7,11787.2"/>
					<path id="path316" class="st19" d="M24267.2,10345.6c-15.4-1-26.8-15.7-26.1-32.9c15.3-311.3-146.3-528-186.6-576.9
						l-529.1,82.7c-217.3,375.4-30.2,789.7,13.7,876.7l461.4-64.2c15.1-2.2,28.9,9.9,30.7,27.1c1.9,17.2-9.4,32.9-24,34.9
						l-479.1,66.6c-10.4,1.6-20.7-3.8-26.5-13.8c-2.9-5.2-290.2-517.2-15.1-974.2c2.9-4.6,6.7-8.4,11.3-10.8c2.4-1.2,5.1-2,7.7-2.4
						l555.2-86.8c8.3-1.4,16.7,1.6,22.7,8.2c9.6,10,231.7,253,212.9,636.4C24295.1,10333.4,24281.8,10346.4,24267.2,10345.6"/>
					<path id="path318" class="st19" d="M24105.5,8915.8c-15.5-1-26.9-15.7-26.1-32.9c15.2-311.3-146.4-528.1-186.6-577l-529.2,82.8
						c-217.3,375.4-30.2,789.7,13.7,876.6l461.4-64.2c15.1-2.2,28.9,9.9,30.7,27.2c2,17.1-9.3,32.8-23.9,34.8l-479.2,66.7
						c-10.4,1.6-20.7-3.9-26.5-13.9c-2.9-5.2-290.2-517.2-15.1-974.2c2.9-4.6,6.7-8.4,11.3-10.7c2.5-1.3,5.1-2,7.7-2.5l555.2-86.8
						c8.4-1.4,16.7,1.7,22.7,8.2c9.6,10.1,231.7,253.1,212.9,636.4C24133.4,8903.5,24120,8916.5,24105.5,8915.8"/>
					<path id="path320" class="st19" d="M23793.5,7497c-14.6-0.9-25.5-14.8-24.7-31.1c14.4-294.9-138.7-500.2-176.8-546.5
						l-501.2,78.4c-205.8,355.6-28.5,748,13,830.3l437-60.8c14.3-2.1,27.4,9.4,29.1,25.7c1.8,16.3-8.8,31.1-22.7,33l-453.8,63.2
						c-9.9,1.5-19.6-3.7-25.1-13.2c-2.8-4.9-274.9-489.8-14.3-922.7c2.7-4.3,6.3-7.9,10.7-10.2c2.3-1.2,4.8-1.8,7.3-2.3l525.9-82.2
						c7.9-1.3,15.8,1.6,21.5,7.8c9,9.5,219.4,239.7,201.6,602.8C23819.9,7485.5,23807.3,7497.7,23793.5,7497"/>
					<path id="path322" class="st16" d="M35025.1,23439.2C32204.9,23895.8,31959,21475,31959,21475s2623-862.4,3138-958.2
						c515-95.8,2081.6-366,2081.6-366C37370.2,20474.2,37540.3,23032,35025.1,23439.2"/>
					<path id="path324" class="st16" d="M32270.4,21606.7c0,0-1800.6-323.3-1908.3-658.7c-107.8-335.4,363.3-463.1,1980.2-798.5
						c1616.9-335.3,3687.3,183.5,3665,211.6C34653.9,22061.9,32270.4,21606.7,32270.4,21606.7"/>
					<path id="path326" class="st17" d="M35607.4,20410.4c-13.7-3.8-1386.7-346-2854.6-58.3l-217.5,42.6
						c-1233.9,241.6-1744.6,341.5-1721,483c18.2,109.7,735.4,361.6,1238.7,505.4c14,4.1,22.1,18.7,18.1,32.5
						c-4.1,14.1-18.3,23.2-32.5,18.2c-207.9-59.5-1246-364.8-1276.4-547.5c-32-191.9,384.2-273.3,1763-543.2l217.3-42.7
						c437.2-85.7,865.8-115.9,1253.2-115.9c924.9,0,1615,172.4,1624.7,174.8c14.1,3.6,22.7,18,19.1,32.1
						C35635.7,20405.3,35622.5,20413.3,35607.4,20410.4"/>
					<path id="path328" class="st17" d="M35333.2,23387.7c-10.8-9.6-11.8-26.2-2.2-37.2c1023.4-1158.2,639.4-2558.5,585.6-2734.1
						c-1148,37.7-3690.7,852.7-3716.4,860.9c-14.1,4-28.7-3.1-33.1-16.9c-4.5-13.9,3.1-28.6,16.9-33.1
						c25.9-8.4,2605.2-835.1,3750.9-864.2l19.2-0.3l6.3,18.1c5.3,15.3,518.8,1549.9-590,2804.6
						C35361,23396.6,35344.5,23397.5,35333.2,23387.7"/>
					<path id="path330" class="st24" d="M35390.2,23500.2c-99.9,24.7-192.2-0.6-205.9-56.5c-13.8-55.9,56-121.2,156-145.8
						c100-24.7,192.2,0.6,206,56.5C35560.1,23410.2,35490.2,23475.5,35390.2,23500.2"/>
					<path id="path332" class="st0" d="M32798.9,21583.9c296.1-142.6,1283.2-372.9,1283.2-372.9l76.8,285.2l-1294.2,361.9
						L32798.9,21583.9"/>
				</g>
			</g>
		</g>
		<path id="path336" class="st25" d="M7864.4,14262.5l-0.1-0.5l0-0.4L7864.4,14262.5z"/>
		<path id="path340" class="st25" d="M6664.3,14364.5l-1.6,1.3C6662.4,14366,6662.8,14365.7,6664.3,14364.5"/>
		<path id="path344" class="st25" d="M6041.2,14987C6038,14991.2,6044.3,14983,6041.2,14987"/>
		<path id="path354" class="st25" d="M5872.2,11097.7C5878.6,11098.6,5866.9,11097,5872.2,11097.7"/>
		<path id="path360" class="st25" d="M4892.8,9792.7l1.4,1.2C4892.4,9792.5,4892.2,9792.3,4892.8,9792.7"/>
		<path id="path362" class="st25" d="M5225.1,10002.9l1.3,0.5C5228.1,10004.1,5228.8,10004.4,5225.1,10002.9"/>
		<path id="path366" class="st25" d="M6021.5,9743.8l2.6,1.1C6024.6,9745.1,6024.1,9744.9,6021.5,9743.8"/>
		<path id="path372" class="st26" d="M24511.8,21258.2c-295.3-277.2-757.2-249.3-1029.6,62.2c-272.4,311.4-253.8,790.3,41.5,1067.5
			c295.3,277.1,757.2,249.2,1029.6-62.3C24825.7,22014.2,24807.1,21535.3,24511.8,21258.2L24511.8,21258.2z M25026.6,22098.4
			l267.2,244.7l-158.5,289.5l-330.3-104.8c-5.5,6.6-10.2,13.6-15.8,20c-78.3,89.6-167.9,162-264.1,218.5l32,349.6l-306.7,99
			l-170.8-308.2c-119.1,9.2-239.1-2.7-355.1-35.4l-210.6,254.8l-281.9-159.7l88.7-317.9c-6.2-5.5-12.7-10.2-18.8-15.9
			c-86-80.8-155.2-173.6-208.8-273.4l-338,4.2l-73.6-324l282.4-137.3c-7.9-126.6,5.7-254.5,40.4-378.1l-256.7-247.4l162.5-287.1
			l319.6,110.7c2.6-3,4.7-6.2,7.3-9.2c76.9-88,164.8-159.6,259.1-215.8l-3-384.9l313-75l142,316.7c120.9-9.2,242.6,3.5,360.1,37.6
			l240.2-263.3l275.9,170.5l-107.1,323.6c2.3,2.1,4.7,3.8,7,5.9c89,83.6,159.8,180.1,214.1,284l335.4-26.8l90.2,319.4l-300.1,171.4
			C25069.1,21869.6,25056.4,21985.7,25026.6,22098.4"/>
		<path id="path374" class="st26" d="M29065.8,23280.5c-651.9-611.9-1671.4-550.3-2272.8,137.3
			c-601.3,687.5-560.2,1744.7,91.7,2356.5c651.9,611.8,1671.5,550.1,2272.8-137.4C29758.8,24949.3,29717.7,23892.3,29065.8,23280.5z
			 M30202.3,25135.3l589.9,540.1l-350,639l-729.1-231.2c-12.1,14.5-22.5,29.9-34.9,44.2c-172.9,197.6-370.6,357.5-582.8,482.3
			l70.5,771.7l-677.1,218.6l-377.1-680.3c-262.9,20.3-527.8-6-783.7-78.3l-465.1,562.5l-622.2-352.5l195.8-701.8
			c-13.6-12.2-28.1-22.6-41.5-35.2c-189.9-178.2-342.5-383.1-460.8-603.5l-746.3,9.3l-162.5-715.1l623.5-303.2
			c-17.4-279.5,12.6-561.8,89.1-834.6l-566.7-546.2l358.8-633.8l705.6,244.4c5.6-6.6,10.3-13.7,16-20.2
			c169.9-194.3,363.8-352.4,571.9-476.4l-6.5-849.8l691-165.5l313.4,699c266.8-20.1,535.6,7.9,794.9,83.1l530.3-581.3l609,376.5
			l-236.4,714.3c5,4.6,10.5,8.4,15.5,13.1c196.5,184.4,352.7,397.6,472.5,626.9l740.4-59.2l199.2,705.1l-662.6,378.4
			C30296.2,24630.2,30268,24886.5,30202.3,25135.3"/>
		<path id="path376" class="st20" d="M22412.8,24453.2c-414.7-389.2-1063.4-350-1446,87.4c-382.5,437.4-356.4,1110,58.4,1499.2
			c414.7,389.2,1063.3,350,1445.9-87.4C22853.7,25514.9,22827.5,24842.4,22412.8,24453.2z M23135.8,25633.3l375.3,343.6
			l-222.7,406.5l-463.8-147c-7.7,9.2-14.3,19-22.2,28c-110,125.8-235.8,227.5-370.8,306.9l44.8,491l-430.7,139l-239.9-432.8
			c-167.3,12.9-335.8-3.8-498.6-49.8l-295.9,357.9l-395.9-224.3l124.6-446.5c-8.6-7.7-17.9-14.4-26.4-22.4
			c-120.8-113.4-217.9-243.7-293.2-383.9l-474.8,5.9l-103.3-455l396.6-192.8c-11-177.9,8.1-357.5,56.7-531l-360.5-347.5l228.2-403.3
			l449,155.5c3.5-4.2,6.5-8.7,10.1-12.8c108.1-123.6,231.5-224.2,363.9-303.1l-4.2-540.7l439.7-105.2l199.4,444.7
			c169.7-12.9,340.7,5,505.7,52.8l337.4-369.8l387.4,239.5l-150.4,454.5c3.2,2.9,6.7,5.3,9.8,8.3c125.1,117.4,224.4,253,300.7,398.8
			l471-37.6l126.8,448.6L23188,25150C23195.6,25311.9,23177.6,25475,23135.8,25633.3"/>
	</g>
</g>
</svg>
